<svg width="50" height="50" viewBox="0 0 50 50" fill="none" xmlns="http://www.w3.org/2000/svg">
<path d="M46.3672 44.1016V16.4453L31.2891 12.1094V44.1016H30.1953V3.90625H12.8125V44.1406H11.7969V27.6172H2.38281V44.1406H2.34375V46.1328H47.6562V44.1406L46.3672 44.1016ZM39.6875 18.5156H44.0234V23.3594H39.6875V18.5156ZM39.6875 24.6484H44.0234V29.4922H39.6875V24.6484ZM39.6875 31.2891H44.0234V36.1328H39.6875V31.2891ZM39.6875 37.9297H44.0234V42.7734H39.6875V37.9297ZM33.0469 18.5156H37.3828V23.3594H33.0469V18.5156ZM33.0469 24.6484H37.3828V29.4922H33.0469V24.6484ZM33.0469 31.2891H37.3828V36.1328H33.0469V31.2891ZM33.0469 37.9297H37.3828V42.7734H33.0469V37.9297ZM7.69531 29.1406H10.5078V32.0703H7.69531V29.1406ZM7.69531 34.8047H10.5078V37.7344H7.69531V34.8047ZM7.69531 40.3516H10.5078V43.2812H7.69531V40.3516ZM3.67187 29.2188H6.48438V32.1484H3.67187V29.2188ZM3.67187 34.8437H6.48438V37.7734H3.67187V34.8437ZM3.67187 40.3906H6.48438V43.3203H3.67187V40.3906ZM23.0469 7.07031H27.3828V11.4063H23.0469V7.07031ZM23.0469 15.7422H27.3828V20.0781H23.0469V15.7422ZM23.0469 24.5703H27.3828V28.9062H23.0469V24.5703ZM15.5859 7.07031H19.9219V11.4063H15.5859V7.07031ZM15.5859 15.7422H19.9219V20.0781H15.5859V15.7422ZM15.5859 24.5703H19.9219V28.9062H15.5859V24.5703ZM17.1094 32.1484H25.7812V44.1406H23.6328V34.0234H19.2578V44.1016H17.0703L17.1094 32.1484Z" fill="#C29671"/>
</svg>
