<svg width="51" height="50" viewBox="0 0 51 50" fill="none" xmlns="http://www.w3.org/2000/svg">
<path d="M25.68 0.973267C23.1967 0.973143 20.7692 1.70939 18.7044 3.08891C16.6396 4.46843 15.0303 6.42926 14.0799 8.72344C13.1295 11.0176 12.8808 13.5421 13.3652 15.9776C13.8496 18.4131 15.0453 20.6503 16.8012 22.4063C18.557 24.1623 20.7942 25.3581 23.2297 25.8426C25.6652 26.3271 28.1897 26.0785 30.4839 25.1282C32.7781 24.178 34.739 22.5687 36.1187 20.504C37.4983 18.4393 38.2347 16.0118 38.2347 13.5286C38.2347 10.1988 36.912 7.00541 34.5575 4.65085C32.2031 2.29629 29.0097 0.973432 25.68 0.973267ZM24.6969 12.6396H26.6272C27.4922 12.6388 28.3222 12.9817 28.9344 13.5928C29.5467 14.2039 29.8911 15.0332 29.8919 15.8983C29.8927 16.7633 29.5499 17.5933 28.9387 18.2055C28.3276 18.8178 27.4983 19.1622 26.6332 19.163V20.77C26.6367 20.9106 26.6119 21.0505 26.5605 21.1814C26.509 21.3123 26.4319 21.4316 26.3337 21.5323C26.2354 21.633 26.118 21.713 25.9884 21.7676C25.8588 21.8222 25.7195 21.8503 25.5789 21.8503C25.4382 21.8503 25.299 21.8222 25.1693 21.7676C25.0397 21.713 24.9223 21.633 24.8241 21.5323C24.7258 21.4316 24.6487 21.3123 24.5973 21.1814C24.5458 21.0505 24.5211 20.9106 24.5245 20.77V19.1634H22.3242C22.0445 19.1634 21.7762 19.0523 21.5784 18.8545C21.3806 18.6567 21.2695 18.3885 21.2695 18.1087C21.2695 17.829 21.3806 17.5608 21.5784 17.363C21.7762 17.1652 22.0445 17.054 22.3242 17.054H26.6272C26.7796 17.0558 26.9309 17.0273 27.0723 16.9702C27.2136 16.9131 27.3423 16.8285 27.4507 16.7213C27.5591 16.6141 27.6452 16.4865 27.704 16.3458C27.7627 16.2051 27.793 16.0542 27.793 15.9017C27.793 15.7492 27.7627 15.5983 27.704 15.4576C27.6452 15.3169 27.5591 15.1893 27.4507 15.0821C27.3423 14.9749 27.2136 14.8903 27.0723 14.8332C26.9309 14.7761 26.7796 14.7476 26.6272 14.7494H24.6969C23.8033 14.7513 22.9443 14.4035 22.3038 13.7803C21.6633 13.1571 21.2921 12.308 21.2695 11.4147C21.247 10.5213 21.575 9.65457 22.1833 8.99988C22.7915 8.3452 23.6319 7.95454 24.5245 7.91147V6.28733C24.5211 6.14671 24.5458 6.00682 24.5973 5.8759C24.6487 5.74498 24.7258 5.62568 24.8241 5.52501C24.9223 5.42434 25.0397 5.34435 25.1693 5.28973C25.299 5.23511 25.4382 5.20697 25.5789 5.20697C25.7195 5.20697 25.8588 5.23511 25.9884 5.28973C26.118 5.34435 26.2354 5.42434 26.3337 5.52501C26.4319 5.62568 26.509 5.74498 26.5605 5.8759C26.6119 6.00682 26.6367 6.14671 26.6332 6.28733V7.89366H29.0357C29.3155 7.89366 29.5837 8.00478 29.7815 8.20257C29.9793 8.40036 30.0904 8.66862 30.0904 8.94835C30.0904 9.22807 29.9793 9.49633 29.7815 9.69412C29.5837 9.89191 29.3155 10.003 29.0357 10.003H24.6969C24.3473 10.003 24.012 10.1419 23.7648 10.3891C23.5176 10.6363 23.3787 10.9716 23.3787 11.3212C23.3787 11.6708 23.5176 12.0061 23.7648 12.2533C24.012 12.5006 24.3473 12.6396 24.6969 12.6396Z" fill="#C29671"/>
<path d="M12.1349 28.7H7.01158C6.90449 28.6999 6.79844 28.721 6.69951 28.762C6.60057 28.803 6.51067 28.8631 6.43497 28.9388C6.35926 29.0146 6.29922 29.1045 6.25827 29.2035C6.21733 29.3024 6.19629 29.4085 6.19635 29.5156V47.0008C6.19637 47.217 6.28227 47.4244 6.43515 47.5772C6.58804 47.7301 6.79538 47.816 7.01158 47.816H12.1349C12.6061 47.8159 13.058 47.6286 13.3912 47.2954C13.7243 46.9622 13.9115 46.5102 13.9115 46.039V30.4765C13.9114 30.0054 13.7242 29.5535 13.391 29.2204C13.0579 28.8872 12.606 28.7 12.1349 28.7Z" fill="#C29671"/>
<path d="M44.3395 30.7532C44.0687 30.3408 43.6994 30.0024 43.2651 29.7684C42.8307 29.5343 42.3449 29.4121 41.8516 29.4127H39.8438C38.9823 29.4109 38.1398 29.6658 37.4238 30.1449C36.7078 30.624 36.1508 31.3055 35.8238 32.1025C35.6297 32.5658 35.3592 32.9933 35.0237 33.3671C34.4534 34.2427 33.6819 34.9691 32.7734 35.4855C31.865 36.0018 30.8462 36.2932 29.8021 36.3352L23.855 36.3356C23.5753 36.3356 23.307 36.2245 23.1092 36.0267C22.9114 35.8289 22.8003 35.5607 22.8003 35.2809C22.8003 35.0012 22.9114 34.733 23.1092 34.5352C23.307 34.3374 23.5753 34.2263 23.855 34.2263H29.7739C30.5344 34.2068 31.2732 33.969 31.9024 33.5414V33.5057C31.9044 32.969 31.8005 32.4372 31.5966 31.9407C31.3926 31.4442 31.0927 30.9929 30.7139 30.6126C30.3351 30.2324 29.885 29.9306 29.3894 29.7247C28.8937 29.5188 28.3623 29.4128 27.8256 29.4127H23.4615C22.6641 29.4104 21.8741 29.5659 21.137 29.8703C20.4 30.1747 19.7304 30.6219 19.167 31.1862L19.0556 31.2972C18.2298 32.1216 17.1696 32.6708 16.0198 32.8696V44.5193H31.9349C34.2947 44.5208 36.6029 43.8297 38.5736 42.5317C40.5442 41.2336 42.0905 39.3858 43.0209 37.2172L44.5887 33.5681C44.7842 33.1151 44.8638 32.6206 44.8203 32.1291C44.7768 31.6377 44.6116 31.1648 44.3395 30.7532Z" fill="#C29671"/>
</svg>
