<svg width="51" height="40" viewBox="0 0 51 40" fill="none" xmlns="http://www.w3.org/2000/svg">
<g clip-path="url(#clip0_87_2544)">
<path d="M8.16666 17.5C10.9245 17.5 13.1667 15.2578 13.1667 12.5C13.1667 9.74219 10.9245 7.5 8.16666 7.5C5.40884 7.5 3.16666 9.74219 3.16666 12.5C3.16666 15.2578 5.40884 17.5 8.16666 17.5ZM43.1667 17.5C45.9245 17.5 48.1667 15.2578 48.1667 12.5C48.1667 9.74219 45.9245 7.5 43.1667 7.5C40.4088 7.5 38.1667 9.74219 38.1667 12.5C38.1667 15.2578 40.4088 17.5 43.1667 17.5ZM45.6667 20H40.6667C39.2917 20 38.0495 20.5547 37.1432 21.4531C40.2917 23.1797 42.526 26.2969 43.0104 30H48.1667C49.5495 30 50.6667 28.8828 50.6667 27.5V25C50.6667 22.2422 48.4245 20 45.6667 20ZM25.6667 20C30.5026 20 34.4167 16.0859 34.4167 11.25C34.4167 6.41406 30.5026 2.5 25.6667 2.5C20.8307 2.5 16.9167 6.41406 16.9167 11.25C16.9167 16.0859 20.8307 20 25.6667 20ZM31.6667 22.5H31.0182C29.3932 23.2812 27.5885 23.75 25.6667 23.75C23.7448 23.75 21.9479 23.2812 20.3151 22.5H19.6667C14.6979 22.5 10.6667 26.5313 10.6667 31.5V33.75C10.6667 35.8203 12.3463 37.5 14.4167 37.5H36.9167C38.987 37.5 40.6667 35.8203 40.6667 33.75V31.5C40.6667 26.5313 36.6354 22.5 31.6667 22.5ZM14.1901 21.4531C13.2838 20.5547 12.0417 20 10.6667 20H5.66666C2.90884 20 0.666656 22.2422 0.666656 25V27.5C0.666656 28.8828 1.78384 30 3.16666 30H8.31509C8.80728 26.2969 11.0417 23.1797 14.1901 21.4531Z" fill="#C29671"/>
</g>
<defs>
<clipPath id="clip0_87_2544">
<rect width="50" height="40" fill="white" transform="translate(0.666656)"/>
</clipPath>
</defs>
</svg>
