<svg width="54" height="54" viewBox="0 0 54 54" fill="none" xmlns="http://www.w3.org/2000/svg">
<path fill-rule="evenodd" clip-rule="evenodd" d="M26.104 9.19902C26.6514 8.85194 27.3486 8.85194 27.896 9.19902L48.7167 22.4004C49.501 22.8976 49.7356 23.9396 49.2407 24.7277C48.7459 25.5158 47.709 25.7516 46.9247 25.2543L27 12.6211L7.07531 25.2543C6.29104 25.7516 5.25411 25.5158 4.75926 24.7277C4.26442 23.9396 4.49904 22.8976 5.28331 22.4004L26.104 9.19902Z" fill="#C29671"/>
<path fill-rule="evenodd" clip-rule="evenodd" d="M12.0829 18.3965C13.0102 18.3965 13.762 19.1519 13.762 20.0838V46.1254H40.2379V20.0838C40.2379 19.1519 40.9896 18.3965 41.9169 18.3965C42.8443 18.3965 43.596 19.1519 43.596 20.0838V47.8127C43.596 48.7446 42.8443 49.5 41.9169 49.5H12.0829C11.1556 49.5 10.4038 48.7446 10.4038 47.8127V20.0838C10.4038 19.1519 11.1556 18.3965 12.0829 18.3965Z" fill="#C29671"/>
<path fill-rule="evenodd" clip-rule="evenodd" d="M29.7852 6.18729C29.7852 5.25543 30.5369 4.5 31.4642 4.5H38.8522C39.7796 4.5 40.5313 5.25543 40.5313 6.18729V18.1412C40.5313 19.073 39.7796 19.8285 38.8522 19.8285C37.9249 19.8285 37.1731 19.073 37.1731 18.1412V7.87458H33.1433V13.4561C33.1433 14.388 32.3916 15.1434 31.4642 15.1434C30.5369 15.1434 29.7852 14.388 29.7852 13.4561V6.18729Z" fill="#C29671"/>
<path d="M26.2828 37.8138C25.4082 37.8138 24.7426 38.0323 24.2854 38.4693C23.8277 38.9063 23.5981 39.5523 23.5981 40.4052C23.5981 41.2294 23.8325 41.8681 24.3003 42.3196C24.7681 42.7724 25.4284 42.9986 26.2828 42.9986C27.1165 42.9986 27.7673 42.7672 28.2351 42.3051C28.7028 41.8422 28.9362 41.2092 28.9362 40.4052C28.9362 39.5729 28.7048 38.9323 28.2432 38.4842C27.7798 38.0376 27.1266 37.8138 26.2828 37.8138Z" fill="#C29671"/>
<path d="M32.1774 21.4787C30.9422 20.4721 29.2767 19.9688 27.1827 19.9688C24.6412 19.9688 22.2356 20.6041 19.9688 21.8754L21.6309 25.2151C23.5827 24.2191 25.3217 23.7205 26.8466 23.7205C27.7216 23.7205 28.4026 23.8934 28.8896 24.2392C29.3785 24.585 29.6215 25.0883 29.6215 25.7492C29.6215 26.3389 29.4515 26.8725 29.111 27.3503C28.7705 27.8282 28.0669 28.4482 26.9993 29.2114C25.8913 30.0244 25.1282 30.7924 24.7123 31.5142C24.2945 32.236 24.0865 33.0856 24.0865 34.062V35.1901H28.1284V34.2757C28.1284 33.6653 28.2585 33.1725 28.5179 32.7955C28.7767 32.4205 29.3939 31.8706 30.3702 31.1487C31.7932 30.132 32.7595 29.2171 33.2676 28.4031C33.7762 27.5895 34.0313 26.6232 34.0313 25.5052C34.0313 23.8281 33.4132 22.4853 32.1774 21.4787Z" fill="#C29671"/>
</svg>
