<svg width="54" height="54" viewBox="0 0 54 54" fill="none" xmlns="http://www.w3.org/2000/svg">
<path fill-rule="evenodd" clip-rule="evenodd" d="M26.104 9.19902C26.6514 8.85194 27.3486 8.85194 27.896 9.19902L48.7167 22.4004C49.501 22.8976 49.7356 23.9396 49.2407 24.7277C48.7459 25.5158 47.709 25.7516 46.9247 25.2543L27 12.6211L7.07531 25.2543C6.29104 25.7516 5.25411 25.5158 4.75926 24.7277C4.26442 23.9396 4.49904 22.8976 5.28331 22.4004L26.104 9.19902Z" fill="#C29671"/>
<path fill-rule="evenodd" clip-rule="evenodd" d="M12.0829 18.3965C13.0102 18.3965 13.762 19.1519 13.762 20.0838V46.1254H40.2379V20.0838C40.2379 19.1519 40.9896 18.3965 41.9169 18.3965C42.8443 18.3965 43.596 19.1519 43.596 20.0838V47.8127C43.596 48.7446 42.8443 49.5 41.9169 49.5H12.0829C11.1556 49.5 10.4038 48.7446 10.4038 47.8127V20.0838C10.4038 19.1519 11.1556 18.3965 12.0829 18.3965Z" fill="#C29671"/>
<path fill-rule="evenodd" clip-rule="evenodd" d="M29.7852 6.18729C29.7852 5.25543 30.5369 4.5 31.4642 4.5H38.8522C39.7796 4.5 40.5313 5.25543 40.5313 6.18729V18.1412C40.5313 19.073 39.7796 19.8285 38.8522 19.8285C37.9249 19.8285 37.1731 19.073 37.1731 18.1412V7.87458H33.1433V13.4561C33.1433 14.388 32.3916 15.1434 31.4642 15.1434C30.5369 15.1434 29.7852 14.388 29.7852 13.4561V6.18729Z" fill="#C29671"/>
<path d="M29.4023 31.6657C31.7915 30.8157 33.5039 28.5333 33.5039 25.844C33.5039 22.4282 30.7507 19.6616 27.3516 19.6616C23.9524 19.6616 21.1992 22.4282 21.1992 25.844C21.1992 28.5333 22.9116 30.8157 25.3008 31.6657V36.148H21.1992V40.2696H25.3008V42.3304H29.4023V31.6657ZM25.3008 25.844C25.3008 24.7054 26.2185 23.7832 27.3516 23.7832C28.4846 23.7832 29.4023 24.7054 29.4023 25.844C29.4023 26.9826 28.4846 27.9048 27.3516 27.9048C26.2185 27.9048 25.3008 26.9826 25.3008 25.844Z" fill="#C29671"/>
</svg>
