<svg width="54" height="54" viewBox="0 0 54 54" fill="none" xmlns="http://www.w3.org/2000/svg">
<g clip-path="url(#clip0_320_5291)">
<path fill-rule="evenodd" clip-rule="evenodd" d="M26.104 9.19902C26.6514 8.85194 27.3486 8.85194 27.896 9.19902L48.7167 22.4004C49.501 22.8976 49.7356 23.9396 49.2407 24.7277C48.7459 25.5158 47.709 25.7516 46.9247 25.2543L27 12.6211L7.07531 25.2543C6.29104 25.7516 5.25411 25.5158 4.75926 24.7277C4.26442 23.9396 4.49904 22.8976 5.28331 22.4004L26.104 9.19902Z" fill="#C29671"/>
<path fill-rule="evenodd" clip-rule="evenodd" d="M12.0829 18.3965C13.0102 18.3965 13.762 19.152 13.762 20.0838V46.1254H40.2379V20.0838C40.2379 19.152 40.9896 18.3965 41.9169 18.3965C42.8443 18.3965 43.596 19.152 43.596 20.0838V47.8127C43.596 48.7446 42.8443 49.5 41.9169 49.5H12.0829C11.1556 49.5 10.4038 48.7446 10.4038 47.8127V20.0838C10.4038 19.152 11.1556 18.3965 12.0829 18.3965Z" fill="#C29671"/>
<path fill-rule="evenodd" clip-rule="evenodd" d="M29.7852 6.18729C29.7852 5.25543 30.5369 4.5 31.4642 4.5H38.8522C39.7796 4.5 40.5313 5.25543 40.5313 6.18729V18.1412C40.5313 19.073 39.7796 19.8285 38.8522 19.8285C37.9249 19.8285 37.1731 19.073 37.1731 18.1412V7.87458H33.1433V13.4561C33.1433 14.388 32.3916 15.1434 31.4642 15.1434C30.5369 15.1434 29.7852 14.388 29.7852 13.4561V6.18729Z" fill="#C29671"/>
<path fill-rule="evenodd" clip-rule="evenodd" d="M28.8318 23.86C28.3366 23.6539 27.7918 23.6 27.2661 23.7051C26.7405 23.8101 26.2576 24.0695 25.8786 24.4503C25.4996 24.8312 25.2416 25.3164 25.137 25.8446C25.0324 26.3728 25.0861 26.9203 25.2912 27.4179C25.4963 27.9155 25.8436 28.3408 26.2893 28.64C26.7349 28.9392 27.2588 29.0989 27.7948 29.0989C28.842 29.0989 29.8658 29.411 30.7365 29.9957C31.6073 30.5804 32.2859 31.4114 32.6866 32.3837C33.0874 33.356 33.1921 34.4259 32.9878 35.458C32.7834 36.4902 32.279 37.4382 31.5384 38.1823C30.7978 38.9263 29.8542 39.433 28.827 39.6381C27.7999 39.8433 26.7352 39.7378 25.7678 39.3349C24.8003 38.932 23.9734 38.2499 23.3918 37.3748C22.8101 36.4996 22.4998 35.4708 22.5 34.4184C22.5002 33.7012 23.0789 33.1198 23.7927 33.12C24.5065 33.1201 25.0851 33.7017 25.0849 34.419C25.0848 34.9576 25.2436 35.4842 25.5413 35.932C25.839 36.3799 26.2622 36.729 26.7574 36.9352C27.2525 37.1414 27.7974 37.1954 28.3231 37.0904C28.8488 36.9854 29.3317 36.7261 29.7107 36.3453C30.0898 35.9645 30.3479 35.4793 30.4525 34.9511C30.5571 34.4228 30.5035 33.8753 30.2984 33.3776C30.0933 32.88 29.746 32.4547 29.3004 32.1555C28.8547 31.8562 28.3308 31.6965 27.7948 31.6965C26.7476 31.6965 25.7239 31.3844 24.8532 30.7998C23.9824 30.2152 23.3038 29.3842 22.903 28.412C22.5023 27.4397 22.3974 26.3699 22.6017 25.3378C22.806 24.3057 23.3103 23.3577 24.0508 22.6136C24.7913 21.8695 25.7347 21.3627 26.7618 21.1574C27.7889 20.9521 28.8535 21.0575 29.821 21.4602C30.7885 21.8629 31.6154 22.5449 32.1972 23.4198C32.779 24.2948 33.0896 25.3235 33.0896 26.3758C33.0896 27.0931 32.5109 27.6746 31.7971 27.6746C31.0833 27.6746 30.5047 27.0931 30.5047 26.3758C30.5047 25.8373 30.3457 25.3108 30.048 24.863C29.7502 24.4152 29.327 24.0661 28.8318 23.86Z" fill="#C29671"/>
<path fill-rule="evenodd" clip-rule="evenodd" d="M27.7947 19.125C28.5085 19.125 29.0871 19.7065 29.0871 20.4238V40.3712C29.0871 41.0885 28.5085 41.67 27.7947 41.67C27.0809 41.67 26.5022 41.0885 26.5022 40.3712V20.4238C26.5022 19.7065 27.0809 19.125 27.7947 19.125Z" fill="#C29671"/>
</g>
<defs>
<clipPath id="clip0_320_5291">
<rect width="54" height="54" fill="white"/>
</clipPath>
</defs>
</svg>
