<svg width="121" height="121" viewBox="0 0 121 121" fill="none" xmlns="http://www.w3.org/2000/svg">
<rect width="120" height="120" transform="translate(0.350628 0.384766)" fill="#3D4B20"/>
<path d="M50.8545 55.6305H77.1413V50.9146H50.8545C50.2281 50.9146 49.6273 51.163 49.1844 51.6052C48.7415 52.0474 48.4926 52.6472 48.4926 53.2725C48.4926 53.8979 48.7415 54.4977 49.1844 54.9399C49.6273 55.3821 50.2281 55.6305 50.8545 55.6305Z" fill="#B7872C"/>
<path d="M50.8545 68.9289H77.1413V64.2129H50.8545C50.2281 64.2129 49.6273 64.4613 49.1844 64.9035C48.7415 65.3457 48.4926 65.9455 48.4926 66.5709C48.4926 67.1963 48.7415 67.796 49.1844 68.2382C49.6273 68.6804 50.2281 68.9289 50.8545 68.9289Z" fill="#B7872C"/>
<path d="M60.2711 10.4001C48.3618 10.4012 36.8426 14.6388 27.7798 22.3526C18.717 30.0664 12.7036 40.7516 10.8184 52.4916C10.642 53.5558 10.5193 54.6353 10.4196 55.7224H15.1586H33.5625H38.4242C39.2435 51.8583 41.3652 48.3915 44.4353 45.9004C47.5054 43.4093 51.3383 42.0445 55.2944 42.0338H77.218V37.3408H55.2944C50.9284 37.343 46.6615 38.6412 43.0363 41.0705C39.4111 43.4997 36.5912 46.9502 34.9351 50.9834H15.9025C18.2408 40.0038 24.5803 30.2825 33.6914 23.7052C42.8024 17.1279 54.0356 14.1635 65.212 15.3869C76.3885 16.6103 86.7114 21.9343 94.1786 30.3263C101.646 38.7183 105.725 49.58 105.625 60.8046C105.525 72.0292 101.252 82.8167 93.6365 91.0745C86.0207 99.3323 75.6044 104.472 64.4079 105.496C53.2114 106.521 42.0329 103.357 33.0407 96.6185C24.0484 89.8802 17.8834 80.0477 15.7414 69.0282H34.7741C36.3749 73.165 39.1913 76.7218 42.8534 79.2317C46.5156 81.7416 50.8524 83.0872 55.2944 83.0919H77.218V78.3759H55.2944C51.2707 78.3692 47.3752 76.9619 44.279 74.3962C41.1829 71.8305 39.0798 68.2671 38.3322 64.3198H10.3506C10.4273 65.3534 10.5347 66.3793 10.6804 67.3822C12.0247 76.878 16.076 85.7875 22.3512 93.0485C28.6265 100.309 36.861 105.615 46.0728 108.334C55.2847 111.052 65.0853 111.069 74.3061 108.381C83.5269 105.693 91.7789 100.414 98.0782 93.1737C104.378 85.9336 108.458 77.0375 109.834 67.5462C111.21 58.0548 109.823 48.3687 105.838 39.6426C101.853 30.9166 95.4385 23.5187 87.3593 18.3312C79.2801 13.1436 69.877 10.3852 60.2711 10.3848" fill="#B7872C"/>
</svg>
