<svg width="14" height="15" viewBox="0 0 14 15" fill="none" xmlns="http://www.w3.org/2000/svg">
<path fill-rule="evenodd" clip-rule="evenodd" d="M9.69683 3.26864L8.49854 4.46693C7.2702 4.22323 2.35122 3.04936 2.28689 3.12966C2.21505 3.21981 2.1897 3.28179 2.04555 3.4621C3.46452 4.53689 4.91026 5.56426 6.33299 6.63248L4.52288 8.44259L2 8.59989L4.21767 9.88598L5.46245 12.0623L5.6188 9.5479C6.2109 8.96097 6.80723 8.37779 7.40215 7.79367C8.48211 9.23049 9.51981 10.6913 10.6054 12.1248C10.7857 11.9802 10.8477 11.9553 10.9378 11.883C11.0191 11.8182 9.80764 6.74752 9.59024 5.61779C9.99828 5.20318 10.4026 4.78528 10.8017 4.36175C12.9278 2.10839 12.0169 0.948137 9.69683 3.26864Z" fill="#C4C4C4"/>
</svg>
