<svg width="21" height="20" viewBox="0 0 21 20" fill="none" xmlns="http://www.w3.org/2000/svg">
<path d="M9.239 3.66418C9.8238 3.76038 10.3554 4.06122 10.739 4.51302C11.1225 4.96481 11.3331 5.53818 11.3332 6.13084V7.79751H6.33317V6.13084C6.33317 5.26584 6.77317 4.50251 7.4415 4.05418C7.20149 3.84046 6.90481 3.7007 6.58719 3.65172C6.26957 3.60274 5.94457 3.64663 5.65132 3.77811C5.35807 3.90958 5.10909 4.12304 4.93436 4.39276C4.75964 4.66248 4.66661 4.97697 4.6665 5.29834V10.2983H17.9998C18.2208 10.2983 18.4328 10.3861 18.5891 10.5424C18.7454 10.6987 18.8332 10.9107 18.8332 11.1317C18.8332 11.3527 18.7454 11.5647 18.5891 11.7209C18.4328 11.8772 18.2208 11.965 17.9998 11.965V12.7983C17.9998 13.8324 17.6792 14.8411 17.0823 15.6854C16.4853 16.5298 15.6414 17.1684 14.6665 17.5133V17.9167C14.6665 18.1377 14.5787 18.3497 14.4224 18.5059C14.2661 18.6622 14.0542 18.75 13.8332 18.75C13.6122 18.75 13.4002 18.6622 13.2439 18.5059C13.0876 18.3497 12.9998 18.1377 12.9998 17.9167V17.7983H7.99984V17.9167C7.99984 18.1377 7.91204 18.3497 7.75576 18.5059C7.59948 18.6622 7.38752 18.75 7.1665 18.75C6.94549 18.75 6.73353 18.6622 6.57725 18.5059C6.42097 18.3497 6.33317 18.1377 6.33317 17.9167V17.5133C5.35831 17.1684 4.51433 16.5298 3.91738 15.6854C3.32044 14.8411 2.99988 13.8324 2.99984 12.7983V11.965C2.77882 11.965 2.56686 11.8772 2.41058 11.7209C2.2543 11.5647 2.1665 11.3527 2.1665 11.1317C2.1665 10.9107 2.2543 10.6987 2.41058 10.5424C2.56686 10.3861 2.77882 10.2983 2.99984 10.2983V5.29834C2.9998 4.56125 3.24408 3.84493 3.69446 3.26143C4.14485 2.67794 4.77593 2.26018 5.48899 2.07351C6.20206 1.88684 6.95689 1.94178 7.63541 2.22974C8.31393 2.51771 8.87786 3.02161 9.239 3.66418Z" fill="#C4C4C4"/>
</svg>
