<svg width="26" height="20" viewBox="0 0 26 20" fill="none" xmlns="http://www.w3.org/2000/svg">
<g clip-path="url(#clip0_146_1240)">
<path d="M7.4751 10C9.19814 10 10.6001 8.59805 10.6001 6.875C10.6001 5.15195 9.19814 3.75 7.4751 3.75C5.75205 3.75 4.3501 5.15195 4.3501 6.875C4.3501 8.59805 5.75205 10 7.4751 10ZM21.2251 5H12.4751C12.1298 5 11.8501 5.27969 11.8501 5.625V11.25H3.1001V3.125C3.1001 2.77969 2.82041 2.5 2.4751 2.5H1.2251C0.879785 2.5 0.600098 2.77969 0.600098 3.125V16.875C0.600098 17.2203 0.879785 17.5 1.2251 17.5H2.4751C2.82041 17.5 3.1001 17.2203 3.1001 16.875V15H23.1001V16.875C23.1001 17.2203 23.3798 17.5 23.7251 17.5H24.9751C25.3204 17.5 25.6001 17.2203 25.6001 16.875V9.375C25.6001 6.95859 23.6415 5 21.2251 5Z" fill="#C4C4C4"/>
</g>
<defs>
<clipPath id="clip0_146_1240">
<rect width="25" height="20" fill="white" transform="translate(0.600098)"/>
</clipPath>
</defs>
</svg>
