<svg width="14" height="15" viewBox="0 0 14 15" fill="none" xmlns="http://www.w3.org/2000/svg">
<path fill-rule="evenodd" clip-rule="evenodd" d="M3.93496 13.1875C3.2127 13.1875 2.625 12.6 2.625 11.8752V3.34375C2.625 2.73548 3.11323 2.25 3.7155 2.25H11.375V2.6875H11.1542C10.7962 2.6875 10.5 2.98131 10.5 3.34375C10.5 3.70871 10.7929 4 11.1542 4H11.375V13.1875H4.8125V4H10.2812C10.2812 4 10.0625 3.65459 10.0625 3.33218C10.0625 3.00977 10.2812 2.6875 10.2812 2.6875H3.71585C3.35501 2.6875 3.0625 2.97879 3.0625 3.34375C3.0625 3.70619 3.35442 4 3.71585 4H4.375V13.1875H3.93496Z" fill="#C4C4C4"/>
</svg>
