<svg width="20" height="24" viewBox="0 0 20 24" fill="none" xmlns="http://www.w3.org/2000/svg">
<g clip-path="url(#clip0_146_1230)">
<path d="M7.14286 1.99998V3.42855H12.8571V1.99998C12.8571 1.21114 13.4955 0.571411 14.2857 0.571411C15.0759 0.571411 15.7143 1.21114 15.7143 1.99998V3.42855H17.8571C19.0402 3.42855 20 4.38793 20 5.57141V7.71427H0V5.57141C0 4.38793 0.959375 3.42855 2.14286 3.42855H4.28571V1.99998C4.28571 1.21114 4.92411 0.571411 5.71429 0.571411C6.50446 0.571411 7.14286 1.21114 7.14286 1.99998ZM0 9.14284H20V21.2857C20 22.4687 19.0402 23.4286 17.8571 23.4286H2.14286C0.959375 23.4286 0 22.4687 0 21.2857V9.14284ZM14.6473 14.1473C15.1027 13.7678 15.1027 13.0893 14.6473 12.6696C14.2679 12.2544 13.5893 12.2544 13.1696 12.6696L8.92857 16.9152L6.79018 14.8125C6.41071 14.3973 5.73214 14.3973 5.3125 14.8125C4.89732 15.2321 4.89732 15.9107 5.3125 16.2902L8.16964 19.1473C8.58929 19.6027 9.26786 19.6027 9.64732 19.1473L14.6473 14.1473Z" fill="white"/>
</g>
<defs>
<clipPath id="clip0_146_1230">
<rect width="20" height="22.8571" fill="white" transform="translate(0 0.571411)"/>
</clipPath>
</defs>
</svg>
