<svg width="40" height="40" viewBox="0 0 40 40" fill="none" xmlns="http://www.w3.org/2000/svg">
<path d="M15.5574 32.3474C16.8202 32.3474 16.8202 34.2674 15.5574 34.2674H8.92991C1.24324 34.2674 -2.45884 24.8388 3.04136 19.6056C3.01963 14.8178 7.01651 10.9036 11.8208 11.0543C16.8547 2.23329 30.5022 4.94276 31.731 15.0304C42.9932 16.9112 41.9042 34.2674 29.9934 34.2674H19.4617C18.9316 34.2674 18.5016 33.8375 18.5016 33.3074V19.3282L15.212 23.0374C14.3796 23.978 12.9471 22.7105 13.7796 21.7698L18.6901 16.2332C19.0719 15.7192 19.85 15.7188 20.2322 16.2323L25.1437 21.7698C25.9762 22.7105 24.5437 23.978 23.7113 23.0374L20.4217 19.3282V32.3474H29.9934C39.7673 32.3474 40.4217 17.797 30.7857 16.8337C30.3057 16.8049 29.9135 16.4184 29.8885 15.9271C29.4028 6.94971 17.2794 4.49819 13.2518 12.4272C13.0912 12.8047 12.6981 13.0499 12.2692 13.0041C8.21227 12.568 4.73083 15.9195 4.96894 19.9618C4.985 20.2504 4.87161 20.5429 4.63492 20.7451C0.0356715 24.6928 2.79475 32.3474 8.92991 32.3474H15.5574Z" fill="#C29671"/>
</svg>
