<svg width="16" height="16" viewBox="0 0 16 16" fill="none" xmlns="http://www.w3.org/2000/svg">
<g clip-path="url(#clip0_952_2871)">
<path d="M14.8 6.73596C14.8808 6.68893 14.9478 6.62153 14.9944 6.54049C15.041 6.45945 15.0656 6.36761 15.0656 6.27413V3.99219C15.0656 3.92202 15.0518 3.85254 15.0249 3.78771C14.9981 3.72288 14.9587 3.66397 14.9091 3.61436C14.8595 3.56474 14.8006 3.52538 14.7357 3.49853C14.6709 3.47168 14.6014 3.45787 14.5313 3.45787H10.9093V4.3485C10.9093 4.49021 10.853 4.62611 10.7528 4.72632C10.6526 4.82652 10.5167 4.88281 10.375 4.88281C10.2333 4.88281 10.0974 4.82652 9.9972 4.72632C9.89699 4.62611 9.8407 4.49021 9.8407 4.3485V3.45787H1.46876C1.39859 3.45787 1.32911 3.47168 1.26428 3.49853C1.19945 3.52538 1.14055 3.56474 1.09093 3.61436C1.04131 3.66397 1.00196 3.72288 0.975107 3.78771C0.948258 3.85254 0.934442 3.92202 0.934448 3.99219V6.27413C0.93446 6.36761 0.958989 6.45945 1.00559 6.54049C1.05219 6.62153 1.11923 6.68893 1.20001 6.73596C1.4236 6.86274 1.60956 7.04656 1.73892 7.26866C1.86829 7.49076 1.93643 7.7432 1.9364 8.00023C1.93637 8.25726 1.86817 8.50968 1.73876 8.73175C1.60934 8.95383 1.42334 9.1376 1.19972 9.26433C1.11897 9.31138 1.05198 9.37879 1.00543 9.45983C0.95888 9.54087 0.934407 9.63271 0.934451 9.72617V12.0078C0.934445 12.078 0.948261 12.1475 0.97511 12.2123C1.00196 12.2771 1.04132 12.336 1.09093 12.3856C1.14055 12.4353 1.19945 12.4746 1.26428 12.5015C1.32911 12.5283 1.39859 12.5421 1.46876 12.5421H9.8407V11.6515C9.8407 11.5098 9.89699 11.3739 9.9972 11.2737C10.0974 11.1735 10.2333 11.1172 10.375 11.1172C10.5167 11.1172 10.6526 11.1735 10.7528 11.2737C10.853 11.3739 10.9093 11.5098 10.9093 11.6515V12.5421H14.5313C14.6014 12.5421 14.6709 12.5283 14.7357 12.5015C14.8006 12.4746 14.8595 12.4353 14.9091 12.3856C14.9587 12.336 14.9981 12.2771 15.0249 12.2123C15.0518 12.1475 15.0656 12.078 15.0656 12.0078V9.72617C15.0656 9.63268 15.041 9.54084 14.9944 9.4598C14.9478 9.37876 14.8808 9.31136 14.8 9.26433C14.5765 9.13754 14.3905 8.95374 14.2611 8.73166C14.1318 8.50957 14.0636 8.25716 14.0636 8.00015C14.0636 7.74313 14.1318 7.49072 14.2611 7.26864C14.3905 7.04655 14.5765 6.86275 14.8 6.73596ZM10.9093 9.81096C10.9093 9.95267 10.853 10.0886 10.7528 10.1888C10.6526 10.289 10.5167 10.3453 10.375 10.3453C10.2333 10.3453 10.0974 10.289 9.99719 10.1888C9.89699 10.0886 9.8407 9.95267 9.8407 9.81096V8.92034C9.8407 8.77863 9.89699 8.64272 9.99719 8.54252C10.0974 8.44232 10.2333 8.38602 10.375 8.38602C10.5167 8.38602 10.6526 8.44232 10.7528 8.54252C10.853 8.64272 10.9093 8.77863 10.9093 8.92034V9.81096ZM10.9093 7.07966C10.9093 7.22137 10.853 7.35727 10.7528 7.45747C10.6526 7.55768 10.5167 7.61397 10.375 7.61397C10.2333 7.61397 10.0974 7.55768 9.99719 7.45747C9.89699 7.35727 9.8407 7.22137 9.8407 7.07966V6.18903C9.8407 6.04732 9.89699 5.91142 9.99719 5.81121C10.0974 5.71101 10.2333 5.65472 10.375 5.65472C10.5167 5.65472 10.6526 5.71101 10.7528 5.81121C10.853 5.91142 10.9093 6.04732 10.9093 6.18903V7.07966Z" fill="#EBF0FA"/>
</g>
<defs>
<clipPath id="clip0_952_2871">
<rect width="16" height="16" fill="white"/>
</clipPath>
</defs>
</svg>
