<svg width="20" height="21" viewBox="0 0 20 21" fill="none" xmlns="http://www.w3.org/2000/svg">
<path d="M7.80134 3.56548H12.8237V2.17039C12.8237 1.70827 13.1968 1.33334 13.6607 1.33334C14.1246 1.33334 14.4978 1.70827 14.4978 2.17039V3.56548H15.8929C17.124 3.56548 18.125 4.56472 18.125 5.79763V16.9583C18.125 18.1895 17.124 19.1905 15.8929 19.1905H4.73214C3.49923 19.1905 2.5 18.1895 2.5 16.9583V5.79763C2.5 4.56472 3.49923 3.56548 4.73214 3.56548H6.12723V2.17039C6.12723 1.70827 6.50042 1.33334 6.96429 1.33334C7.42815 1.33334 7.80134 1.70827 7.80134 2.17039V3.56548ZM4.17411 16.9583C4.17411 17.2653 4.42383 17.5164 4.73214 17.5164H15.8929C16.1998 17.5164 16.4509 17.2653 16.4509 16.9583V8.02977H4.17411V16.9583Z" fill="#C4C4C4"/>
</svg>
