<svg width="16" height="16" viewBox="0 0 16 16" fill="none" xmlns="http://www.w3.org/2000/svg">
<g clip-path="url(#clip0_243_5262)">
<path d="M14.6667 4.33334C14.6667 4.67524 14.4093 4.95702 14.0777 4.99552L14 5.00001H13.4369L12.6159 13.3461C12.5236 14.2846 11.7344 15 10.7914 15H5.87529C4.93227 15 4.14307 14.2846 4.05076 13.3461L3.22983 5.00001H2.66667C2.29848 5.00001 2 4.70153 2 4.33334C2 3.96516 2.29848 3.66668 2.66667 3.66668H6C6 2.37801 7.04467 1.33334 8.33333 1.33334C9.622 1.33334 10.6667 2.37801 10.6667 3.66668H14C14.3682 3.66668 14.6667 3.96516 14.6667 4.33334ZM9.83333 6.50001C9.5802 6.50001 9.371 6.68811 9.33787 6.93216L9.33333 7.00001V11.6667L9.33787 11.7345C9.371 11.9785 9.5802 12.1667 9.83333 12.1667C10.0865 12.1667 10.2957 11.9785 10.3288 11.7345L10.3333 11.6667V7.00001L10.3288 6.93216C10.2957 6.68811 10.0865 6.50001 9.83333 6.50001ZM6.83333 6.50001C6.5802 6.50001 6.37101 6.68811 6.3379 6.93216L6.33333 7.00001V11.6667L6.3379 11.7345C6.37101 11.9785 6.5802 12.1667 6.83333 12.1667C7.08647 12.1667 7.29567 11.9785 7.3288 11.7345L7.33333 11.6667V7.00001L7.3288 6.93216C7.29567 6.68811 7.08647 6.50001 6.83333 6.50001ZM8.33333 2.66668C7.78107 2.66668 7.33333 3.11439 7.33333 3.66668H9.33333C9.33333 3.11439 8.8856 2.66668 8.33333 2.66668Z" fill="#E96767"/>
</g>
<defs>
<clipPath id="clip0_243_5262">
<rect width="16" height="16" fill="white"/>
</clipPath>
</defs>
</svg>
