<svg width="16" height="16" viewBox="0 0 16 16" fill="none" xmlns="http://www.w3.org/2000/svg">
<g clip-path="url(#clip0_952_1080)">
<path d="M9.11111 4.66667V2.45C9.14445 2.47778 9.17778 2.51111 9.20556 2.53889L12.35 5.68333C12.3778 5.71111 12.4111 5.74445 12.4389 5.77778H10.2222C9.92781 5.7769 9.64571 5.65955 9.43752 5.45137C9.22934 5.24319 9.11199 4.96108 9.11111 4.66667Z" fill="#EBF0FA"/>
<path d="M12.9667 6.88889H10.2222C9.63285 6.88889 9.06762 6.65476 8.65087 6.23802C8.23413 5.82127 8 5.25604 8 4.66667V1.92222C7.87903 1.90012 7.75631 1.88896 7.63333 1.88889H4.66667C4.22464 1.88889 3.80072 2.06448 3.48816 2.37704C3.17559 2.68961 3 3.11353 3 3.55556V12.4444C3 12.8865 3.17559 13.3104 3.48816 13.623C3.80072 13.9355 4.22464 14.1111 4.66667 14.1111H11.3333C11.7754 14.1111 12.1993 13.9355 12.5118 13.623C12.8244 13.3104 13 12.8865 13 12.4444V7.25556C12.9999 7.13258 12.9888 7.00986 12.9667 6.88889ZM5.22222 9.11111H7.44444C7.59179 9.11111 7.73309 9.16964 7.83728 9.27383C7.94147 9.37802 8 9.51932 8 9.66667C8 9.81401 7.94147 9.95532 7.83728 10.0595C7.73309 10.1637 7.59179 10.2222 7.44444 10.2222H5.22222C5.07488 10.2222 4.93357 10.1637 4.82939 10.0595C4.7252 9.95532 4.66667 9.81401 4.66667 9.66667C4.66667 9.51932 4.7252 9.37802 4.82939 9.27383C4.93357 9.16964 5.07488 9.11111 5.22222 9.11111ZM10.7778 12.4444H5.22222C5.07488 12.4444 4.93357 12.3859 4.82939 12.2817C4.7252 12.1775 4.66667 12.0362 4.66667 11.8889C4.66667 11.7415 4.7252 11.6002 4.82939 11.4961C4.93357 11.3919 5.07488 11.3333 5.22222 11.3333H10.7778C10.9251 11.3333 11.0664 11.3919 11.1706 11.4961C11.2748 11.6002 11.3333 11.7415 11.3333 11.8889C11.3333 12.0362 11.2748 12.1775 11.1706 12.2817C11.0664 12.3859 10.9251 12.4444 10.7778 12.4444Z" fill="#EBF0FA"/>
</g>
<defs>
<clipPath id="clip0_952_1080">
<rect width="13.3333" height="13.3333" fill="white" transform="translate(1.33334 1.33333)"/>
</clipPath>
</defs>
</svg>
