<svg width="16" height="16" viewBox="0 0 16 16" fill="none" xmlns="http://www.w3.org/2000/svg">
<g clip-path="url(#clip0_243_5248)">
<path d="M3.33301 12.0039H6.15967C6.24741 12.0044 6.33439 11.9876 6.41561 11.9544C6.49684 11.9212 6.57071 11.8723 6.63301 11.8105L11.2463 7.19054L13.1397 5.33721C13.2022 5.27523 13.2518 5.2015 13.2856 5.12026C13.3194 5.03902 13.3369 4.95188 13.3369 4.86388C13.3369 4.77587 13.3194 4.68873 13.2856 4.60749C13.2518 4.52625 13.2022 4.45252 13.1397 4.39054L10.313 1.53054C10.251 1.46806 10.1773 1.41846 10.0961 1.38461C10.0148 1.35077 9.92768 1.33334 9.83967 1.33334C9.75167 1.33334 9.66453 1.35077 9.58329 1.38461C9.50205 1.41846 9.42832 1.46806 9.36634 1.53054L7.48634 3.41721L2.85967 8.03721C2.79789 8.0995 2.749 8.17338 2.71583 8.25461C2.68265 8.33583 2.66583 8.4228 2.66634 8.51054V11.3372C2.66634 11.514 2.73658 11.6836 2.8616 11.8086C2.98663 11.9336 3.1562 12.0039 3.33301 12.0039ZM9.83967 2.94388L11.7263 4.83054L10.7797 5.77721L8.89301 3.89054L9.83967 2.94388ZM3.99967 8.78388L7.95301 4.83054L9.83967 6.71721L5.88634 10.6705H3.99967V8.78388ZM13.9997 13.3372H1.99967C1.82286 13.3372 1.65329 13.4074 1.52827 13.5325C1.40325 13.6575 1.33301 13.8271 1.33301 14.0039C1.33301 14.1807 1.40325 14.3503 1.52827 14.4753C1.65329 14.6003 1.82286 14.6705 1.99967 14.6705H13.9997C14.1765 14.6705 14.3461 14.6003 14.4711 14.4753C14.5961 14.3503 14.6663 14.1807 14.6663 14.0039C14.6663 13.8271 14.5961 13.6575 14.4711 13.5325C14.3461 13.4074 14.1765 13.3372 13.9997 13.3372Z" fill="#C29671"/>
</g>
<defs>
<clipPath id="clip0_243_5248">
<rect width="16" height="16" fill="white"/>
</clipPath>
</defs>
</svg>
