<svg width="16" height="16" viewBox="0 0 16 16" fill="none" xmlns="http://www.w3.org/2000/svg">
<path d="M2.44446 7.16667C2.44446 4.86548 4.30994 3 6.61112 3C8.91229 3 10.7778 4.86548 10.7778 7.16667C10.7778 9.46783 8.91229 11.3333 6.61112 11.3333C6.00016 11.3333 5.41897 11.2016 4.89525 10.9646C4.19621 11.1259 3.44349 11.2647 3.0972 11.3264C2.7152 11.3944 2.38248 11.0591 2.45654 10.6763C2.52198 10.3381 2.66737 9.61111 2.83521 8.9305C2.58442 8.39444 2.44446 7.79639 2.44446 7.16667ZM5.85779 4.83735C5.61249 4.96839 5.41903 5.17229 5.27255 5.44247C5.16287 5.64477 5.23796 5.89768 5.44026 6.00736C5.64255 6.11703 5.89546 6.04195 6.00514 5.83965C6.08644 5.6897 6.17076 5.61494 6.25046 5.57237C6.33432 5.52757 6.44706 5.50042 6.61109 5.50041C6.7353 5.5004 6.88176 5.54436 6.98935 5.63252C7.08407 5.71014 7.16663 5.83498 7.16663 6.05556C7.16663 6.1638 7.1249 6.21372 6.83974 6.43781C6.58954 6.63442 6.1944 6.95333 6.1944 7.58333C6.1944 7.81344 6.38095 8 6.61107 8C6.84119 8 7.02774 7.81344 7.02774 7.58333C7.02774 7.3775 7.11874 7.27844 7.35462 7.09306C7.36912 7.08167 7.3849 7.06956 7.40163 7.05667C7.61735 6.89094 7.99996 6.59699 7.99996 6.05556C7.99996 5.58437 7.80474 5.22329 7.51751 4.98794C7.24318 4.76313 6.90351 4.66706 6.61105 4.66707C6.35841 4.66709 6.09892 4.70853 5.85779 4.83735ZM7.16674 9.11117C7.16674 8.80428 6.91801 8.55556 6.61116 8.55556C6.30432 8.55556 6.05557 8.80428 6.05557 9.11117C6.05557 9.418 6.30432 9.66672 6.61116 9.66672C6.91801 9.66672 7.16674 9.418 7.16674 9.11117Z" fill="#EBF0FA"/>
<path d="M6.55579 11.8886C7.29924 12.5783 8.29485 13 9.38896 13C9.9999 13 10.5811 12.8683 11.1048 12.6313C11.8048 12.7927 12.5612 12.9309 12.9092 12.9922C13.2921 13.0598 13.6246 12.7223 13.5484 12.3392C13.4812 12.0011 13.3328 11.2762 13.1649 10.5971C13.4157 10.0611 13.5556 9.46306 13.5556 8.83334C13.5556 7.0095 12.3838 5.45937 10.752 4.89474C11.1226 5.5688 11.3334 6.34313 11.3334 7.16673C11.3334 9.77473 9.21918 11.8889 6.61119 11.8889C6.5927 11.8889 6.57423 11.8888 6.55579 11.8886Z" fill="#EBF0FA"/>
</svg>
