<svg width="17" height="18" viewBox="0 0 17 18" fill="none" xmlns="http://www.w3.org/2000/svg">
<path d="M6.78711 9C6.78711 9.85284 7.48114 10.5469 8.33398 10.5469C9.18683 10.5469 9.88086 9.85284 9.88086 9C9.88086 8.14716 9.18683 7.45312 8.33398 7.45312C7.48114 7.45312 6.78711 8.14716 6.78711 9Z" fill="#EBF0FA"/>
<path d="M6.78711 14.1562C6.78711 15.0091 7.48114 15.7031 8.33398 15.7031C9.18683 15.7031 9.88086 15.0091 9.88086 14.1562C9.88086 13.3034 9.18683 12.6094 8.33398 12.6094C7.48114 12.6094 6.78711 13.3034 6.78711 14.1562Z" fill="#EBF0FA"/>
<path d="M6.78711 3.84375C6.78711 4.69659 7.48114 5.39062 8.33398 5.39062C9.18683 5.39062 9.88086 4.69659 9.88086 3.84375C9.88086 2.99091 9.18683 2.29688 8.33398 2.29688C7.48114 2.29688 6.78711 2.99091 6.78711 3.84375Z" fill="#EBF0FA"/>
</svg>
