<svg xmlns="http://www.w3.org/2000/svg" viewBox="0 0 456.52 188.36"><defs><style>.cls-1{fill:#3d4b20;}.cls-2{fill:#fff;}.cls-3{fill:#b7872c;}</style></defs><g id="Layer_2" data-name="Layer 2"><g id="Layer_1-2" data-name="Layer 1"><rect class="cls-1" width="456.52" height="188.36"/><path class="cls-2" d="M203.91,86.8A22.64,22.64,0,0,1,197,82a28.09,28.09,0,0,1-4.88-6.63,31.48,31.48,0,0,1-2.91-7.76,35.35,35.35,0,0,1,.89-19.54,28.15,28.15,0,0,1,5.43-9.5,26,26,0,0,1,8.76-6.47,28,28,0,0,1,11.86-2.4c.62,0,1.26,0,1.9.07a13.21,13.21,0,0,1,1.9.31V30l.55.07a16.47,16.47,0,0,1,8.41,3.65,12.9,12.9,0,0,1,4.46,7.6l.08.38-7.06,1.87.08-.7c.05-.42.1-.79.15-1.13a7,7,0,0,0,.08-1q0-4.74-2.87-7.21A11.3,11.3,0,0,0,216.16,31a16.07,16.07,0,0,0-9.5,2.76,22.12,22.12,0,0,0-6.39,6.94A32.07,32.07,0,0,0,196.62,50a43.19,43.19,0,0,0-1.16,9.62,42,42,0,0,0,1.08,9,35.84,35.84,0,0,0,3.38,9.15,22.44,22.44,0,0,0,5.85,7.09,13.41,13.41,0,0,0,8.61,2.83q6.12,0,9.73-3.49a12.32,12.32,0,0,0,3.61-9.3v-6c0-.62,0-1.28-.08-2a10.85,10.85,0,0,0-.35-2,6.33,6.33,0,0,0-.77-1.79,3.79,3.79,0,0,0-1.36-1.24l-1.47-.85H237l-1.09.85a3.3,3.3,0,0,0-1,1.36,11.28,11.28,0,0,0-.62,1.86,13.16,13.16,0,0,0-.31,2c0,.67-.08,1.29-.08,1.86V80.13l-.15.15a39.55,39.55,0,0,1-7,5.59,22.07,22.07,0,0,1-8.49,3.1q-.78.15-1.59.27a11.42,11.42,0,0,1-1.67.12,22.42,22.42,0,0,1-5.62-.7,39.62,39.62,0,0,1-5.39-1.86"/><path class="cls-2" d="M261.22,89.59a17.73,17.73,0,0,1-8.11-1.78,18,18,0,0,1-5.89-4.69,20.12,20.12,0,0,1-3.57-6.71,25.61,25.61,0,0,1-1.2-7.76,25.86,25.86,0,0,1,1.2-7.83,19.85,19.85,0,0,1,3.61-6.71,17.44,17.44,0,0,1,14-6.39,17.5,17.5,0,0,1,14,6.47,20.12,20.12,0,0,1,3.57,6.71,25.59,25.59,0,0,1,1.2,7.75,25.93,25.93,0,0,1-1.2,7.84,19.8,19.8,0,0,1-3.61,6.7,17.41,17.41,0,0,1-14,6.4m0-40.71a8.22,8.22,0,0,0-5.74,2A15.35,15.35,0,0,0,251.87,56a25.57,25.57,0,0,0-1.9,6.48,40.26,40.26,0,0,0-.54,6.16,40.13,40.13,0,0,0,.54,6.21,25.44,25.44,0,0,0,1.9,6.43,14.93,14.93,0,0,0,3.65,5.08,8.31,8.31,0,0,0,5.77,2.06,8.2,8.2,0,0,0,5.7-2.06,14.93,14.93,0,0,0,3.65-5.08,26.7,26.7,0,0,0,1.94-6.47,38.41,38.41,0,0,0,.58-6.17,38.3,38.3,0,0,0-.58-6.16,25.69,25.69,0,0,0-2-6.48,15.53,15.53,0,0,0-3.68-5.08,8.27,8.27,0,0,0-5.7-2"/><path class="cls-2" d="M285.72,89.05l1.32-.86a5.51,5.51,0,0,0,2.79-4.88V37.48c0-.21,0-.49,0-.85a8.85,8.85,0,0,0-.15-1.05,7.83,7.83,0,0,0-.31-1,1.16,1.16,0,0,0-.51-.62l-1-.62,1.16-.23a18.77,18.77,0,0,0,3.29-1,8.32,8.32,0,0,0,2.83-1.78,1.06,1.06,0,0,0,.2-.24.39.39,0,0,1,.19-.15l.78-.47V83.31A5.62,5.62,0,0,0,299,88.12h-.15v.93Z"/><path class="cls-2" d="M304.64,69a34.58,34.58,0,0,1,.23-3.91,19.08,19.08,0,0,1,.86-3.84,24.15,24.15,0,0,1,2-4.77A22.27,22.27,0,0,1,311,52a15.63,15.63,0,0,1,4.3-3.22,11.84,11.84,0,0,1,5.39-1.24,9.54,9.54,0,0,1,5.66,1.75,14.61,14.61,0,0,1,4,4.22V37.79c0-.52,0-1.17-.12-2a2,2,0,0,0-.89-1.66l-1.32-.86h1.55a9.69,9.69,0,0,0,3.65-.62A6.09,6.09,0,0,0,336,30.35l.85-1.24v54.2A5,5,0,0,0,337.6,86a6.65,6.65,0,0,0,2.09,2.1h-.15v.93h-9.15V85.56a10.25,10.25,0,0,1-3.53,2.83,9.48,9.48,0,0,1-4.31,1.12,17.06,17.06,0,0,1-7.94-1.74A16.49,16.49,0,0,1,309,83.15a19.7,19.7,0,0,1-3.29-6.59,26.76,26.76,0,0,1-1.09-7.6M321.7,48.88a6.32,6.32,0,0,0-5,2.29,17,17,0,0,0-3.14,5.54,32.51,32.51,0,0,0-1.63,6.79,46.57,46.57,0,0,0-.46,5.93,38.24,38.24,0,0,0,.5,5.89,25.05,25.05,0,0,0,1.74,6.13,14.06,14.06,0,0,0,3.38,4.84,7.61,7.61,0,0,0,5.39,2,8,8,0,0,0,4.8-1.55,6.92,6.92,0,0,0,2.8-4c.05-.16.11-.4.19-.74a3.59,3.59,0,0,0,.12-.81V57.64a4.13,4.13,0,0,0-.24-1c-.15-.49-.28-.86-.38-1.12a11.88,11.88,0,0,0-3-4.57,7,7,0,0,0-5-2"/><path class="cls-2" d="M346.05,75.71a25.42,25.42,0,0,1-.77-6.36,24,24,0,0,1,1.39-8.06,22.62,22.62,0,0,1,4-7.06,19.54,19.54,0,0,1,6.36-5,18.76,18.76,0,0,1,8.42-1.86,16.84,16.84,0,0,1,3.72.42,10.75,10.75,0,0,1,3.33,1.36,7.43,7.43,0,0,1,2.41,2.48,7.28,7.28,0,0,1,.93,3.8,11.15,11.15,0,0,1-1.48,5.58,22.66,22.66,0,0,1-3.48,4.73,26.21,26.21,0,0,1-4.08,3.61,33.93,33.93,0,0,1-4.42,2.67,39.18,39.18,0,0,1-4.77,2.06c-1.65.6-3.36,1.18-5.11,1.74a26.36,26.36,0,0,0,1.32,4.31A14.85,14.85,0,0,0,356,84a11.42,11.42,0,0,0,3.21,2.79,8.67,8.67,0,0,0,4.42,1.08,6.91,6.91,0,0,0,4.93-1.78,6.2,6.2,0,0,0,1.9-4.73c0-.26,0-.5,0-.74s-.07-.47-.12-.73l-.08-.7,5.2,1.39-.08.39a8.28,8.28,0,0,1-1.59,3.57,10.94,10.94,0,0,1-2.9,2.6,14.1,14.1,0,0,1-3.69,1.59,15.1,15.1,0,0,1-4,.54,16.05,16.05,0,0,1-5.9-1.09,18.11,18.11,0,0,1-5-2.94,19.62,19.62,0,0,1-3.87-4.31,16.58,16.58,0,0,1-2.33-5.23m8.07-17.53a24.76,24.76,0,0,0-1.67,5.59,33.11,33.11,0,0,0-.51,5.81c0,.88,0,1.75.12,2.6s.17,1.72.27,2.6a.32.32,0,0,0,.23-.08,2.51,2.51,0,0,0,.7-.15c.31-.11.64-.22,1-.35s.65-.26.93-.39l.58-.27A34.48,34.48,0,0,0,361,70.86a24.46,24.46,0,0,0,4.57-3.64,16.35,16.35,0,0,0,3.22-4.65,13.65,13.65,0,0,0,1.2-5.78,10.15,10.15,0,0,0-.39-2.72,7.65,7.65,0,0,0-1.16-2.48,6.58,6.58,0,0,0-1.9-1.78,4.77,4.77,0,0,0-2.6-.7,6.66,6.66,0,0,0-3.29.85,11.86,11.86,0,0,0-2.79,2.21,16.11,16.11,0,0,0-2.21,2.95,25.94,25.94,0,0,0-1.55,3.06"/><path class="cls-2" d="M381.26,89.2l1.31-.85a7,7,0,0,0,2-2.13,5.36,5.36,0,0,0,.78-2.83V54.7a12.63,12.63,0,0,0-.2-1.9,2.17,2.17,0,0,0-.81-1.59l-.93-.62,1.08-.24a27.66,27.66,0,0,0,3.26-1,8.13,8.13,0,0,0,2.87-1.83l.39-.38.77-.47V55a16.82,16.82,0,0,1,4.58-5.2,10.71,10.71,0,0,1,6.67-2.17,15.7,15.7,0,0,1,6.39,1.16A11,11,0,0,1,413.63,52a12.75,12.75,0,0,1,2.29,4.77,24.71,24.71,0,0,1,.7,6v21a5.14,5.14,0,0,0,.77,2.64,5,5,0,0,0,1.94,1.94l1.32.85h-15l1.79-.93a6.14,6.14,0,0,0,1.93-2.13,5.6,5.6,0,0,0,.7-2.75V62a30.75,30.75,0,0,0-.31-4.26,15,15,0,0,0-1.2-4.19,8.75,8.75,0,0,0-2.4-3.18,6.15,6.15,0,0,0-4-1.24,8.15,8.15,0,0,0-4,1,11.51,11.51,0,0,0-3.3,2.71,14.66,14.66,0,0,0-2.25,3.72,10.62,10.62,0,0,0-.85,4v22.8a5.71,5.71,0,0,0,.7,2.75,6.07,6.07,0,0,0,1.94,2.13l1.86.93Z"/><path class="cls-2" d="M333.44,115.73a2.8,2.8,0,0,1-2.1-.8,2.83,2.83,0,0,1-.81-2.11v-8.11a2.87,2.87,0,0,1,.8-2.12,2.92,2.92,0,0,1,5,2.12v1.59h-2.11v-1.73a.81.81,0,0,0-1.37-.58.78.78,0,0,0-.22.58V113a.81.81,0,0,0,1.37.58.82.82,0,0,0,.22-.58v-2.39h-.88v-2h3v4.23a2.72,2.72,0,0,1-2.91,2.91"/><path class="cls-2" d="M347,115.73a2.75,2.75,0,0,1-2.91-2.91v-8.11a2.91,2.91,0,1,1,5.82,0v8.11a2.73,2.73,0,0,1-2.91,2.91m-.58-2.19a.86.86,0,0,0,1.15,0,.78.78,0,0,0,.22-.58v-8.39a.78.78,0,0,0-.22-.58.8.8,0,0,0-1.37.58V113a.82.82,0,0,0,.22.58"/><path class="cls-2" d="M360.52,115.73a2.75,2.75,0,0,1-2.91-2.91V102.06h2.12V113a.76.76,0,0,0,.79.8.74.74,0,0,0,.57-.22.78.78,0,0,0,.23-.58v-10.9h2.11v10.76a2.72,2.72,0,0,1-2.91,2.91"/><path class="cls-2" d="M371.46,115.47V102.06h2.91a2.76,2.76,0,0,1,2.91,2.91v2.65A2.66,2.66,0,0,1,376,110.1l1.64,5.37h-2.21l-1.51-4.94h-.34v4.94Zm2.12-6.92h.79a.75.75,0,0,0,.57-.22.74.74,0,0,0,.22-.57v-2.93a.77.77,0,0,0-.22-.57.75.75,0,0,0-.57-.22h-.79Z"/><polygon class="cls-2" points="385.31 115.47 385.31 102.06 387.05 102.06 388.99 107.57 390.93 102.06 392.68 102.06 392.68 115.47 390.56 115.47 390.56 108.96 389.27 112.61 388.71 112.61 387.42 108.96 387.42 115.47 385.31 115.47"/><polygon class="cls-2" points="400.79 115.47 400.79 102.06 406.26 102.06 406.26 104.04 402.91 104.04 402.91 107.78 405.56 107.78 405.56 109.75 402.91 109.75 402.91 113.49 406.26 113.49 406.26 115.47 400.79 115.47"/><polygon class="cls-2" points="415.17 115.47 415.17 104.04 412.79 104.04 412.79 102.06 419.67 102.06 419.67 104.04 417.29 104.04 417.29 115.47 415.17 115.47"/><path class="cls-2" d="M194.45,103h38.23l.08.39a26.89,26.89,0,0,1,.54,4.61c0,1.58.16,3.14.31,4.69l.31,3.18-1.24-3a15.37,15.37,0,0,0-1.82-3.25,16.22,16.22,0,0,0-2.52-2.76,11.49,11.49,0,0,0-3.1-1.9,9.86,9.86,0,0,0-3.73-.69H205.7v27.84h9.77a18.84,18.84,0,0,0,2.4-.16,7.75,7.75,0,0,0,2.13-.58,4.61,4.61,0,0,0,1.63-1.16,3.62,3.62,0,0,0,.82-2l.93.08v8.91l-.93.08a4.1,4.1,0,0,0-2.45-3.22,12.55,12.55,0,0,0-4.53-.73H205.7v23.26a5.29,5.29,0,0,0,.77,2.87,9.79,9.79,0,0,0,2.09,2.32l1,.78H194.45l1.86-.93a7.14,7.14,0,0,0,2-2.21,5.8,5.8,0,0,0,.66-2.83V108.89a5.83,5.83,0,0,0-.7-2.79,5.94,5.94,0,0,0-1.94-2.17Z"/><path class="cls-2" d="M249,162.86a17.5,17.5,0,0,1-14-6.47,20.12,20.12,0,0,1-3.57-6.71,25.59,25.59,0,0,1-1.2-7.75,25.93,25.93,0,0,1,1.2-7.84,19.54,19.54,0,0,1,3.61-6.7,17.41,17.41,0,0,1,14-6.4,17.54,17.54,0,0,1,14,6.47,20.28,20.28,0,0,1,3.56,6.71,25.31,25.31,0,0,1,1.21,7.76,25.61,25.61,0,0,1-1.21,7.83,19.83,19.83,0,0,1-3.6,6.71,17.45,17.45,0,0,1-14,6.39m0-40.71a8.15,8.15,0,0,0-5.73,2.06,15.11,15.11,0,0,0-3.61,5.08,25,25,0,0,0-1.9,6.47,35.69,35.69,0,0,0,0,12.37,25.23,25.23,0,0,0,1.9,6.44,15,15,0,0,0,3.64,5.07,8.33,8.33,0,0,0,5.78,2.06,8.22,8.22,0,0,0,5.7-2.06,15.13,15.13,0,0,0,3.65-5.07,26.45,26.45,0,0,0,1.93-6.48,32.5,32.5,0,0,0,0-12.33,25.08,25.08,0,0,0-2-6.47,15.31,15.31,0,0,0-3.69-5.08,8.2,8.2,0,0,0-5.7-2.06"/><path class="cls-2" d="M273.55,162.47l1.32-.85a7,7,0,0,0,2-2.13,5.33,5.33,0,0,0,.78-2.83V128a12.63,12.63,0,0,0-.2-1.9,2.2,2.2,0,0,0-.81-1.59l-.93-.62,1.08-.24a25.91,25.91,0,0,0,3.26-1,8.25,8.25,0,0,0,2.87-1.82l.39-.39.77-.47v7.91a11.78,11.78,0,0,1,3.45-4.65,9.24,9.24,0,0,1,6-1.86,10.83,10.83,0,0,1,6.75,2.25,9.37,9.37,0,0,1,3.64,5.81l.08.39L298.75,131l.15-.7a6.18,6.18,0,0,0,.24-1.7,5.89,5.89,0,0,0-1.75-4.42,6.19,6.19,0,0,0-4.53-1.71,6.44,6.44,0,0,0-4.35,1.47,10.34,10.34,0,0,0-2.67,3.65,18.2,18.2,0,0,0-1.36,4.69,30.85,30.85,0,0,0-.39,4.69v19.7a5.71,5.71,0,0,0,.7,2.75,6.08,6.08,0,0,0,1.94,2.13l1.86.93Z"/><path class="cls-2" d="M306.12,162.32l1.47-.85a5.72,5.72,0,0,0,2.79-4.89V110.75c0-.2,0-.49,0-.85a6,6,0,0,0-.15-1.05,6.45,6.45,0,0,0-.31-1,1.16,1.16,0,0,0-.51-.62l-1-.62,1.16-.23c.41-.1.89-.23,1.43-.39a16.36,16.36,0,0,0,1.63-.54,11.7,11.7,0,0,0,1.51-.7,7.41,7.41,0,0,0,1.17-.77.43.43,0,0,1,.15-.2,1,1,0,0,0,.23-.19l.39-.39.78-.46v39.85q3.56-4.41,7-8.88t7.13-8.72a13.51,13.51,0,0,1,4.11-3.26,11.26,11.26,0,0,1,5.2-1.24,6.42,6.42,0,0,1,1.78.27l1.71.51.46.15-1.94,5-.46-.54a7.16,7.16,0,0,0-2.25-1.74,6.16,6.16,0,0,0-2.79-.66,6.39,6.39,0,0,0-3.11.81,7,7,0,0,0-2.32,2l-5,6.51,13.41,23.65a8.64,8.64,0,0,0,1,1.32,18.48,18.48,0,0,0,1.44,1.51,15.32,15.32,0,0,0,1.55,1.32,4.64,4.64,0,0,0,1.24.74l4.26.93H331.78l.86-.78a4.68,4.68,0,0,0,.81-1,2.7,2.7,0,0,0,.27-1.28,5.12,5.12,0,0,0-.7-2.56l-11-18.61-5.19,6.59v11.94a5.51,5.51,0,0,0,.7,2.79,5.57,5.57,0,0,0,1.93,2h-.07v.93Z"/><path class="cls-3" d="M93.21,88.89h34.28V82.73H93.21a3.08,3.08,0,1,0,0,6.16"/><path class="cls-3" d="M93.21,106.26h34.28V100.1H93.21a3.08,3.08,0,0,0,0,6.16"/><path class="cls-3" d="M105.49,29.81A65.32,65.32,0,0,0,41,84.79c-.23,1.39-.39,2.8-.52,4.22h6.18v0h24s0,0,0,0H77A22.55,22.55,0,0,1,99,71.13h28.59V65H99A28.71,28.71,0,0,0,72.45,82.82H47.63a59.15,59.15,0,1,1-.21,23.57H72.24A28.72,28.72,0,0,0,99,124.76h28.59V118.6H99a22.55,22.55,0,0,1-22.12-18.36H40.39c.1,1.35.24,2.69.43,4a65.31,65.31,0,1,0,64.67-74.45"/></g></g></svg>