<svg width="20" height="21" viewBox="0 0 20 21" fill="none" xmlns="http://www.w3.org/2000/svg">
<path d="M3.57143 5.17236H8.92857C9.21273 5.17236 9.48525 5.28525 9.68619 5.48618C9.88712 5.68711 10 5.95963 10 6.24379C10 6.52795 9.88712 6.80047 9.68619 7.00141C9.48525 7.20234 9.21273 7.31522 8.92857 7.31522H3.57143C3.28727 7.31522 3.01475 7.20234 2.81381 7.00141C2.61288 6.80047 2.5 6.52795 2.5 6.24379C2.5 5.95963 2.61288 5.68711 2.81381 5.48618C3.01475 5.28525 3.28727 5.17236 3.57143 5.17236ZM11.0714 13.7438H16.4286C16.7127 13.7438 16.9853 13.8567 17.1862 14.0576C17.3871 14.2585 17.5 14.5311 17.5 14.8152C17.5 15.0994 17.3871 15.3719 17.1862 15.5728C16.9853 15.7738 16.7127 15.8866 16.4286 15.8866H11.0714C10.7873 15.8866 10.5147 15.7738 10.3138 15.5728C10.1129 15.3719 10 15.0994 10 14.8152C10 14.5311 10.1129 14.2585 10.3138 14.0576C10.5147 13.8567 10.7873 13.7438 11.0714 13.7438ZM3.57143 9.45808H16.4286C16.7127 9.45808 16.9853 9.57096 17.1862 9.77189C17.3871 9.97282 17.5 10.2453 17.5 10.5295C17.5 10.8137 17.3871 11.0862 17.1862 11.2871C16.9853 11.4881 16.7127 11.6009 16.4286 11.6009H3.57143C3.28727 11.6009 3.01475 11.4881 2.81381 11.2871C2.61288 11.0862 2.5 10.8137 2.5 10.5295C2.5 10.2453 2.61288 9.97282 2.81381 9.77189C3.01475 9.57096 3.28727 9.45808 3.57143 9.45808Z" fill="white"/>
</svg>
