<svg width="16" height="16" viewBox="0 0 16 16" fill="none" xmlns="http://www.w3.org/2000/svg">
<path d="M8.00065 2C8.00065 2 3.87665 5.56 1.57198 7.488C1.43665 7.61067 1.33398 7.78933 1.33398 8C1.33398 8.36867 1.63198 8.66667 2.00065 8.66667H3.33398V13.3333C3.33398 13.702 3.63198 14 4.00065 14H6.00065C6.36932 14 6.66732 13.7013 6.66732 13.3333V10.6667H9.33398V13.3333C9.33398 13.7013 9.63198 14 10.0007 14H12.0007C12.3693 14 12.6673 13.702 12.6673 13.3333V8.66667H14.0007C14.3693 8.66667 14.6673 8.36867 14.6673 8C14.6673 7.78933 14.5647 7.61067 14.412 7.488C12.1233 5.56 8.00065 2 8.00065 2Z" fill="#C4C4C4"/>
</svg>
