<svg width="17" height="16" viewBox="0 0 17 16" fill="none" xmlns="http://www.w3.org/2000/svg">
<path d="M8.66742 4.53227C6.7857 4.53227 5.22656 6.06453 5.22656 7.97313C5.22656 9.88173 6.75882 11.414 8.66742 11.414C10.576 11.414 12.1083 9.85485 12.1083 7.97313C12.1083 6.09141 10.5491 4.53227 8.66742 4.53227ZM8.66742 10.1774C7.45775 10.1774 6.46312 9.18281 6.46312 7.97313C6.46312 6.76345 7.45775 5.76883 8.66742 5.76883C9.8771 5.76883 10.8717 6.76345 10.8717 7.97313C10.8717 9.18281 9.8771 10.1774 8.66742 10.1774Z" fill="white"/>
<path d="M12.2425 5.23117C12.673 5.23117 13.022 4.88215 13.022 4.4516C13.022 4.02106 12.673 3.67203 12.2425 3.67203C11.8119 3.67203 11.4629 4.02106 11.4629 4.4516C11.4629 4.88215 11.8119 5.23117 12.2425 5.23117Z" fill="white"/>
<path d="M14.2581 2.43548C13.5591 1.70968 12.5645 1.33333 11.4355 1.33333H5.89785C3.55914 1.33333 2 2.89247 2 5.23118V10.7419C2 11.8979 2.37634 12.8925 3.12903 13.6183C3.85484 14.3172 4.82258 14.6667 5.92473 14.6667H11.4086C12.5645 14.6667 13.5323 14.2903 14.2312 13.6183C14.957 12.9194 15.3333 11.9247 15.3333 10.7688V5.23118C15.3333 4.10215 14.957 3.13441 14.2581 2.43548ZM14.1505 10.7688C14.1505 11.6022 13.8548 12.2742 13.371 12.7312C12.8871 13.1882 12.2151 13.4301 11.4086 13.4301H5.92473C5.11828 13.4301 4.44624 13.1882 3.96237 12.7312C3.47849 12.2473 3.23656 11.5753 3.23656 10.7419V5.23118C3.23656 4.42473 3.47849 3.75269 3.96237 3.26882C4.41935 2.81183 5.11828 2.56989 5.92473 2.56989H11.4624C12.2688 2.56989 12.9409 2.81183 13.4247 3.2957C13.8817 3.77957 14.1505 4.45161 14.1505 5.23118V10.7688Z" fill="white"/>
</svg>
