<svg width="20" height="21" viewBox="0 0 20 21" fill="none" xmlns="http://www.w3.org/2000/svg">
<path d="M9.94712 6.39062C7.47798 6.39062 5.43213 8.40121 5.43213 10.9056C5.43213 13.41 7.44271 15.4206 9.94712 15.4206C12.4515 15.4206 14.4621 13.3748 14.4621 10.9056C14.4621 8.43648 12.4163 6.39062 9.94712 6.39062ZM9.94712 13.798C8.35982 13.798 7.0547 12.4929 7.0547 10.9056C7.0547 9.31831 8.35982 8.0132 9.94712 8.0132C11.5344 8.0132 12.8395 9.31831 12.8395 10.9056C12.8395 12.4929 11.5344 13.798 9.94712 13.798Z" fill="white"/>
<path d="M14.6385 7.3077C15.2035 7.3077 15.6615 6.84972 15.6615 6.28477C15.6615 5.71982 15.2035 5.26184 14.6385 5.26184C14.0736 5.26184 13.6156 5.71982 13.6156 6.28477C13.6156 6.84972 14.0736 7.3077 14.6385 7.3077Z" fill="white"/>
<path d="M17.284 3.63932C16.3669 2.68694 15.0618 2.19312 13.5803 2.19312H6.31398C3.2452 2.19312 1.19934 4.23897 1.19934 7.30775V14.5388C1.19934 16.0555 1.69317 17.3607 2.68082 18.313C3.6332 19.2302 4.90304 19.6887 6.34925 19.6887H13.545C15.0618 19.6887 16.3316 19.1949 17.2487 18.313C18.2011 17.3959 18.6949 16.0908 18.6949 14.5741V7.30775C18.6949 5.82627 18.2011 4.55643 17.284 3.63932ZM17.1429 14.5741C17.1429 15.6675 16.7549 16.5494 16.12 17.149C15.4851 17.7487 14.6032 18.0661 13.545 18.0661H6.34925C5.29105 18.0661 4.40922 17.7487 3.7743 17.149C3.13938 16.5141 2.82192 15.6323 2.82192 14.5388V7.30775C2.82192 6.24955 3.13938 5.36772 3.7743 4.7328C4.37394 4.13315 5.29105 3.81569 6.34925 3.81569H13.6156C14.6738 3.81569 15.5556 4.13315 16.1905 4.76807C16.7902 5.40299 17.1429 6.28483 17.1429 7.30775V14.5741Z" fill="white"/>
</svg>
