<svg width="21" height="20" viewBox="0 0 21 20" fill="none" xmlns="http://www.w3.org/2000/svg">
<path d="M11.9941 6.09375C11.9938 5.48937 11.5048 5.00031 10.9004 5C10.296 5.00031 9.80695 5.48937 9.80664 6.09375C9.80695 6.58875 10.1373 7.00125 10.5879 7.13656V7.96875C10.5879 8.14156 10.7276 8.28125 10.9004 8.28125C11.0732 8.28125 11.2129 8.14156 11.2129 7.96875V7.13656C11.6635 7.00125 11.9938 6.58875 11.9941 6.09375ZM10.9004 6.5625C10.6416 6.56187 10.4323 6.3525 10.4316 6.09375C10.4323 5.835 10.6416 5.62563 10.9004 5.625C11.1591 5.62563 11.3685 5.835 11.3691 6.09375C11.3685 6.3525 11.1591 6.56187 10.9004 6.5625Z" fill="#C4C4C4"/>
<path d="M18.2434 15.2881C18.2299 11.2434 14.9478 7.96906 10.9003 7.96875C6.85275 7.96906 3.57057 11.2434 3.55713 15.2881H18.2434ZM6.20682 11.1278C6.62494 10.6256 7.29838 10.0375 8.30119 9.70344C8.46494 9.64875 8.64213 9.73719 8.6965 9.90094C8.75119 10.0647 8.66275 10.2419 8.499 10.2963C7.654 10.5781 7.0865 11.0616 6.7215 11.4872C6.35713 11.9122 6.20025 12.2787 6.19025 12.3031C6.12619 12.4634 5.94432 12.5419 5.784 12.4778C5.62369 12.4138 5.54557 12.2319 5.60963 12.0716C5.619 12.05 5.78838 11.6313 6.20682 11.1278Z" fill="#C4C4C4"/>
<path d="M2.62158 15.9131L4.39158 17.6831C4.61658 17.9065 4.91627 18.0853 5.23627 18.219C5.55721 18.3509 5.89564 18.4362 6.21283 18.4375H15.5878C15.905 18.4362 16.2435 18.3509 16.5644 18.219C16.8844 18.0853 17.1841 17.9065 17.4091 17.6831L19.1791 15.9131H2.62158Z" fill="#C4C4C4"/>
</svg>
