<svg width="14" height="15" viewBox="0 0 14 15" fill="none" xmlns="http://www.w3.org/2000/svg">
<path d="M11.2378 1.68945V12.966C11.2378 13.1563 11.0836 13.3105 10.8933 13.3105H10.0481C9.85777 13.3105 9.70356 13.1563 9.70356 12.966V9.03043H9.0298C8.67734 9.03043 8.3916 8.74469 8.3916 8.39223V4.48152C8.3916 2.93961 9.64176 1.68945 11.1837 1.68945H11.2378Z" fill="#C4C4C4"/>
<path d="M6.31975 1.6899C6.10756 1.70002 5.94432 1.88268 5.94432 2.09514V4.52408C5.94432 4.74557 5.76467 4.92522 5.54318 4.92522C5.3217 4.92522 5.14205 4.74557 5.14205 4.52408V2.09514C5.14205 1.88268 4.97881 1.69975 4.76635 1.6899C4.53967 1.67924 4.35264 1.85971 4.35264 2.08393V4.52408C4.35264 4.74557 4.17299 4.92522 3.9515 4.92522C3.73002 4.92522 3.55037 4.74557 3.55037 4.52408V2.09514C3.55037 1.88268 3.38713 1.69975 3.17494 1.6899C2.94826 1.67924 2.76123 1.85971 2.76123 2.08393V5.21397V6.07229C2.76123 6.76764 3.24303 7.36209 3.92389 7.60326L3.581 12.194C3.53588 12.798 4.071 13.3102 4.74721 13.3102C5.42342 13.3102 5.95854 12.798 5.91342 12.194L5.57053 7.60326C6.25139 7.36182 6.73318 6.76764 6.73318 6.07229V5.31951V5.21397V2.08393C6.73346 1.85971 6.54643 1.67924 6.31975 1.6899Z" fill="#C4C4C4"/>
</svg>
