<svg width="17" height="16" viewBox="0 0 17 16" fill="none" xmlns="http://www.w3.org/2000/svg">
<path d="M1.83245 5.88004H4.6453V14.0659H1.83245V5.88004ZM3.2577 1.9341C2.29498 1.9341 1.66602 2.54531 1.66602 3.34754C1.66602 4.13327 2.27658 4.76225 3.22089 4.76225H3.23883C4.21995 4.76225 4.83095 4.13324 4.83095 3.34754C4.81255 2.54531 4.21998 1.9341 3.2577 1.9341ZM11.5516 5.68775C10.0585 5.68775 9.38961 6.48194 9.01645 7.0389V5.88004H6.20277C6.24002 6.64797 6.20277 14.0659 6.20277 14.0659H9.01645V9.49434C9.01645 9.24949 9.03486 9.00555 9.10889 8.83015C9.31261 8.34137 9.77555 7.83521 10.5521 7.83521C11.5709 7.83521 11.9778 8.58622 11.9778 9.68615V14.0659H14.791V9.37195C14.791 6.85764 13.4035 5.68775 11.5516 5.68775Z" fill="white"/>
</svg>
