<svg width="20" height="21" viewBox="0 0 20 21" fill="none" xmlns="http://www.w3.org/2000/svg">
<path d="M2.00492 7.75977H5.52098V18.3407H2.00492V7.75977ZM3.78648 2.6593C2.58309 2.6593 1.79688 3.44934 1.79688 4.48629C1.79688 5.50192 2.56008 6.31493 3.74047 6.31493H3.76289C4.9893 6.31493 5.75305 5.50188 5.75305 4.48629C5.73004 3.44934 4.98934 2.6593 3.78648 2.6593ZM14.1539 7.51122C12.2875 7.51122 11.4514 8.53778 10.9849 9.2577V7.75977H7.46781C7.51437 8.75239 7.46781 18.3407 7.46781 18.3407H10.9849V12.4316C10.9849 12.1151 11.0079 11.7998 11.1005 11.5731C11.3551 10.9413 11.9338 10.287 12.9045 10.287C14.178 10.287 14.6866 11.2577 14.6866 12.6795V18.3407H18.2031V12.2734C18.2031 9.0234 16.4687 7.51122 14.1539 7.51122Z" fill="white"/>
</svg>
