<svg width="416" height="361" viewBox="0 0 416 361" fill="none" xmlns="http://www.w3.org/2000/svg">
<path d="M332.639 300.085C326.063 306.924 319.842 311.334 314.926 314.818C257.143 355.776 188.77 343.837 174.238 340.922C152.78 336.616 111.302 328.294 81.3147 293.456C35.9457 240.749 43.0103 157.711 78.2015 102.897C84.6385 92.87 118.641 37.2205 187.75 28.2961C229.575 22.8952 278.328 33.7882 313.634 63.0094C387.745 124.347 382.469 248.261 332.639 300.085Z" fill="#6B492E"/>
<path d="M210.398 332.49C210.398 332.49 273.496 173.09 367.232 155.677C368.895 155.368 370.411 156.698 370.329 158.388C369.382 178.05 357.374 282.108 210.398 332.49Z" fill="#C29671"/>
<path opacity="0.62" d="M350.391 181.532C345.605 188.362 340.589 195.013 335.505 201.614C334.235 203.265 332.938 204.895 331.656 206.536C330.363 208.17 329.098 209.825 327.783 211.44L323.853 216.298C322.536 217.912 321.248 219.549 319.9 221.137C317.222 224.328 314.569 227.54 311.87 230.713L303.687 240.16C298.136 246.373 292.588 252.591 286.867 258.65L282.609 263.224C281.206 264.766 279.719 266.226 278.279 267.731L269.588 276.719L260.672 285.486C259.183 286.944 257.708 288.418 256.19 289.845L251.591 294.082C248.519 296.9 245.479 299.754 242.355 302.514L232.858 310.652L230.473 312.673C229.671 313.339 228.892 314.031 228.072 314.675L223.166 318.553C221.535 319.851 219.881 321.12 218.24 322.404C216.598 323.686 214.953 324.965 213.299 326.231C213.172 326.328 212.991 326.304 212.894 326.177C212.801 326.055 212.82 325.882 212.935 325.783L212.943 325.776C214.523 324.419 216.113 323.076 217.706 321.736C219.299 320.398 220.88 319.045 222.484 317.721L227.282 313.732C228.864 312.381 230.397 310.973 231.966 309.608L241.361 301.397L250.563 292.97L255.167 288.76C255.937 288.06 256.669 287.322 257.423 286.606L259.681 284.452L268.708 275.834C274.579 269.938 280.549 264.135 286.219 258.039C289.082 255.019 291.98 252.03 294.746 248.92C297.535 245.831 300.35 242.765 303.119 239.658L311.33 230.251C314.039 227.091 316.701 223.892 319.389 220.714C320.743 219.133 322.036 217.502 323.358 215.894L327.304 211.056C328.624 209.447 329.894 207.797 331.191 206.17C332.479 204.535 333.782 202.912 335.057 201.267C340.137 194.675 345.146 188.017 349.915 181.205L349.918 181.2C350.01 181.07 350.19 181.038 350.32 181.129C350.451 181.221 350.483 181.401 350.391 181.532L350.391 181.532Z" fill="white"/>
<g opacity="0.79">
<path d="M195.108 241.072C195.108 241.072 225.782 100.314 318.381 27.3476C319.588 26.3962 321.375 26.9979 321.744 28.4902C327.569 52.06 357.896 202.395 195.108 241.072Z" fill="#C29671"/>
<path opacity="0.62" d="M308.549 67.9541C307.486 72.0375 306.249 76.0603 304.943 80.065C303.635 84.0675 302.261 88.0491 300.801 91.9996C297.872 99.8966 294.683 107.698 291.245 115.39C290.393 117.316 289.494 119.221 288.62 121.138C287.741 123.053 286.791 124.934 285.88 126.833C284.976 128.736 283.998 130.602 283.049 132.483L281.614 135.298L280.128 138.087C276.17 145.526 271.999 152.858 267.506 159.991C262.998 167.112 258.313 174.128 253.259 180.878C252.634 181.726 252.02 182.583 251.384 183.423L249.446 185.921L247.507 188.417C246.857 189.247 246.226 190.092 245.545 190.896L241.518 195.772L240.507 196.987L239.46 198.171L237.365 200.54C226.252 213.22 213.812 224.731 200.362 234.865C200.251 234.948 200.093 234.926 200.01 234.815C199.928 234.707 199.947 234.554 200.051 234.469L200.057 234.465L204.94 230.482L207.385 228.497L209.752 226.418L214.479 222.258L219.05 217.927C219.806 217.199 220.585 216.496 221.331 215.758L223.544 213.519C225.012 212.02 226.511 210.551 227.954 209.027C230.79 205.933 233.692 202.901 236.392 199.686L238.45 197.306L239.479 196.116L240.472 194.895L244.453 190.021C245.128 189.218 245.753 188.374 246.397 187.546L248.318 185.053L250.238 182.561C250.868 181.722 251.476 180.866 252.096 180.02C257.102 173.284 261.739 166.28 266.201 159.174C270.686 152.08 274.878 144.801 278.846 137.403L280.337 134.63L281.778 131.831C282.731 129.961 283.712 128.105 284.62 126.212C286.484 122.45 288.282 118.657 290.053 114.849C293.568 107.223 296.834 99.4801 299.849 91.6403C301.379 87.7283 302.823 83.7836 304.203 79.8158C304.895 77.8328 305.561 75.8408 306.205 73.8421C306.859 71.8471 307.485 69.839 308.062 67.8262L308.064 67.8213C308.102 67.6878 308.241 67.6106 308.375 67.649C308.507 67.6869 308.583 67.8226 308.549 67.9541Z" fill="white"/>
</g>
<g opacity="0.76">
<path d="M146.986 233.517C146.986 233.517 135.024 108.652 62.5138 35.9929C61.5684 35.0456 59.9613 35.3809 59.4881 36.633C52.0147 56.408 10.2479 183.244 146.986 233.517Z" fill="#C29671"/>
<path opacity="0.62" d="M67.2805 72.0514C68.5182 79.251 70.1194 86.4008 71.9501 93.4782C73.7519 100.565 75.78 107.594 78.0353 114.547C79.1761 118.02 80.3406 121.484 81.5627 124.928C82.1524 126.657 82.8091 128.363 83.4397 130.078L84.3963 132.646L85.3991 135.196C88.0651 141.999 90.9383 148.723 94.0821 155.317C97.2018 161.921 100.484 168.455 104.112 174.795C104.561 175.591 104.997 176.393 105.454 177.184L106.856 179.537L108.258 181.89C108.728 182.673 109.181 183.466 109.681 184.23L112.616 188.855L113.347 190.014L114.112 191.149L115.643 193.42C117.641 196.48 119.834 199.402 121.963 202.372C123.051 203.838 124.193 205.264 125.306 206.712L126.986 208.877C127.553 209.593 128.153 210.282 128.731 210.99L132.227 215.211L135.878 219.301L137.706 221.345L139.611 223.315L143.414 227.27L143.418 227.275C143.515 227.375 143.512 227.535 143.411 227.631C143.314 227.725 143.16 227.723 143.063 227.631C132.462 217.497 122.884 206.263 114.575 194.152L113.007 191.889L112.223 190.757L111.473 189.602L108.493 184.97C107.987 184.204 107.529 183.408 107.052 182.624L105.633 180.264L104.214 177.904C103.751 177.111 103.309 176.307 102.855 175.509C99.1808 169.15 95.8537 162.598 92.6901 155.973C89.5426 149.34 86.6973 142.567 84.0456 135.723L83.0498 133.157L82.1002 130.574C81.4744 128.849 80.8225 127.134 80.2376 125.395C79.6468 123.657 79.0208 121.933 78.4589 120.186C77.9033 118.437 77.3242 116.696 76.7878 114.942C72.4772 100.918 68.8957 86.6516 66.7822 72.1207C66.7623 71.9835 66.8573 71.8558 66.9949 71.8358C67.1301 71.8162 67.2557 71.9077 67.2788 72.0415L67.2805 72.0514Z" fill="white"/>
</g>
<path d="M82.6862 43.4188C81.6478 92.4184 78.2804 261.436 79.8879 321.33C80.0583 327.676 84.4062 332.768 89.8302 332.976C116.656 334.003 214.999 336.606 258.877 334.453C268.016 334.004 275.284 325.344 275.474 314.645C276.386 263.214 278.397 118.558 273.616 52.2907C273.043 44.351 267.716 38.0282 260.939 37.2349C231.724 33.8159 132.958 25.4584 95.05 28.3363C88.2132 28.8554 82.856 35.4065 82.6862 43.4188Z" fill="#3E4A57"/>
<path d="M94.6558 58.4522C93.2119 98.0022 88.6573 229.575 90.1028 278.228C90.3141 285.339 95.105 291.089 101.177 291.505C126.178 293.217 211.473 296.99 248.143 293.555C254.746 292.937 259.927 286.69 260.284 278.952C262.142 238.603 267.477 116.09 266.092 67.982C265.871 60.3076 260.789 54.0399 254.251 53.3533C227.205 50.5124 136.568 43.753 105.408 45.7418C99.5584 46.1152 94.9058 51.6053 94.6558 58.4522Z" fill="#C4C4C4"/>
<path d="M161.718 38.0558C161.718 39.5593 162.719 40.7994 164.002 40.8778C170.339 41.266 188.188 42.3643 196.165 42.9057C197.738 43.0125 198.972 41.3586 198.674 39.5489L198.623 39.2401C198.419 38.0052 197.544 37.0758 196.473 36.961C191.081 36.3829 174.811 34.7802 164.031 35.2304C162.736 35.2847 161.718 36.54 161.718 38.0558Z" fill="#151515"/>
<path d="M174.185 141.403C194.85 141.403 211.603 124.651 211.603 103.985C211.603 83.3201 194.85 66.5676 174.185 66.5676C153.52 66.5676 136.767 83.3201 136.767 103.985C136.767 124.651 153.52 141.403 174.185 141.403Z" fill="url(#paint0_linear_239_2528)"/>
<path d="M185.641 89.8464C185.641 96.1821 180.505 103.022 174.169 103.022C167.833 103.022 162.697 96.1821 162.697 89.8464C162.697 83.5106 167.833 79.0157 174.169 79.0157C180.505 79.0157 185.641 83.5106 185.641 89.8464Z" fill="white"/>
<path d="M159.932 127.415H187.937C190.885 127.415 193.495 125.51 194.393 122.702L195.9 117.992C197.004 114.544 195.21 110.81 191.809 109.566C180.412 105.399 168.628 105.934 156.555 109.951C153.173 111.076 151.297 114.694 152.23 118.134L153.39 122.411C154.191 125.365 156.872 127.415 159.932 127.415Z" fill="white"/>
<g opacity="0.71">
<path opacity="0.65" d="M245.952 201.159H109.391C108.974 201.159 108.636 200.821 108.636 200.404V180.673C108.636 180.256 108.974 179.918 109.391 179.918H245.952C246.369 179.918 246.707 180.256 246.707 180.673V200.404C246.707 200.821 246.369 201.159 245.952 201.159Z" fill="white"/>
<path opacity="0.65" d="M245.207 235.817H108.646C108.229 235.817 107.891 235.479 107.891 235.062V215.33C107.891 214.913 108.229 214.575 108.646 214.575H245.207C245.624 214.575 245.962 214.913 245.962 215.33V235.062C245.962 235.479 245.624 235.817 245.207 235.817Z" fill="white"/>
<path opacity="0.65" d="M218.544 277.153H131.213C130.698 277.153 130.281 276.736 130.281 276.221V251.004C130.281 250.489 130.698 250.072 131.213 250.072H218.544C219.058 250.072 219.476 250.489 219.476 251.004V276.221C219.476 276.736 219.058 277.153 218.544 277.153Z" fill="white"/>
</g>
<path opacity="0.75" d="M195.648 196.531H116.094C115.353 196.531 114.752 195.93 114.752 195.188V186.071C114.752 185.33 115.353 184.729 116.094 184.729H195.648C196.389 184.729 196.99 185.33 196.99 186.071V195.188C196.99 195.93 196.389 196.531 195.648 196.531Z" fill="white"/>
<g opacity="0.75">
<path d="M119.469 229.084C121.941 228.06 123.115 225.226 122.091 222.754C121.067 220.282 118.233 219.108 115.76 220.132C113.288 221.156 112.114 223.99 113.138 226.462C114.162 228.934 116.997 230.108 119.469 229.084Z" fill="white"/>
<path d="M130.901 229.699C133.577 229.699 135.746 227.529 135.746 224.854C135.746 222.178 133.577 220.009 130.901 220.009C128.226 220.009 126.057 222.178 126.057 224.854C126.057 227.529 128.226 229.699 130.901 229.699Z" fill="white"/>
<path d="M148.405 226.607C149.02 224.002 147.407 221.393 144.803 220.778C142.199 220.163 139.59 221.776 138.975 224.38C138.36 226.984 139.972 229.593 142.576 230.208C145.181 230.823 147.79 229.211 148.405 226.607Z" fill="white"/>
<path d="M156.988 230.568C159.664 230.568 161.833 228.399 161.833 225.723C161.833 223.048 159.664 220.878 156.988 220.878C154.313 220.878 152.144 223.048 152.144 225.723C152.144 228.399 154.313 230.568 156.988 230.568Z" fill="white"/>
<path d="M170.28 230.443C172.956 230.443 175.125 228.274 175.125 225.599C175.125 222.923 172.956 220.754 170.28 220.754C167.604 220.754 165.435 222.923 165.435 225.599C165.435 228.274 167.604 230.443 170.28 230.443Z" fill="white"/>
<path d="M183.573 230.692C186.249 230.692 188.418 228.523 188.418 225.847C188.418 223.172 186.249 221.002 183.573 221.002C180.897 221.002 178.728 223.172 178.728 225.847C178.728 228.523 180.897 230.692 183.573 230.692Z" fill="white"/>
</g>
<path d="M238.898 241.662L253.74 245.373L250.03 273.203C250.03 273.203 255.596 278.769 257.451 286.19C259.307 293.611 261.017 324.772 261.017 324.772L264.539 326.901L264.967 328.678L254.721 342.455L256.42 331.49C256.69 329.749 256.223 326.219 256.37 326.145C250.804 311.303 238.898 269.492 238.898 269.492V241.662Z" fill="url(#paint1_linear_239_2528)"/>
<path d="M234.561 328.869C234.722 328.866 234.88 328.879 235.041 328.869C234.324 319.922 231.046 280.541 227.766 265.781C224.056 249.084 233.332 215.688 233.332 215.688L250.03 232.386L240.753 263.926C247.111 273.462 239.716 329.305 239.876 329.281L239.865 329.405L242.286 332.734L241.992 334.538L227.205 343.264L233.023 333.816C233.947 332.316 234.457 330.615 234.561 328.869Z" fill="url(#paint2_linear_239_2528)"/>
<path d="M253.343 141.632C253.343 141.632 285.853 178.273 253.343 197.061L250.03 194.662C250.03 194.662 266.171 179.206 250.03 160.286L253.343 141.632Z" fill="url(#paint3_linear_239_2528)"/>
<path d="M226.231 344.632H230.95C231.833 344.632 232.666 344.227 233.205 343.527C234.676 341.615 237.723 337.886 239.181 337.789C241.143 337.658 240.892 344.632 240.892 344.632H241.991L243.384 335.965C243.735 333.785 242.65 331.625 240.692 330.603C240.692 330.603 240.244 333.92 237.812 335.386C235.38 336.854 227.917 342.107 227.917 342.107C227.917 342.107 227.002 341.977 225.999 342.158C224.51 342.427 224.718 344.632 226.231 344.632Z" fill="url(#paint4_linear_239_2528)"/>
<path d="M254.354 344.094L258.704 342.265C259.518 341.922 260.128 341.225 260.354 340.371C260.968 338.039 262.332 333.419 263.637 332.765C265.395 331.883 267.868 338.409 267.868 338.409L268.882 337.983L266.805 329.454C266.282 327.308 264.445 325.737 262.244 325.555C262.244 325.555 263.117 328.786 261.444 331.081C259.772 333.376 254.929 341.113 254.929 341.113C254.929 341.113 254.036 341.348 253.181 341.904C251.913 342.729 252.959 344.681 254.354 344.094Z" fill="url(#paint5_linear_239_2528)"/>
<path d="M229.08 187.454C229.08 187.454 229.625 190.798 228.826 199.992C228.026 209.185 224.205 230.77 224.983 251.423C224.983 251.423 235.847 253.955 254.721 252.756C254.721 252.756 262.686 220.511 260.746 208.253C258.805 195.994 248.279 187.2 248.279 187.2L229.08 187.454Z" fill="#151515"/>
<path d="M237.107 126.019L235.779 141.632H248.394L245.257 117.8L237.107 126.019Z" fill="url(#paint6_linear_239_2528)"/>
<path d="M252.131 139.473C247.777 139.233 238.043 138.788 231.148 139.164C227.517 139.362 224.476 141.967 223.733 145.526L222.051 153.586C221.424 156.589 221.518 159.696 222.324 162.656L229.08 187.454C229.08 187.454 235.088 191.065 248.279 187.201C248.279 187.201 259.864 159.576 255.122 141.904C254.753 140.532 253.55 139.551 252.131 139.473Z" fill="#C29671"/>
<path d="M224.062 144.08C222.204 148.975 220.526 154.108 218.723 158.915C217.806 161.32 216.876 163.679 215.882 165.845C215.378 166.924 214.826 167.915 214.318 168.813C213.81 169.703 213.238 170.443 212.941 170.784C212.882 170.834 213.078 170.873 213.143 170.876C213.183 170.881 211.887 171.088 211.49 171.155L209.937 171.146C207.711 171.031 205.19 170.639 202.661 170.148C197.561 169.197 192.258 167.861 186.813 166.851L186.771 166.844C185.73 166.65 184.728 167.338 184.535 168.38C184.408 169.067 184.666 169.739 185.154 170.17C187.349 172.103 189.676 173.691 192.09 175.236C193.305 175.979 194.542 176.707 195.798 177.406C197.08 178.059 198.365 178.718 199.699 179.327C202.386 180.497 205.162 181.576 208.36 182.269C209.201 182.409 210.03 182.557 210.895 182.673C211.865 182.706 212.745 182.792 213.804 182.731C214.367 182.675 214.932 182.606 215.496 182.524C215.796 182.471 216.018 182.466 216.382 182.365C216.768 182.249 217.154 182.119 217.533 181.977C218.328 181.692 218.841 181.347 219.486 180.988C220.022 180.635 220.51 180.265 220.984 179.887C222.732 178.398 223.818 176.92 224.774 175.501C225.728 174.083 226.485 172.663 227.164 171.27C228.525 168.49 229.589 165.735 230.452 162.961C232.2 157.401 233.385 151.937 233.885 146.133C234.124 143.354 232.065 140.906 229.285 140.666C226.984 140.468 224.911 141.845 224.129 143.901L224.062 144.08Z" fill="url(#paint7_linear_239_2528)"/>
<path d="M188.527 169.346L186.276 164.002L174.428 161.05C174.428 161.05 173.48 163.104 178.456 164.002C178.456 164.002 176.679 165.967 177.627 168.278C178.575 170.588 188.646 172.903 188.527 169.346Z" fill="url(#paint8_linear_239_2528)"/>
<path d="M231.766 107.987C231.315 108.253 227.766 120.77 230.74 126.019C233.714 131.267 242.796 125.389 245.257 117.799C247.719 110.211 243.764 100.911 231.766 107.987Z" fill="url(#paint9_linear_239_2528)"/>
<path d="M255.304 117.8C257.341 127.78 264.091 125.049 268.871 129.489C276.619 136.686 287.703 129.267 298.479 136.087C306.258 141.01 310.006 153.606 306.273 163.776C301.102 177.862 283.433 183.654 274.276 179.364C265.525 175.264 266.771 162.984 254.997 158.238C249.998 156.223 247.53 157.533 244.536 154.546C239.296 149.319 240.71 139.175 241.255 135.267C242.437 126.787 245.28 125.251 243.921 121.525C241.278 114.276 228.95 115.771 227.923 110.654C226.987 105.994 235.923 97.1609 244.331 98.5529C257.341 100.706 254.397 113.353 255.304 117.8Z" fill="#6B492E"/>
<path opacity="0.6" d="M302.387 161.391C302.542 161.391 302.681 161.286 302.719 161.13C304.384 154.215 303.629 148.544 300.471 144.273C295.232 137.187 285.049 136.486 284.947 136.479C284.787 136.453 284.598 136.611 284.586 136.799C284.575 136.987 284.717 137.148 284.906 137.159C285.005 137.165 294.879 137.851 299.927 144.683C302.956 148.782 303.672 154.263 302.056 160.97C302.012 161.153 302.124 161.337 302.307 161.381C302.334 161.387 302.361 161.391 302.387 161.391Z" fill="white"/>
<path opacity="0.72" d="M269.037 167.721C269.051 167.721 269.065 167.719 269.08 167.716C269.171 167.692 269.225 167.599 269.202 167.507C267.579 161.282 264.732 156.959 260.741 154.657C257.837 152.981 255.117 152.826 252.719 152.688C250.406 152.555 248.408 152.44 246.8 151.01C243.477 148.055 243.669 140.949 247.372 129.889C247.402 129.8 247.354 129.704 247.265 129.674C247.175 129.644 247.079 129.692 247.049 129.782C243.298 140.982 243.139 148.21 246.574 151.265C248.27 152.773 250.322 152.892 252.699 153.028C255.06 153.164 257.737 153.318 260.57 154.952C264.48 157.206 267.273 161.46 268.872 167.594C268.892 167.67 268.961 167.721 269.037 167.721Z" fill="white"/>
<path opacity="0.72" d="M250.485 115.323C250.503 115.323 250.521 115.32 250.539 115.314C250.628 115.284 250.676 115.187 250.646 115.098C249.357 111.261 245.64 111.831 241.703 112.436C239.211 112.82 236.635 113.214 234.449 112.567C232.819 112.084 231.85 111.335 231.57 110.34C231.092 108.647 232.767 106.759 232.783 106.74C232.847 106.67 232.841 106.562 232.771 106.5C232.702 106.437 232.593 106.443 232.531 106.512C232.456 106.595 230.714 108.557 231.242 110.432C231.556 111.546 232.602 112.375 234.352 112.893C236.612 113.563 239.226 113.162 241.755 112.773C245.707 112.166 249.124 111.64 250.323 115.207C250.347 115.278 250.414 115.323 250.485 115.323Z" fill="white"/>
<path d="M288.033 76.5615C288.033 58.9963 302.912 44.7586 320.768 44.761C338.095 44.7631 351.771 58.251 351.771 74.887C351.771 91.523 338.095 105.729 320.768 106.642C302.912 107.582 288.033 94.1267 288.033 76.5615Z" fill="#996942"/>
<path d="M291.02 76.4831C291.02 60.564 304.504 47.6608 320.687 47.6627C336.39 47.6647 348.784 59.8884 348.784 74.9654C348.784 90.0423 336.39 102.917 320.687 103.744C304.504 104.597 291.02 92.4021 291.02 76.4831Z" fill="#6B492E"/>
<path d="M311.075 74.6779H308.416V64.0827C308.416 59.9213 311.532 56.4045 315.663 55.9024L321.099 55.2418C323.438 54.9574 325.792 55.6907 327.557 57.2537C329.321 58.8166 330.333 61.0648 330.333 63.4221V72.6718H327.675V63.4221C327.675 61.8255 326.989 60.3025 325.794 59.2439C324.599 58.1852 323.004 57.6885 321.42 57.8811L315.983 58.5417C313.185 58.8818 311.075 61.2638 311.075 64.0827L311.075 74.6779Z" fill="white"/>
<path d="M307.63 72.2991L330.936 71.008C331.883 70.9555 332.679 71.709 332.679 72.657V91.1204C332.679 92.0325 331.94 92.7719 331.028 92.7719H308.282C307.39 92.7719 306.66 92.0648 306.631 91.1742L306.071 74.002C306.042 73.1049 306.734 72.3487 307.63 72.2991Z" fill="white"/>
<path d="M323.174 87.4826L321.764 83.4271C321.594 82.9395 321.709 82.3945 322.072 82.027C322.795 81.2945 323.226 80.2731 323.175 79.1514C323.085 77.1732 321.469 75.5692 319.49 75.4931C317.3 75.409 315.498 77.1594 315.498 79.3306C315.498 80.5351 316.053 81.6096 316.921 82.3136C317.371 82.6787 317.556 83.2787 317.365 83.826L316.093 87.4827C315.784 88.372 316.444 89.3008 317.386 89.3008H321.882C322.823 89.3007 323.483 88.3719 323.174 87.4826Z" fill="#C29671"/>
<g opacity="0.3">
<path d="M126.84 310.469C127.122 311.063 126.936 311.796 126.392 312.158C125.201 312.95 123.959 313.7 122.701 314.386C122.089 314.719 121.335 314.468 121.016 313.825C121.012 313.817 121.008 313.81 121.005 313.802C120.702 313.163 120.941 312.386 121.545 312.056C122.74 311.405 123.92 310.692 125.051 309.94C125.633 309.553 126.405 309.735 126.776 310.348C126.8 310.387 126.821 310.428 126.84 310.469ZM117.061 315.462C117.083 315.508 117.102 315.556 117.119 315.605C117.352 316.288 117.014 317.039 116.365 317.281C115.03 317.78 113.663 318.224 112.299 318.6C111.632 318.784 110.951 318.367 110.771 317.664C110.595 316.963 110.992 316.246 111.659 316.062C112.955 315.704 114.254 315.283 115.522 314.809C116.124 314.583 116.783 314.874 117.061 315.462ZM106.473 318.067C106.535 318.197 106.577 318.342 106.595 318.495C106.677 319.215 106.189 319.867 105.503 319.952C104.099 320.126 102.67 320.237 101.256 320.284C100.566 320.306 99.9891 319.737 99.9652 319.013C99.942 318.289 100.482 317.683 101.172 317.661C102.515 317.617 103.872 317.51 105.205 317.345C105.744 317.279 106.244 317.583 106.473 318.067ZM95.5887 318.118C95.6911 318.334 95.7379 318.583 95.7118 318.841C95.639 319.561 95.0234 320.081 94.3375 320.003C92.9301 319.842 91.5124 319.616 90.1235 319.33C89.4469 319.19 89.0041 318.5 89.1347 317.789C89.2659 317.078 89.9215 316.615 90.5989 316.754C91.9178 317.026 93.2643 317.242 94.6018 317.394C95.0423 317.445 95.4048 317.73 95.5887 318.118ZM84.9609 315.619C85.1045 315.922 85.137 316.283 85.0244 316.628C84.801 317.314 84.0907 317.677 83.4381 317.441C82.1024 316.957 80.7672 316.407 79.4706 315.805C78.8387 315.512 78.5514 314.737 78.8294 314.074C79.1071 313.412 79.844 313.112 80.4759 313.405C81.7084 313.978 82.9775 314.501 84.2469 314.96C84.5707 315.077 84.8196 315.32 84.9609 315.619ZM75.1192 310.714C75.3052 311.107 75.3001 311.589 75.0647 311.989C74.7023 312.605 73.9329 312.794 73.3456 312.412C72.1421 311.63 70.9551 310.783 69.8186 309.896C69.264 309.463 69.1478 308.641 69.5588 308.06C69.9692 307.478 70.7518 307.358 71.3061 307.791C72.3862 308.634 73.5136 309.438 74.6571 310.182C74.8632 310.316 75.0189 310.502 75.1192 310.714ZM52.0577 269.004C52.1348 269.167 52.1807 269.348 52.1872 269.542C52.2345 270.951 52.3411 272.377 52.5043 273.78C52.5878 274.499 52.1005 275.152 51.4159 275.238C50.731 275.325 50.1079 274.811 50.0242 274.092C49.8524 272.614 49.7399 271.112 49.6899 269.628C49.6655 268.904 50.2049 268.298 50.8944 268.274C51.4001 268.256 51.8462 268.557 52.0577 269.004ZM66.5576 303.648C66.7886 304.136 66.7134 304.743 66.3297 305.152C65.8458 305.668 65.0549 305.673 64.5629 305.164C63.5544 304.12 62.5768 303.017 61.6572 301.887C61.2111 301.333 61.2693 300.507 61.7938 300.037C62.3179 299.567 63.1066 299.633 63.5556 300.185C64.4286 301.259 65.3571 302.305 66.3146 303.297C66.4161 303.402 66.4975 303.521 66.5576 303.648ZM53.6658 280.313C53.7025 280.39 53.7329 280.473 53.755 280.56C54.1015 281.923 54.5091 283.29 54.9654 284.62C55.1992 285.303 54.8626 286.054 54.2137 286.298C53.5647 286.542 52.846 286.188 52.6147 285.504C52.1348 284.104 51.7059 282.667 51.3408 281.232C51.1627 280.531 51.5587 279.813 52.2252 279.627C52.8089 279.465 53.4067 279.765 53.6658 280.313ZM59.7087 294.754C59.9897 295.348 59.8051 296.079 59.262 296.442C58.6803 296.831 57.908 296.65 57.5363 296.038C56.7762 294.785 56.0573 293.482 55.4002 292.163C55.3959 292.154 55.3918 292.146 55.3879 292.138C55.0859 291.5 55.3234 290.723 55.9264 290.393C56.5377 290.058 57.2928 290.307 57.6129 290.95C58.2374 292.203 58.9204 293.441 59.6427 294.631C59.6669 294.671 59.689 294.712 59.7087 294.754Z" fill="url(#paint10_linear_239_2528)"/>
<path d="M52.5424 259.805C52.6521 260.037 52.6981 260.304 52.6597 260.58C52.5659 261.249 52.4843 261.931 52.4159 262.608C52.3437 263.328 51.7285 263.849 51.0425 263.771C50.3562 263.694 49.8578 263.047 49.9314 262.326C50.0028 261.614 50.0889 260.896 50.1873 260.192C50.2876 259.476 50.9224 258.981 51.6047 259.088C52.0258 259.154 52.3664 259.433 52.5424 259.805Z" fill="url(#paint11_linear_239_2528)"/>
</g>
<g opacity="0.3">
<path d="M72.3531 225.688C72.6218 226.255 72.4668 226.958 71.9607 227.337C71.4368 227.729 70.9118 228.14 70.4008 228.557C69.8564 229.001 69.0715 228.896 68.6474 228.324C68.2216 227.749 68.3209 226.927 68.865 226.483C69.4031 226.044 69.956 225.612 70.5075 225.199C71.0688 224.779 71.8491 224.917 72.2505 225.507C72.2899 225.565 72.3239 225.626 72.3531 225.688Z" fill="url(#paint12_linear_239_2528)"/>
<path d="M144.22 244.6C144.477 245.141 144.725 245.689 144.965 246.243C145.252 246.903 144.975 247.681 144.348 247.98C143.72 248.279 142.975 247.985 142.692 247.327C142.137 246.048 141.533 244.796 140.891 243.59C140.555 242.956 140.768 242.158 141.37 241.805C141.972 241.452 142.734 241.68 143.071 242.313C143.468 243.058 143.855 243.828 144.22 244.6ZM147.288 252.733C147.319 252.798 147.345 252.868 147.366 252.941C147.768 254.344 148.118 255.78 148.406 257.209C148.549 257.918 148.117 258.614 147.443 258.762C146.768 258.911 146.102 258.455 145.962 257.746C145.688 256.389 145.356 255.025 144.974 253.691C144.775 252.997 145.149 252.266 145.809 252.059C146.401 251.873 147.021 252.17 147.288 252.733ZM139.467 236.529C139.729 237.083 139.588 237.772 139.102 238.158C138.551 238.594 137.768 238.478 137.351 237.899C136.555 236.791 135.702 235.705 134.817 234.669C134.356 234.128 134.397 233.299 134.91 232.816C135.423 232.333 136.213 232.379 136.675 232.918C137.607 234.009 138.505 235.154 139.344 236.32C139.392 236.387 139.432 236.457 139.467 236.529ZM149.229 263.803C149.299 263.952 149.344 264.118 149.356 264.294C149.455 265.754 149.495 267.235 149.476 268.697C149.467 269.421 148.9 269.999 148.211 269.987C147.52 269.976 146.969 269.38 146.978 268.655C146.996 267.267 146.958 265.86 146.864 264.475C146.814 263.752 147.333 263.125 148.021 263.076C148.541 263.038 149.01 263.341 149.229 263.803ZM132.101 228.353C132.316 228.808 132.269 229.373 131.937 229.784C131.492 230.337 130.704 230.405 130.177 229.937C129.169 229.04 128.11 228.177 127.03 227.369C126.467 226.949 126.334 226.129 126.734 225.539C127.133 224.949 127.912 224.812 128.475 225.232C129.612 226.082 130.727 226.991 131.788 227.935C131.923 228.054 132.027 228.198 132.101 228.353ZM123.21 222.068C123.382 222.432 123.392 222.874 123.2 223.26C122.88 223.902 122.126 224.15 121.514 223.813C120.341 223.168 119.128 222.567 117.91 222.026C117.273 221.745 116.973 220.976 117.241 220.307C117.508 219.64 118.24 219.327 118.876 219.609C120.159 220.177 121.435 220.81 122.669 221.489C122.912 221.623 123.096 221.829 123.21 222.068ZM113.23 217.966C113.361 218.242 113.4 218.568 113.318 218.889C113.14 219.589 112.455 220.003 111.789 219.814C110.509 219.451 109.201 219.141 107.901 218.893C107.223 218.764 106.77 218.081 106.893 217.367C107.015 216.654 107.664 216.182 108.343 216.311C109.711 216.573 111.088 216.899 112.434 217.28C112.794 217.382 113.076 217.64 113.23 217.966ZM102.642 216.245C102.732 216.436 102.78 216.654 102.771 216.882C102.743 217.606 102.161 218.168 101.472 218.136C100.149 218.076 98.8096 218.075 97.4898 218.132C96.8005 218.162 96.217 217.599 96.1867 216.876C96.1564 216.152 96.6909 215.54 97.3802 215.511C98.7704 215.45 100.181 215.451 101.573 215.515C102.045 215.536 102.445 215.83 102.642 216.245ZM91.9533 217.006C92.0043 217.114 92.0418 217.231 92.0635 217.355C92.1881 218.068 91.7388 218.751 91.0603 218.88C89.7616 219.127 88.4561 219.436 87.1792 219.798C86.5133 219.986 85.8267 219.57 85.6457 218.872C85.4643 218.173 85.8573 217.452 86.5232 217.264C87.8673 216.883 89.2418 216.558 90.6091 216.298C91.1694 216.191 91.7115 216.496 91.9533 217.006ZM81.698 220.214C81.7094 220.238 81.72 220.263 81.7303 220.288C81.9996 220.956 81.7028 221.725 81.0677 222.006C80.1709 222.403 79.2756 222.834 78.4053 223.287C78.0903 223.45 77.7776 223.618 77.4677 223.788C76.8566 224.123 76.1012 223.874 75.7807 223.232C75.4439 222.588 75.695 221.797 76.3056 221.462C76.6319 221.283 76.9603 221.107 77.2918 220.934C78.2071 220.458 79.1496 220.005 80.0927 219.588C80.7039 219.317 81.406 219.597 81.698 220.214Z" fill="url(#paint13_linear_239_2528)"/>
<path d="M148.797 275.075C148.908 275.309 148.953 275.579 148.913 275.856C148.812 276.559 148.694 277.272 148.564 277.976C148.432 278.687 147.776 279.15 147.099 279.01C146.422 278.869 145.979 278.181 146.111 277.469C146.235 276.8 146.347 276.123 146.443 275.456C146.546 274.74 147.183 274.249 147.866 274.359C148.284 274.428 148.622 274.706 148.797 275.075Z" fill="url(#paint14_linear_239_2528)"/>
</g>
<path d="M135.073 280.237C135.176 279.999 135.123 279.719 134.942 279.539L129.774 274.402C130.415 270.984 130.542 267.432 130.097 263.874L135.561 259.123C135.752 258.956 135.822 258.68 135.734 258.435L132.724 250.051C132.636 249.806 132.41 249.646 132.161 249.653L125.062 249.85C123.159 246.867 120.829 244.282 118.197 242.153L118.853 234.723C118.876 234.462 118.739 234.215 118.512 234.107L110.744 230.399C110.517 230.291 110.25 230.346 110.079 230.536L105.201 235.951C101.945 235.269 98.5626 235.128 95.1763 235.587L90.6394 229.837C90.4804 229.635 90.2171 229.562 89.984 229.653L82.0086 232.795C81.7756 232.886 81.624 233.124 81.6312 233.385L81.8358 240.842C78.9996 242.833 76.5446 245.274 74.5241 248.034L67.4476 247.327C67.1997 247.302 66.9644 247.446 66.8618 247.684L63.3509 255.833C63.2482 256.071 63.301 256.352 63.4821 256.532L68.65 261.669C68.0086 265.087 67.882 268.639 68.3275 272.197L62.8633 276.948C62.6717 277.115 62.6021 277.391 62.6899 277.636L65.6999 286.02C65.7879 286.265 66.0139 286.425 66.263 286.418L73.3622 286.221C75.2651 289.204 77.5947 291.788 80.2276 293.917L79.5714 301.348C79.5483 301.608 79.6853 301.856 79.9123 301.964L87.6799 305.671C87.9069 305.78 88.174 305.725 88.3451 305.535L93.2233 300.12C96.4795 300.801 99.8616 300.943 103.248 300.483L107.785 306.234C107.944 306.435 108.207 306.509 108.44 306.417L116.415 303.276C116.648 303.184 116.8 302.947 116.793 302.686L116.588 295.229C119.424 293.237 121.879 290.797 123.9 288.037L130.976 288.744C131.224 288.768 131.459 288.625 131.562 288.387L135.073 280.237Z" fill="url(#paint15_linear_239_2528)"/>
<path opacity="0.7" d="M106.886 264.05C108.747 267.982 107.636 272.863 104.108 275.434C100.23 278.259 94.8795 277.239 92.1799 273.16C90.8716 271.184 90.374 268.792 90.7776 266.428C91.181 264.063 92.4376 262.006 94.3162 260.638C98.1941 257.812 103.544 258.832 106.244 262.911C106.487 263.279 106.701 263.66 106.886 264.05ZM93.3234 271.083C93.4672 271.386 93.6326 271.681 93.8203 271.964C95.8899 275.092 99.9928 275.874 102.966 273.708C105.939 271.541 106.675 267.234 104.604 264.107C102.534 260.979 98.4314 260.197 95.4586 262.363C94.0182 263.413 93.0547 264.989 92.7453 266.803C92.494 268.277 92.6992 269.764 93.3234 271.083Z" fill="white"/>
<path opacity="0.7" d="M117.887 258.121C118.207 258.796 118.496 259.492 118.753 260.207C118.834 260.432 118.911 260.659 118.985 260.887C119.349 262.009 119.628 263.161 119.817 264.323C119.82 264.339 119.822 264.355 119.825 264.371C119.832 264.415 119.839 264.46 119.846 264.506C119.86 264.593 119.872 264.681 119.885 264.769C119.918 264.999 119.803 265.217 119.614 265.316C119.568 265.339 119.518 265.356 119.465 265.364C119.192 265.407 118.938 265.208 118.897 264.922C118.687 263.446 118.324 261.984 117.818 260.576C115.308 253.581 109.619 248.796 103.126 247.35C99.5153 246.546 95.6553 246.775 91.9548 248.233C91.3058 248.488 90.674 248.776 90.0616 249.095C85.9394 251.24 82.6756 254.782 80.7536 259.243C78.5455 264.368 78.3719 270.095 80.2647 275.367C84.1748 286.255 95.7747 291.788 106.128 287.71C106.766 287.459 107.39 287.174 107.996 286.858C110.626 285.49 112.939 283.531 114.765 281.115C114.812 281.053 114.87 281.005 114.934 280.972C115.102 280.885 115.31 280.901 115.467 281.032C115.683 281.213 115.72 281.542 115.548 281.769C113.632 284.306 111.203 286.362 108.442 287.799C107.805 288.131 107.151 288.429 106.481 288.693C95.6109 292.975 83.4303 287.158 79.3293 275.735C77.3421 270.2 77.5245 264.189 79.8426 258.809C81.8603 254.125 85.2867 250.407 89.6141 248.155C90.2572 247.821 90.9204 247.518 91.6014 247.25C96.867 245.176 102.591 245.382 107.719 247.829C112.185 249.96 115.733 253.569 117.887 258.121Z" fill="white"/>
<g opacity="0.3">
<path d="M175.311 335.268C175.459 335.583 175.402 335.974 175.144 336.223C174.663 336.69 174.163 337.147 173.656 337.583C173.327 337.866 172.841 337.815 172.57 337.468C172.298 337.122 172.348 336.611 172.677 336.328C173.16 335.913 173.637 335.477 174.096 335.032C174.408 334.728 174.896 334.749 175.186 335.078C175.237 335.136 175.279 335.201 175.311 335.268Z" fill="url(#paint16_linear_239_2528)"/>
<path d="M170.605 339.056C170.779 339.425 170.663 339.878 170.326 340.101C169.372 340.731 168.377 341.318 167.368 341.842C167.155 341.953 166.941 342.061 166.725 342.168C166.339 342.358 165.884 342.154 165.697 341.778C165.516 341.373 165.681 340.891 166.066 340.701C166.272 340.599 166.477 340.495 166.68 340.39C167.643 339.889 168.592 339.33 169.502 338.729C169.862 338.491 170.338 338.605 170.566 338.984C170.58 339.008 170.593 339.032 170.605 339.056ZM163.359 342.628C163.375 342.662 163.389 342.698 163.401 342.735C163.535 343.161 163.315 343.619 162.91 343.758C161.612 344.205 160.275 344.572 158.939 344.847C158.52 344.933 158.115 344.644 158.031 344.208C157.949 343.768 158.22 343.343 158.638 343.256C159.914 342.994 161.188 342.644 162.426 342.218C162.795 342.091 163.19 342.272 163.359 342.628ZM155.5 344.244C155.543 344.336 155.571 344.439 155.579 344.548C155.609 344.994 155.289 345.381 154.864 345.412C153.502 345.51 152.119 345.521 150.754 345.442C150.328 345.417 150.002 345.036 150.025 344.588C150.047 344.141 150.41 343.798 150.836 343.823C152.137 343.899 153.455 343.889 154.754 343.795C155.075 343.772 155.365 343.959 155.5 344.244ZM147.498 343.781C147.57 343.932 147.597 344.106 147.567 344.284C147.492 344.724 147.091 345.017 146.672 344.938C145.325 344.682 143.982 344.337 142.679 343.91C142.272 343.777 142.045 343.322 142.17 342.896C142.296 342.468 142.728 342.23 143.135 342.363C144.377 342.769 145.659 343.099 146.942 343.342C147.193 343.39 147.393 343.559 147.498 343.781ZM139.843 341.28C139.942 341.49 139.954 341.744 139.856 341.974C139.681 342.382 139.225 342.563 138.836 342.379C137.59 341.787 136.367 341.11 135.2 340.365C134.835 340.133 134.719 339.634 134.94 339.252C135.161 338.869 135.635 338.748 135.999 338.981C137.112 339.691 138.279 340.337 139.468 340.901C139.637 340.982 139.766 341.118 139.843 341.28ZM132.993 336.905C133.122 337.177 133.099 337.515 132.908 337.769C132.645 338.119 132.16 338.178 131.825 337.9C130.752 337.009 129.723 336.04 128.765 335.018C128.466 334.697 128.469 334.186 128.772 333.872C129.075 333.558 129.564 333.563 129.863 333.882C130.777 334.856 131.758 335.78 132.78 336.63C132.873 336.707 132.944 336.801 132.993 336.905ZM127.368 330.908C127.529 331.249 127.444 331.672 127.147 331.911C126.809 332.183 126.325 332.115 126.065 331.759C125.235 330.623 124.463 329.418 123.769 328.176C123.558 327.785 123.676 327.293 124.043 327.067C124.41 326.841 124.883 326.972 125.099 327.358C125.761 328.542 126.498 329.692 127.289 330.775C127.32 330.818 127.346 330.862 127.368 330.908ZM121.942 319.676C121.962 319.718 121.979 319.763 121.992 319.81C122.309 320.944 122.691 322.08 123.128 323.187C123.193 323.355 123.259 323.519 123.327 323.682C123.496 324.093 123.317 324.57 122.926 324.747C122.535 324.925 122.068 324.739 121.911 324.324C121.839 324.15 121.769 323.976 121.701 323.8C121.245 322.644 120.844 321.453 120.512 320.263C120.391 319.833 120.625 319.384 121.034 319.259C121.398 319.147 121.778 319.33 121.942 319.676Z" fill="url(#paint17_linear_239_2528)"/>
</g>
<g opacity="0.3">
<path d="M182.12 294.536C182.308 294.933 182.158 295.415 181.782 295.617C181.403 295.82 180.938 295.662 180.743 295.264C180.157 294.064 179.496 292.891 178.778 291.778C178.544 291.408 178.63 290.904 178.984 290.653C179.337 290.403 179.816 290.501 180.055 290.872C180.807 292.039 181.501 293.268 182.116 294.526C182.116 294.526 182.119 294.533 182.12 294.536ZM183.711 298.335C183.723 298.361 183.734 298.388 183.744 298.415C184.211 299.74 184.606 301.107 184.918 302.479C185.017 302.915 184.762 303.351 184.347 303.454C183.932 303.558 183.517 303.285 183.417 302.852C183.119 301.543 182.742 300.238 182.297 298.975C182.149 298.555 182.353 298.089 182.752 297.935C183.126 297.79 183.537 297.969 183.711 298.335ZM177.697 287.677C177.849 287.999 177.783 288.4 177.514 288.648C177.194 288.941 176.706 288.906 176.425 288.568C175.58 287.552 174.668 286.581 173.716 285.682C173.399 285.381 173.372 284.87 173.657 284.538C173.941 284.205 174.429 284.179 174.746 284.478C175.745 285.42 176.7 286.438 177.586 287.504C177.631 287.558 177.668 287.616 177.697 287.677ZM185.539 306.393C185.578 306.476 185.605 306.567 185.615 306.664C185.766 308.067 185.835 309.494 185.821 310.905C185.817 311.353 185.468 311.711 185.042 311.705C184.617 311.699 184.274 311.332 184.278 310.885C184.291 309.539 184.225 308.179 184.082 306.841C184.034 306.396 184.339 305.996 184.762 305.947C185.093 305.909 185.399 306.097 185.539 306.393ZM171.829 282.142C171.951 282.399 171.939 282.716 171.771 282.967C171.527 283.334 171.046 283.422 170.697 283.165C169.647 282.393 168.541 281.68 167.409 281.047C167.032 280.836 166.89 280.345 167.089 279.95C167.289 279.555 167.757 279.406 168.133 279.617C169.319 280.281 170.479 281.028 171.58 281.838C171.69 281.919 171.773 282.024 171.829 282.142ZM164.871 278.243C164.964 278.439 164.981 278.675 164.901 278.895C164.748 279.312 164.301 279.52 163.904 279.358C162.705 278.871 161.469 278.456 160.229 278.125C159.816 278.014 159.565 277.573 159.67 277.139C159.774 276.706 160.193 276.444 160.606 276.554C161.906 276.902 163.202 277.336 164.458 277.847C164.645 277.923 164.788 278.067 164.871 278.243ZM157.228 276.204C157.293 276.342 157.322 276.501 157.302 276.666C157.249 277.11 156.863 277.424 156.44 277.367C155.167 277.194 153.872 277.103 152.593 277.095C152.168 277.092 151.823 276.727 151.825 276.28C151.827 275.832 152.173 275.472 152.6 275.474C153.941 275.483 155.298 275.578 156.634 275.759C156.899 275.795 157.116 275.969 157.228 276.204Z" fill="url(#paint18_linear_239_2528)"/>
<path d="M185.456 314.709C185.522 314.849 185.551 315.011 185.53 315.177C185.442 315.865 185.335 316.552 185.211 317.221C185.129 317.66 184.724 317.947 184.306 317.86C183.889 317.773 183.615 317.347 183.696 316.908C183.814 316.27 183.916 315.614 184 314.958C184.057 314.515 184.445 314.204 184.867 314.265C185.131 314.303 185.346 314.476 185.456 314.709Z" fill="url(#paint19_linear_239_2528)"/>
</g>
<path d="M176.246 318.748C176.315 318.589 176.28 318.401 176.159 318.28L172.701 314.843C173.13 312.556 173.214 310.179 172.916 307.798L176.573 304.619C176.701 304.507 176.747 304.323 176.689 304.159L174.675 298.548C174.616 298.384 174.464 298.278 174.298 298.282L169.547 298.414C168.274 296.418 166.715 294.688 164.953 293.264L165.393 288.292C165.408 288.117 165.316 287.952 165.164 287.879L159.967 285.399C159.815 285.326 159.636 285.363 159.522 285.49L156.257 289.114C154.078 288.657 151.815 288.563 149.549 288.87L146.513 285.022C146.407 284.887 146.231 284.838 146.075 284.899L140.738 287.001C140.582 287.063 140.481 287.221 140.486 287.396L140.623 292.386C138.725 293.719 137.082 295.352 135.73 297.199L130.995 296.726C130.829 296.709 130.671 296.805 130.603 296.964L128.253 302.418C128.185 302.577 128.22 302.765 128.341 302.885L131.799 306.322C131.37 308.61 131.285 310.987 131.583 313.367L127.927 316.547C127.799 316.658 127.752 316.843 127.811 317.007L129.825 322.617C129.884 322.781 130.035 322.888 130.202 322.883L134.952 322.751C136.226 324.748 137.784 326.477 139.546 327.902L139.107 332.874C139.092 333.048 139.183 333.214 139.335 333.286L144.533 335.767C144.685 335.839 144.864 335.803 144.978 335.676L148.242 332.052C150.421 332.508 152.684 332.603 154.95 332.295L157.986 336.143C158.093 336.278 158.269 336.328 158.425 336.266L163.761 334.164C163.917 334.103 164.019 333.944 164.014 333.769L163.877 328.779C165.775 327.447 167.418 325.814 168.77 323.967L173.505 324.44C173.671 324.456 173.828 324.361 173.897 324.201L176.246 318.748Z" fill="url(#paint20_linear_239_2528)"/>
<path opacity="0.7" d="M157.481 307.876C158.036 309.048 158.218 310.369 157.995 311.679C157.72 313.29 156.864 314.69 155.584 315.622C152.944 317.547 149.299 316.852 147.46 314.074C145.623 311.288 146.274 307.468 148.915 305.544C150.195 304.611 151.745 304.259 153.279 304.552C154.814 304.844 156.15 305.746 157.04 307.093C157.206 307.345 157.354 307.606 157.481 307.876ZM148.405 312.58C148.497 312.776 148.604 312.966 148.726 313.151C150.079 315.195 152.76 315.706 154.703 314.29C155.644 313.604 156.274 312.574 156.476 311.389C156.678 310.204 156.427 309.006 155.773 308.015C155.118 307.025 154.135 306.361 153.007 306.146C151.878 305.931 150.738 306.19 149.796 306.876C148.029 308.164 147.472 310.61 148.405 312.58Z" fill="white"/>
<path opacity="0.7" d="M165.144 303.759C165.361 304.219 165.558 304.694 165.735 305.184C166.084 306.157 166.34 307.168 166.495 308.192C166.502 308.238 166.509 308.284 166.515 308.33C166.566 308.686 166.388 309.022 166.097 309.174C166.026 309.211 165.948 309.237 165.866 309.25C165.445 309.315 165.054 309.008 164.989 308.566C164.853 307.609 164.618 306.662 164.291 305.753L164.291 305.753C164.273 305.703 164.254 305.653 164.236 305.603C163.443 303.459 162.172 301.601 160.544 300.151C159.661 299.364 158.671 298.697 157.593 298.17C157.585 298.166 157.576 298.162 157.567 298.158C157.54 298.145 157.514 298.132 157.487 298.119C154.324 296.61 150.795 296.483 147.548 297.762C147.127 297.927 146.719 298.114 146.322 298.32C143.654 299.709 141.541 302.001 140.296 304.89C138.867 308.208 138.755 311.915 139.98 315.327C141.206 318.738 143.622 321.451 146.784 322.961C149.946 324.47 153.476 324.597 156.723 323.318C157.136 323.156 157.54 322.971 157.932 322.767C159.635 321.881 161.133 320.613 162.314 319.049C162.387 318.953 162.476 318.879 162.575 318.828C162.834 318.693 163.156 318.718 163.398 318.92C163.731 319.2 163.789 319.708 163.524 320.059C162.201 321.809 160.526 323.228 158.622 324.219C158.182 324.448 157.73 324.654 157.268 324.836C153.635 326.267 149.686 326.125 146.148 324.436C142.611 322.748 139.906 319.718 138.536 315.896C137.165 312.078 137.291 307.931 138.891 304.219C140.282 300.987 142.646 298.422 145.632 296.869C146.075 296.638 146.533 296.429 147.003 296.244C154.036 293.474 161.864 296.83 165.144 303.759Z" fill="white"/>
<defs>
<linearGradient id="paint0_linear_239_2528" x1="174.185" y1="66.5676" x2="174.185" y2="141.403" gradientUnits="userSpaceOnUse">
<stop stop-color="#C29671"/>
<stop offset="1" stop-color="#996437"/>
</linearGradient>
<linearGradient id="paint1_linear_239_2528" x1="272.134" y1="340.002" x2="230.23" y2="232.128" gradientUnits="userSpaceOnUse">
<stop stop-color="#FEBBBA"/>
<stop offset="1" stop-color="#FF928E"/>
</linearGradient>
<linearGradient id="paint2_linear_239_2528" x1="272.77" y1="686.986" x2="134.274" y2="-931.694" gradientUnits="userSpaceOnUse">
<stop stop-color="#FEBBBA"/>
<stop offset="1" stop-color="#FF928E"/>
</linearGradient>
<linearGradient id="paint3_linear_239_2528" x1="267.792" y1="169.346" x2="250.03" y2="169.346" gradientUnits="userSpaceOnUse">
<stop stop-color="#FEBBBA"/>
<stop offset="1" stop-color="#FF928E"/>
</linearGradient>
<linearGradient id="paint4_linear_239_2528" x1="234.216" y1="330.603" x2="234.216" y2="344.632" gradientUnits="userSpaceOnUse">
<stop stop-color="#C29671"/>
<stop offset="1" stop-color="#996437"/>
</linearGradient>
<linearGradient id="paint5_linear_239_2528" x1="260.746" y1="325.555" x2="260.746" y2="344.203" gradientUnits="userSpaceOnUse">
<stop stop-color="#C29671"/>
<stop offset="1" stop-color="#996437"/>
</linearGradient>
<linearGradient id="paint6_linear_239_2528" x1="248.394" y1="129.716" x2="235.779" y2="129.716" gradientUnits="userSpaceOnUse">
<stop stop-color="#FEBBBA"/>
<stop offset="1" stop-color="#FF928E"/>
</linearGradient>
<linearGradient id="paint7_linear_239_2528" x1="174.38" y1="136.908" x2="283.484" y2="199.411" gradientUnits="userSpaceOnUse">
<stop stop-color="#FEBBBA"/>
<stop offset="1" stop-color="#FF928E"/>
</linearGradient>
<linearGradient id="paint8_linear_239_2528" x1="163.54" y1="155.831" x2="272.643" y2="218.334" gradientUnits="userSpaceOnUse">
<stop stop-color="#FEBBBA"/>
<stop offset="1" stop-color="#FF928E"/>
</linearGradient>
<linearGradient id="paint9_linear_239_2528" x1="227.383" y1="129.711" x2="251.897" y2="93.8644" gradientUnits="userSpaceOnUse">
<stop stop-color="#FEBBBA"/>
<stop offset="1" stop-color="#FF928E"/>
</linearGradient>
<linearGradient id="paint10_linear_239_2528" x1="102.564" y1="324.379" x2="69.969" y2="258.689" gradientUnits="userSpaceOnUse">
<stop stop-color="#FF928E"/>
<stop offset="1" stop-color="#FE7062"/>
</linearGradient>
<linearGradient id="paint11_linear_239_2528" x1="52.2664" y1="263.377" x2="50.3303" y2="259.476" gradientUnits="userSpaceOnUse">
<stop stop-color="#FF928E"/>
<stop offset="1" stop-color="#FE7062"/>
</linearGradient>
<linearGradient id="paint12_linear_239_2528" x1="71.1028" y1="228.243" x2="69.7638" y2="225.545" gradientUnits="userSpaceOnUse">
<stop stop-color="#FF928E"/>
<stop offset="1" stop-color="#FE7062"/>
</linearGradient>
<linearGradient id="paint13_linear_239_2528" x1="131.976" y1="278.193" x2="98.3695" y2="210.466" gradientUnits="userSpaceOnUse">
<stop stop-color="#FF928E"/>
<stop offset="1" stop-color="#FE7062"/>
</linearGradient>
<linearGradient id="paint14_linear_239_2528" x1="148.464" y1="278.616" x2="146.551" y2="274.763" gradientUnits="userSpaceOnUse">
<stop stop-color="#FF928E"/>
<stop offset="1" stop-color="#FE7062"/>
</linearGradient>
<linearGradient id="paint15_linear_239_2528" x1="108.518" y1="233.98" x2="81.3144" y2="333.533" gradientUnits="userSpaceOnUse">
<stop stop-color="#FF928E"/>
<stop offset="1" stop-color="#FE7062"/>
</linearGradient>
<linearGradient id="paint16_linear_239_2528" x1="174.371" y1="337.255" x2="173.415" y2="335.328" gradientUnits="userSpaceOnUse">
<stop stop-color="#FF928E"/>
<stop offset="1" stop-color="#FE7062"/>
</linearGradient>
<linearGradient id="paint17_linear_239_2528" x1="154.452" y1="348.258" x2="136.298" y2="311.673" gradientUnits="userSpaceOnUse">
<stop stop-color="#FF928E"/>
<stop offset="1" stop-color="#FE7062"/>
</linearGradient>
<linearGradient id="paint18_linear_239_2528" x1="181.01" y1="313.797" x2="160.103" y2="271.663" gradientUnits="userSpaceOnUse">
<stop stop-color="#FF928E"/>
<stop offset="1" stop-color="#FE7062"/>
</linearGradient>
<linearGradient id="paint19_linear_239_2528" x1="185.333" y1="317.525" x2="183.885" y2="314.607" gradientUnits="userSpaceOnUse">
<stop stop-color="#FF928E"/>
<stop offset="1" stop-color="#FE7062"/>
</linearGradient>
<linearGradient id="paint20_linear_239_2528" x1="163.938" y1="271.291" x2="136.734" y2="362.741" gradientUnits="userSpaceOnUse">
<stop stop-color="#FF928E"/>
<stop offset="1" stop-color="#FE7062"/>
</linearGradient>
</defs>
</svg>
