<svg width="275" height="31" viewBox="0 0 275 31" fill="none" xmlns="http://www.w3.org/2000/svg">
<path d="M0.40625 30V26.25H4.15625V4.6875H0.40625V0.9375H12.5938C15.4297 0.9375 17.6523 1.02734 19.2617 1.20703C20.8789 1.38672 22.1367 1.66797 23.0352 2.05078C23.9414 2.42578 24.7734 2.99219 25.5312 3.75C26.2109 4.42969 26.7227 5.28516 27.0664 6.31641C27.418 7.33984 27.5938 8.4375 27.5938 9.60938C27.5938 13.2578 25.832 15.8281 22.3086 17.3203C23.5977 18.4219 24.4219 20.1484 24.7812 22.5C24.8203 22.75 24.8672 23.0742 24.9219 23.4727C24.9766 23.8633 25.0195 24.168 25.0508 24.3867C25.082 24.5977 25.125 24.8516 25.1797 25.1484C25.2344 25.4375 25.2852 25.6602 25.332 25.8164C25.3789 25.9727 25.4375 26.1289 25.5078 26.2852C25.5781 26.4414 25.6562 26.5547 25.7422 26.625C25.8359 26.6875 25.9375 26.7188 26.0469 26.7188C26.2891 26.7188 26.4961 26.6094 26.668 26.3906C26.8477 26.1719 26.9922 25.8477 27.1016 25.418C27.2109 24.9805 27.293 24.582 27.3477 24.2227C27.4023 23.8633 27.4648 23.3945 27.5352 22.8164C27.5508 22.6758 27.5625 22.5703 27.5703 22.5L30.875 22.8398C30.7969 23.5977 30.7266 24.1875 30.6641 24.6094C30.6094 25.0312 30.5156 25.5547 30.3828 26.1797C30.25 26.8047 30.0977 27.2891 29.9258 27.6328C29.7539 27.9766 29.5156 28.3594 29.2109 28.7812C28.9141 29.1953 28.5664 29.5078 28.168 29.7188C27.7695 29.9219 27.2773 30.0977 26.6914 30.2461C26.1133 30.3945 25.457 30.4688 24.7227 30.4688C24.1914 30.4688 23.7031 30.4453 23.2578 30.3984C22.8125 30.3516 22.3984 30.2734 22.0156 30.1641C21.6406 30.0547 21.2969 29.9336 20.9844 29.8008C20.6719 29.668 20.3789 29.4883 20.1055 29.2617C19.832 29.0352 19.5859 28.8086 19.3672 28.582C19.1562 28.3477 18.9492 28.0547 18.7461 27.7031C18.543 27.3516 18.3633 27.0117 18.207 26.6836C18.0586 26.3477 17.8984 25.9414 17.7266 25.4648C17.5547 24.9805 17.4023 24.5195 17.2695 24.082C17.1367 23.6445 16.9844 23.1172 16.8125 22.5C16.6016 21.75 16.4023 21.1602 16.2148 20.7305C16.0352 20.293 15.8047 19.9141 15.5234 19.5938C15.2422 19.2734 14.9062 19.0547 14.5156 18.9375C14.1328 18.8125 13.6484 18.75 13.0625 18.75H11.6562V26.25H15.4062V30H0.40625ZM11.6562 15H13.5312C17.2812 15 19.1562 13.2812 19.1562 9.84375C19.1562 9.25 19.1133 8.71094 19.0273 8.22656C18.9492 7.74219 18.8008 7.27344 18.582 6.82031C18.3633 6.36719 18.082 5.98828 17.7383 5.68359C17.3945 5.37891 16.9453 5.13672 16.3906 4.95703C15.8359 4.77734 15.1953 4.6875 14.4688 4.6875H11.6562V15ZM39.2891 20.625C39.3594 21.5312 39.5078 22.3398 39.7344 23.0508C39.9609 23.7617 40.2344 24.3438 40.5547 24.7969C40.8828 25.25 41.2617 25.625 41.6914 25.9219C42.1211 26.2109 42.5625 26.418 43.0156 26.543C43.4688 26.6602 43.9531 26.7188 44.4688 26.7188C46.1172 26.7188 47.4023 26.4023 48.3242 25.7695C49.2539 25.1289 49.9961 24.1445 50.5508 22.8164L53.668 23.8945C53.3867 24.6523 53.0273 25.3672 52.5898 26.0391C52.1602 26.7031 51.6406 27.3164 51.0312 27.8789C50.4219 28.4414 49.7422 28.9258 48.9922 29.332C48.25 29.7305 47.4102 30.043 46.4727 30.2695C45.5352 30.4961 44.5469 30.6094 43.5078 30.6094C41.9688 30.6094 40.5117 30.3398 39.1367 29.8008C37.7695 29.2617 36.5781 28.5117 35.5625 27.5508C34.5547 26.582 33.7539 25.3906 33.1602 23.9766C32.5742 22.5625 32.2812 21.0234 32.2812 19.3594C32.2812 17.6953 32.5742 16.1484 33.1602 14.7188C33.7539 13.2891 34.5547 12.0859 35.5625 11.1094C36.5781 10.125 37.7695 9.35547 39.1367 8.80078C40.5117 8.24609 41.9688 7.96875 43.5078 7.96875C45.0469 7.96875 46.5 8.24609 47.8672 8.80078C49.2422 9.35547 50.4336 10.125 51.4414 11.1094C52.457 12.0859 53.2578 13.2891 53.8438 14.7188C54.4375 16.1484 54.7344 17.6953 54.7344 19.3594L54.4414 20.625H39.2891ZM39.3711 16.875H47.6445C47.4414 15.0781 46.9922 13.7695 46.2969 12.9492C45.6016 12.1289 44.6797 11.7188 43.5312 11.7188C42.9609 11.7188 42.4492 11.8125 41.9961 12C41.543 12.1797 41.1367 12.4727 40.7773 12.8789C40.418 13.2773 40.1172 13.8125 39.875 14.4844C39.6406 15.1484 39.4727 15.9453 39.3711 16.875ZM76.7656 15.8789V26.25H79.1094V30H71.8086L70.7656 27.5625C69.9688 28.7031 69.043 29.4844 67.9883 29.9062C66.9414 30.3281 65.4766 30.5391 63.5938 30.5391C62.6172 30.5391 61.707 30.3672 60.8633 30.0234C60.0273 29.6875 59.3125 29.2266 58.7188 28.6406C58.1328 28.0547 57.6719 27.3516 57.3359 26.5312C57.0078 25.7109 56.8438 24.832 56.8438 23.8945C56.8438 22.2773 57.4766 20.9375 58.7422 19.875C60.0078 18.8047 61.625 18.2695 63.5938 18.2695C65.1797 18.2695 66.4922 18.4219 67.5312 18.7266C68.5703 19.0234 69.4609 19.5 70.2031 20.1562V15.1875C70.2031 14.4844 70.1055 13.8984 69.9102 13.4297C69.7227 12.9531 69.4375 12.5898 69.0547 12.3398C68.6719 12.082 68.2422 11.9023 67.7656 11.8008C67.2891 11.6992 66.7188 11.6484 66.0547 11.6484C65.5234 11.6484 65.043 11.7617 64.6133 11.9883C64.8555 12.4961 64.9766 13.0312 64.9766 13.5938C64.9766 14.6328 64.6094 15.5195 63.875 16.2539C63.1484 16.9805 62.2656 17.3438 61.2266 17.3438C60.1875 17.3438 59.3008 16.9805 58.5664 16.2539C57.8398 15.5195 57.4766 14.6328 57.4766 13.5938C57.4766 13.0625 57.5781 12.5625 57.7812 12.0938C57.9922 11.625 58.2812 11.2148 58.6484 10.8633C58.9609 10.5352 59.2852 10.2422 59.6211 9.98438C59.957 9.71875 60.3789 9.45703 60.8867 9.19922C61.4023 8.93359 61.9609 8.71484 62.5625 8.54297C63.1641 8.37109 63.8828 8.23438 64.7188 8.13281C65.5625 8.02344 66.4844 7.96875 67.4844 7.96875C68.7812 7.96875 70 8.16016 71.1406 8.54297C72.2812 8.92578 73.2656 9.45703 74.0938 10.1367C74.9219 10.8164 75.5742 11.6523 76.0508 12.6445C76.5273 13.6367 76.7656 14.7148 76.7656 15.8789ZM70.2031 24.7969V23.1797C69.7188 22.7188 69.1719 22.332 68.5625 22.0195C67.9609 21.6992 67.4023 21.5391 66.8867 21.5391C65.7773 21.5391 64.9961 21.7266 64.543 22.1016C64.0898 22.4688 63.8633 23.0664 63.8633 23.8945C63.8633 24.8867 64.0586 25.6172 64.4492 26.0859C64.8398 26.5547 65.5664 26.7891 66.6289 26.7891C67.2305 26.7891 67.8555 26.5977 68.5039 26.2148C69.1602 25.8242 69.7266 25.3516 70.2031 24.7969ZM81.2188 0.9375H90.125V26.25H92.4688V30H81.2188V26.25H83.5625V4.6875H81.2188V0.9375ZM94.8125 0.9375H109.812V4.6875H106.062V26.25H109.812V30H94.8125V26.25H98.5625V4.6875H94.8125V0.9375ZM127.625 7.96875C128.719 7.96875 129.676 8.11719 130.496 8.41406C131.316 8.71094 131.988 9.12109 132.512 9.64453C133.035 10.1602 133.457 10.8203 133.777 11.625C134.105 12.4219 134.332 13.2812 134.457 14.2031C134.59 15.1172 134.656 16.1641 134.656 17.3438V26.25H137V30H125.75V26.25H128.094V16.875C128.094 15.6406 127.98 14.6797 127.754 13.9922C127.535 13.3047 127.215 12.832 126.793 12.5742C126.379 12.3164 125.812 12.1875 125.094 12.1875C124.438 12.1875 123.766 12.4648 123.078 13.0195C122.391 13.5742 121.738 14.3477 121.121 15.3398L121.062 26.25H123.406V30H112.156V26.25H114.5V12.1875H112.156V8.4375H119.434L121.074 11.6133C121.363 11.0898 121.695 10.6211 122.07 10.207C122.453 9.78516 122.906 9.40234 123.43 9.05859C123.961 8.70703 124.582 8.4375 125.293 8.25C126.004 8.0625 126.781 7.96875 127.625 7.96875ZM136.531 8.4375H149.656V12.1875H145.801L149.516 20.625C149.992 21.7344 150.336 22.6719 150.547 23.4375C150.758 22.6719 151.102 21.7344 151.578 20.625L155.281 12.1875H152V8.4375H161.844V12.1875H159.359L151.531 30H146.562L138.734 12.1875H136.531V8.4375ZM170.023 20.625C170.094 21.5312 170.242 22.3398 170.469 23.0508C170.695 23.7617 170.969 24.3438 171.289 24.7969C171.617 25.25 171.996 25.625 172.426 25.9219C172.855 26.2109 173.297 26.418 173.75 26.543C174.203 26.6602 174.688 26.7188 175.203 26.7188C176.852 26.7188 178.137 26.4023 179.059 25.7695C179.988 25.1289 180.73 24.1445 181.285 22.8164L184.402 23.8945C184.121 24.6523 183.762 25.3672 183.324 26.0391C182.895 26.7031 182.375 27.3164 181.766 27.8789C181.156 28.4414 180.477 28.9258 179.727 29.332C178.984 29.7305 178.145 30.043 177.207 30.2695C176.27 30.4961 175.281 30.6094 174.242 30.6094C172.703 30.6094 171.246 30.3398 169.871 29.8008C168.504 29.2617 167.312 28.5117 166.297 27.5508C165.289 26.582 164.488 25.3906 163.895 23.9766C163.309 22.5625 163.016 21.0234 163.016 19.3594C163.016 17.6953 163.309 16.1484 163.895 14.7188C164.488 13.2891 165.289 12.0859 166.297 11.1094C167.312 10.125 168.504 9.35547 169.871 8.80078C171.246 8.24609 172.703 7.96875 174.242 7.96875C175.781 7.96875 177.234 8.24609 178.602 8.80078C179.977 9.35547 181.168 10.125 182.176 11.1094C183.191 12.0859 183.992 13.2891 184.578 14.7188C185.172 16.1484 185.469 17.6953 185.469 19.3594L185.176 20.625H170.023ZM170.105 16.875H178.379C178.176 15.0781 177.727 13.7695 177.031 12.9492C176.336 12.1289 175.414 11.7188 174.266 11.7188C173.695 11.7188 173.184 11.8125 172.73 12C172.277 12.1797 171.871 12.4727 171.512 12.8789C171.152 13.2773 170.852 13.8125 170.609 14.4844C170.375 15.1484 170.207 15.9453 170.105 16.875ZM194.234 26.2617C194.68 26.5664 195.352 26.7188 196.25 26.7188C197.055 26.7188 197.707 26.6719 198.207 26.5781C198.715 26.4844 199.098 26.332 199.355 26.1211C199.613 25.9023 199.785 25.6641 199.871 25.4062C199.957 25.1406 200 24.7969 200 24.375C200 23.875 199.867 23.4453 199.602 23.0859C199.336 22.7266 198.977 22.4375 198.523 22.2188C198.07 22 197.551 21.8086 196.965 21.6445C196.379 21.4727 195.762 21.3125 195.113 21.1641C194.465 21.0078 193.816 20.8398 193.168 20.6602C192.52 20.4727 191.902 20.2305 191.316 19.9336C190.73 19.6289 190.211 19.2734 189.758 18.8672C189.305 18.4531 188.945 17.918 188.68 17.2617C188.414 16.6055 188.281 15.8516 188.281 15C188.281 14.2188 188.375 13.5078 188.562 12.8672C188.75 12.2266 189 11.6836 189.312 11.2383C189.625 10.7852 190.02 10.3906 190.496 10.0547C190.973 9.71875 191.469 9.44922 191.984 9.24609C192.508 9.04297 193.094 8.87891 193.742 8.75391C194.398 8.62891 195.031 8.54688 195.641 8.50781C196.25 8.46094 196.914 8.4375 197.633 8.4375C199.195 8.4375 200.559 8.63672 201.723 9.03516C202.895 9.43359 203.816 9.96875 204.488 10.6406C204.848 10.9453 205.125 11.3164 205.32 11.7539C205.523 12.1836 205.625 12.6406 205.625 13.125C205.625 14.0312 205.305 14.8047 204.664 15.4453C204.023 16.0859 203.25 16.4062 202.344 16.4062C201.438 16.4062 200.664 16.0859 200.023 15.4453C199.383 14.8047 199.062 14.0312 199.062 13.125C199.062 12.7969 199.109 12.4805 199.203 12.1758C198.758 11.8711 198.086 11.7188 197.188 11.7188C196.086 11.7188 195.262 11.8516 194.715 12.1172C194.176 12.3828 193.906 12.875 193.906 13.5938C193.906 14.0469 194.02 14.4492 194.246 14.8008C194.473 15.1445 194.781 15.4297 195.172 15.6562C195.562 15.875 196.016 16.0859 196.531 16.2891C197.055 16.4844 197.609 16.6523 198.195 16.793C198.781 16.9258 199.383 17.0898 200 17.2852C200.617 17.4805 201.219 17.6797 201.805 17.8828C202.391 18.0859 202.941 18.3555 203.457 18.6914C203.98 19.0195 204.438 19.3906 204.828 19.8047C205.219 20.2188 205.527 20.7383 205.754 21.3633C205.98 21.9805 206.094 22.6719 206.094 23.4375C206.094 24.5312 205.91 25.4961 205.543 26.332C205.184 27.1602 204.699 27.832 204.09 28.3477C203.488 28.8633 202.738 29.2852 201.84 29.6133C200.941 29.9336 200.008 30.1562 199.039 30.2812C198.07 30.4062 196.992 30.4688 195.805 30.4688C193.406 30.4688 191.473 30.0117 190.004 29.0977C188.543 28.1836 187.812 26.9219 187.812 25.3125C187.812 24.4062 188.133 23.6328 188.773 22.9922C189.414 22.3516 190.188 22.0312 191.094 22.0312C192 22.0312 192.773 22.3516 193.414 22.9922C194.055 23.6328 194.375 24.4062 194.375 25.3125C194.375 25.6406 194.328 25.957 194.234 26.2617ZM215 3.75H217.344V8.4375H223.906V12.1875H217.344V24.375C217.344 24.9062 217.492 25.3516 217.789 25.7109C218.094 26.0703 218.57 26.25 219.219 26.25C219.945 26.25 220.562 26.0117 221.07 25.5352C221.578 25.0508 221.898 24.3516 222.031 23.4375L224.844 23.9062C224.727 24.8203 224.5 25.668 224.164 26.4492C223.836 27.2227 223.406 27.9141 222.875 28.5234C222.344 29.125 221.684 29.6016 220.895 29.9531C220.113 30.2969 219.242 30.4688 218.281 30.4688C215.945 30.4688 214.109 29.9258 212.773 28.8398C211.445 27.7461 210.781 26.2578 210.781 24.375V12.1875H208.438V8.4375H208.906C210.109 8.4375 211.172 8.09375 212.094 7.40625C213.016 6.71875 213.984 5.5 215 3.75ZM233.809 8.84766C235.184 8.30859 236.641 8.03906 238.18 8.03906C239.719 8.03906 241.172 8.30859 242.539 8.84766C243.914 9.38672 245.109 10.1406 246.125 11.1094C247.141 12.0703 247.941 13.2578 248.527 14.6719C249.121 16.0859 249.418 17.625 249.418 19.2891C249.418 20.9531 249.121 22.4922 248.527 23.9062C247.941 25.3203 247.141 26.5117 246.125 27.4805C245.109 28.4414 243.914 29.1914 242.539 29.7305C241.172 30.2695 239.719 30.5391 238.18 30.5391C236.641 30.5391 235.184 30.2695 233.809 29.7305C232.441 29.1914 231.25 28.4414 230.234 27.4805C229.227 26.5117 228.426 25.3203 227.832 23.9062C227.246 22.4922 226.953 20.9531 226.953 19.2891C226.953 17.625 227.246 16.0859 227.832 14.6719C228.426 13.2578 229.227 12.0703 230.234 11.1094C231.25 10.1406 232.441 9.38672 233.809 8.84766ZM238.18 11.7891C237.633 11.7891 237.145 11.8672 236.715 12.0234C236.285 12.1797 235.891 12.4375 235.531 12.7969C235.172 13.1562 234.875 13.6211 234.641 14.1914C234.414 14.7617 234.234 15.4727 234.102 16.3242C233.977 17.1758 233.914 18.1641 233.914 19.2891C233.914 20.4141 233.977 21.4023 234.102 22.2539C234.234 23.1055 234.414 23.8164 234.641 24.3867C234.875 24.957 235.172 25.4219 235.531 25.7812C235.891 26.1406 236.285 26.3984 236.715 26.5547C237.145 26.7109 237.633 26.7891 238.18 26.7891C238.867 26.7891 239.465 26.6602 239.973 26.4023C240.48 26.1367 240.922 25.7148 241.297 25.1367C241.68 24.5586 241.965 23.7812 242.152 22.8047C242.348 21.8281 242.445 20.6562 242.445 19.2891C242.445 17.9219 242.348 16.75 242.152 15.7734C241.965 14.7969 241.68 14.0195 241.297 13.4414C240.922 12.8633 240.48 12.4453 239.973 12.1875C239.465 11.9219 238.867 11.7891 238.18 11.7891ZM258.605 8.84766C259.98 8.30859 261.438 8.03906 262.977 8.03906C264.516 8.03906 265.969 8.30859 267.336 8.84766C268.711 9.38672 269.906 10.1406 270.922 11.1094C271.938 12.0703 272.738 13.2578 273.324 14.6719C273.918 16.0859 274.215 17.625 274.215 19.2891C274.215 20.9531 273.918 22.4922 273.324 23.9062C272.738 25.3203 271.938 26.5117 270.922 27.4805C269.906 28.4414 268.711 29.1914 267.336 29.7305C265.969 30.2695 264.516 30.5391 262.977 30.5391C261.438 30.5391 259.98 30.2695 258.605 29.7305C257.238 29.1914 256.047 28.4414 255.031 27.4805C254.023 26.5117 253.223 25.3203 252.629 23.9062C252.043 22.4922 251.75 20.9531 251.75 19.2891C251.75 17.625 252.043 16.0859 252.629 14.6719C253.223 13.2578 254.023 12.0703 255.031 11.1094C256.047 10.1406 257.238 9.38672 258.605 8.84766ZM262.977 11.7891C262.43 11.7891 261.941 11.8672 261.512 12.0234C261.082 12.1797 260.688 12.4375 260.328 12.7969C259.969 13.1562 259.672 13.6211 259.438 14.1914C259.211 14.7617 259.031 15.4727 258.898 16.3242C258.773 17.1758 258.711 18.1641 258.711 19.2891C258.711 20.4141 258.773 21.4023 258.898 22.2539C259.031 23.1055 259.211 23.8164 259.438 24.3867C259.672 24.957 259.969 25.4219 260.328 25.7812C260.688 26.1406 261.082 26.3984 261.512 26.5547C261.941 26.7109 262.43 26.7891 262.977 26.7891C263.664 26.7891 264.262 26.6602 264.77 26.4023C265.277 26.1367 265.719 25.7148 266.094 25.1367C266.477 24.5586 266.762 23.7812 266.949 22.8047C267.145 21.8281 267.242 20.6562 267.242 19.2891C267.242 17.9219 267.145 16.75 266.949 15.7734C266.762 14.7969 266.477 14.0195 266.094 13.4414C265.719 12.8633 265.277 12.4453 264.77 12.1875C264.262 11.9219 263.664 11.7891 262.977 11.7891Z" fill="white"/>
</svg>
