<svg width="16" height="17" viewBox="0 0 16 17" fill="none" xmlns="http://www.w3.org/2000/svg">
<path d="M7.99978 7.3889C8.61089 7.3889 9.11089 6.8889 9.11089 6.27779V4.05557C9.11089 3.44446 8.61089 2.94446 7.99978 2.94446C7.38867 2.94446 6.88867 3.44446 6.88867 4.05557V6.27779C6.88867 6.8889 7.38867 7.3889 7.99978 7.3889Z" fill="#EBF0FA"/>
<path d="M11.9443 4.55557C11.7777 4.3889 11.611 4.33334 11.3332 4.33334C10.8888 4.33334 10.4999 4.72223 10.4999 5.16668C10.4999 5.3889 10.611 5.61112 10.7221 5.77779C11.4443 6.50001 11.8332 7.44445 11.8332 8.50001C11.8332 10.6667 10.111 12.3889 7.94434 12.3889C5.77767 12.3889 4.05545 10.6667 4.05545 8.50001C4.05545 7.44445 4.49989 6.44445 5.22211 5.77779C5.38878 5.61112 5.49989 5.3889 5.49989 5.16668C5.49989 4.72223 5.111 4.33334 4.66656 4.33334C4.44434 4.33334 4.22211 4.44445 4.05545 4.55557C3.05545 5.55557 2.44434 6.94445 2.44434 8.50001C2.44434 11.5556 4.94434 14.0556 7.99989 14.0556C11.0554 14.0556 13.5554 11.5556 13.5554 8.50001C13.5554 6.94445 12.9443 5.55557 11.9443 4.55557Z" fill="#EBF0FA"/>
</svg>
