<svg width="16" height="16" viewBox="0 0 16 16" fill="none" xmlns="http://www.w3.org/2000/svg">
<g clip-path="url(#clip0_952_708)">
<path d="M4.00001 13.7681C3.71016 13.7681 3.47827 13.7102 3.18842 13.6522C3.0145 13.5942 2.84059 13.4783 2.72465 13.3623L2.66668 13.3044C2.60871 13.2464 2.55073 13.1304 2.55073 13.0725C2.55073 12.9565 2.60871 12.8986 2.72465 12.8406C3.18842 12.6087 3.59421 12.2029 3.8261 11.7391C3.88407 11.6812 3.94204 11.6232 3.94204 11.5652C2.31885 10.5797 1.33334 9.0145 1.33334 7.33334C1.33334 4.43479 4.34784 2.00001 8.00001 2.00001C11.6522 2.00001 14.6667 4.43479 14.6667 7.33334C14.6667 10.2319 11.6522 12.6667 8.00001 12.6667C7.65218 12.6667 7.24639 12.6667 6.89856 12.6087C6.029 13.3623 4.98552 13.7681 4.00001 13.7681Z" fill="#EBF0FA"/>
</g>
<defs>
<clipPath id="clip0_952_708">
<rect width="16" height="16" fill="white"/>
</clipPath>
</defs>
</svg>
