<svg width="16" height="16" viewBox="0 0 16 16" fill="none" xmlns="http://www.w3.org/2000/svg">
<g clip-path="url(#clip0_952_905)">
<path d="M14.3333 5.97117V13.4712C14.3333 13.7364 14.228 13.9907 14.0405 14.1783C13.8529 14.3658 13.5986 14.4712 13.3333 14.4712H2.33334C2.06813 14.4712 1.81377 14.3658 1.62624 14.1783C1.4387 13.9907 1.33334 13.7364 1.33334 13.4712V5.97117C1.33334 5.70596 1.4387 5.4516 1.62624 5.26407C1.81377 5.07653 2.06813 4.97117 2.33334 4.97117H6.62709L4.47709 2.82742C4.39736 2.73027 4.35662 2.60694 4.36278 2.48142C4.36895 2.35589 4.42158 2.23714 4.51045 2.14828C4.59932 2.05941 4.71806 2.00677 4.84359 2.00061C4.96911 1.99444 5.09245 2.03519 5.18959 2.11492L7.83334 4.76492L10.4771 2.11492C10.5742 2.03519 10.6976 1.99444 10.8231 2.00061C10.9486 2.00677 11.0674 2.05941 11.1562 2.14828C11.2451 2.23714 11.2977 2.35589 11.3039 2.48142C11.3101 2.60694 11.2693 2.73027 11.1896 2.82742L9.03959 4.97117H13.3333C13.5986 4.97117 13.8529 5.07653 14.0405 5.26407C14.228 5.4516 14.3333 5.70596 14.3333 5.97117Z" fill="#EBF0FA"/>
</g>
<defs>
<clipPath id="clip0_952_905">
<rect width="16" height="16" fill="white"/>
</clipPath>
</defs>
</svg>
