<svg width="21" height="20" viewBox="0 0 21 20" fill="none" xmlns="http://www.w3.org/2000/svg">
<g clip-path="url(#clip0_146_1255)">
<path d="M10.3003 18.125C10.4729 18.125 10.6128 17.9851 10.6128 17.8125C10.6128 17.6399 10.4729 17.5 10.3003 17.5C10.1277 17.5 9.98779 17.6399 9.98779 17.8125C9.98779 17.9851 10.1277 18.125 10.3003 18.125Z" fill="#C4C4C4"/>
<path d="M13.6222 14.1813C15.0488 13.4378 16.1848 12.2371 16.8482 10.7715C17.5116 9.30585 17.6642 7.66004 17.2814 6.09745C16.8986 4.53487 16.0027 3.14588 14.737 2.1528C13.4713 1.15973 11.9091 0.619995 10.3003 0.619995C8.69151 0.619995 7.12925 1.15973 5.86356 2.1528C4.59787 3.14588 3.70194 4.53487 3.31918 6.09745C2.93642 7.66004 3.08897 9.30585 3.75239 10.7715C4.41582 12.2371 5.55177 13.4378 6.97842 14.1813C2.95967 14.4813 0.925293 15.3344 0.925293 16.7188C0.925293 18.9063 6.02217 19.375 10.3003 19.375C14.5784 19.375 19.6753 18.9157 19.6753 16.7188C19.6753 15.3344 17.6409 14.4813 13.6222 14.1813ZM4.98779 7.81254C4.98779 6.76183 5.29937 5.73471 5.88311 4.86108C6.46686 3.98744 7.29655 3.30652 8.26729 2.90443C9.23802 2.50234 10.3062 2.39714 11.3367 2.60212C12.3672 2.80711 13.3138 3.31307 14.0568 4.05604C14.7998 4.79901 15.3057 5.7456 15.5107 6.77613C15.7157 7.80665 15.6105 8.87482 15.2084 9.84555C14.8063 10.8163 14.1254 11.646 13.2518 12.2297C12.3781 12.8135 11.351 13.125 10.3003 13.125C8.89133 13.125 7.54008 12.5653 6.54379 11.569C5.5475 10.5728 4.98779 9.22151 4.98779 7.81254ZM10.3003 18.75C4.90342 18.75 1.55029 17.9719 1.55029 16.7188C1.55029 15.6938 3.79092 14.9844 7.69717 14.7594L8.30342 15.3844C6.34092 15.4782 3.73779 15.8 3.73779 16.7188C3.73779 17.7594 7.05654 18.0313 9.05029 18.1032C9.13317 18.1032 9.21266 18.0702 9.27126 18.0116C9.32987 17.953 9.36279 17.8735 9.36279 17.7907C9.36279 17.7078 9.32987 17.6283 9.27126 17.5697C9.21266 17.5111 9.13317 17.4782 9.05029 17.4782C6.05654 17.3719 4.67529 16.9407 4.39092 16.7188C4.66592 16.5 6.01279 16.0938 8.89404 15.9657L9.67529 16.75C9.84348 16.8984 10.0604 16.9796 10.2847 16.9782C10.5151 16.9754 10.7369 16.89 10.9097 16.7375L11.6784 15.9657C14.5815 16.0813 15.9253 16.5 16.2034 16.7188C15.9253 16.9407 14.5378 17.3719 11.544 17.4782C11.4612 17.4782 11.3817 17.5111 11.3231 17.5697C11.2645 17.6283 11.2315 17.7078 11.2315 17.7907C11.2315 17.8735 11.2645 17.953 11.3231 18.0116C11.3817 18.0702 11.4612 18.1032 11.544 18.1032C13.5222 18.0313 16.8565 17.7594 16.8565 16.7188C16.8565 15.8 14.2534 15.4688 12.2909 15.3688L12.8972 14.7438C16.8097 15 19.0503 15.6938 19.0503 16.7188C19.0503 17.9719 15.6972 18.75 10.3003 18.75Z" fill="#C4C4C4"/>
<path d="M10.9253 3.90625H8.73779C8.48915 3.90625 8.2507 4.00502 8.07488 4.18084C7.89906 4.35665 7.80029 4.59511 7.80029 4.84375V10.7812C7.80029 11.0299 7.89906 11.2683 8.07488 11.4442C8.2507 11.62 8.48915 11.7188 8.73779 11.7188C8.98643 11.7188 9.22489 11.62 9.40071 11.4442C9.57652 11.2683 9.67529 11.0299 9.67529 10.7812V8.90625H10.9253C11.5883 8.90625 12.2242 8.64286 12.6931 8.17402C13.1619 7.70518 13.4253 7.06929 13.4253 6.40625C13.4253 5.74321 13.1619 5.10732 12.6931 4.63848C12.2242 4.16964 11.5883 3.90625 10.9253 3.90625ZM10.9253 7.03125H9.67529V5.78125H10.9253C11.0911 5.78125 11.25 5.8471 11.3672 5.96431C11.4844 6.08152 11.5503 6.24049 11.5503 6.40625C11.5503 6.57201 11.4844 6.73098 11.3672 6.84819C11.25 6.9654 11.0911 7.03125 10.9253 7.03125Z" fill="#C4C4C4"/>
</g>
<defs>
<clipPath id="clip0_146_1255">
<rect width="20" height="20" fill="white" transform="translate(0.300293)"/>
</clipPath>
</defs>
</svg>
