<svg width="16" height="16" viewBox="0 0 16 16" fill="none" xmlns="http://www.w3.org/2000/svg">
<path d="M14.5714 12.2143C14.5714 12.375 14.5417 12.5848 14.4821 12.8437C14.4226 13.1027 14.3601 13.3065 14.2946 13.4553C14.1696 13.753 13.8065 14.0684 13.2054 14.4018C12.6458 14.7053 12.0923 14.8571 11.5446 14.8571C11.3839 14.8571 11.2277 14.8467 11.0759 14.8259C10.9241 14.8051 10.753 14.7678 10.5625 14.7143C10.372 14.6607 10.2307 14.6176 10.1384 14.5848C10.0461 14.5521 9.88095 14.4911 9.64286 14.4018C9.40476 14.3125 9.25893 14.2589 9.20536 14.2411C8.62202 14.0327 8.10119 13.7857 7.64286 13.5C6.88095 13.0298 6.09375 12.3884 5.28125 11.5759C4.46875 10.7634 3.82738 9.97618 3.35714 9.21428C3.07143 8.75594 2.8244 8.23511 2.61607 7.65178C2.59821 7.59821 2.54464 7.45237 2.45536 7.21428C2.36607 6.97618 2.30506 6.811 2.27232 6.71874C2.23958 6.62648 2.19643 6.48511 2.14286 6.29463C2.08929 6.10416 2.05208 5.93303 2.03125 5.78124C2.01042 5.62946 2 5.47321 2 5.31249C2 4.76487 2.15179 4.2113 2.45536 3.65178C2.78869 3.05059 3.10417 2.68749 3.40179 2.56249C3.5506 2.49702 3.75446 2.43452 4.01339 2.37499C4.27232 2.31547 4.48214 2.28571 4.64286 2.28571C4.72619 2.28571 4.78869 2.29463 4.83036 2.31249C4.9375 2.34821 5.09524 2.5744 5.30357 2.99106C5.36905 3.10416 5.45833 3.26487 5.57143 3.47321C5.68452 3.68154 5.78869 3.87053 5.88393 4.04017C5.97917 4.20981 6.07143 4.36904 6.16071 4.51785C6.17857 4.54166 6.23066 4.61606 6.31696 4.74106C6.40327 4.86606 6.46726 4.97172 6.50893 5.05803C6.5506 5.14434 6.57143 5.22916 6.57143 5.31249C6.57143 5.43154 6.48661 5.58035 6.31696 5.75892C6.14732 5.93749 5.9628 6.10118 5.76339 6.24999C5.56399 6.3988 5.37946 6.55654 5.20982 6.72321C5.04018 6.88987 4.95536 7.02678 4.95536 7.13392C4.95536 7.18749 4.97024 7.25446 5 7.33481C5.02976 7.41517 5.05506 7.47618 5.07589 7.51785C5.09673 7.55951 5.13839 7.63094 5.20089 7.73213C5.26339 7.83332 5.29762 7.88987 5.30357 7.90178C5.75595 8.71725 6.27381 9.41666 6.85714 9.99999C7.44048 10.5833 8.13988 11.1012 8.95536 11.5536C8.96726 11.5595 9.02381 11.5937 9.125 11.6562C9.22619 11.7187 9.29762 11.7604 9.33929 11.7812C9.38095 11.8021 9.44196 11.8274 9.52232 11.8571C9.60268 11.8869 9.66964 11.9018 9.72321 11.9018C9.83036 11.9018 9.96726 11.817 10.1339 11.6473C10.3006 11.4777 10.4583 11.2931 10.6071 11.0937C10.756 10.8943 10.9196 10.7098 11.0982 10.5402C11.2768 10.3705 11.4256 10.2857 11.5446 10.2857C11.628 10.2857 11.7128 10.3065 11.7991 10.3482C11.8854 10.3899 11.9911 10.4539 12.1161 10.5402C12.2411 10.6265 12.3155 10.6786 12.3393 10.6964C12.4881 10.7857 12.6473 10.878 12.817 10.9732C12.9866 11.0684 13.1756 11.1726 13.3839 11.2857C13.5923 11.3988 13.753 11.4881 13.8661 11.5536C14.2827 11.7619 14.5089 11.9196 14.5446 12.0268C14.5625 12.0684 14.5714 12.1309 14.5714 12.2143Z" fill="#C4C4C4"/>
</svg>
