<svg width="16" height="16" viewBox="0 0 16 16" fill="none" xmlns="http://www.w3.org/2000/svg">
<g clip-path="url(#clip0_952_248)">
<path d="M8.00001 2C8.00001 2 3.87601 5.56 1.57134 7.488C1.43601 7.61067 1.33334 7.78933 1.33334 8C1.33334 8.36867 1.63134 8.66667 2.00001 8.66667H3.33334V13.3333C3.33334 13.702 3.63134 14 4.00001 14H6.00001C6.36868 14 6.66668 13.7013 6.66668 13.3333V10.6667H9.33334V13.3333C9.33334 13.7013 9.63134 14 10 14H12C12.3687 14 12.6667 13.702 12.6667 13.3333V8.66667H14C14.3687 8.66667 14.6667 8.36867 14.6667 8C14.6667 7.78933 14.564 7.61067 14.4113 7.488C12.1227 5.56 8.00001 2 8.00001 2Z" fill="#EBF0FA"/>
</g>
<defs>
<clipPath id="clip0_952_248">
<rect width="16" height="16" fill="white"/>
</clipPath>
</defs>
</svg>
