<svg width="172" height="20" viewBox="0 0 172 20" fill="none" xmlns="http://www.w3.org/2000/svg">
<path d="M0.878906 19V16.6562H3.22266V3.17969H0.878906V0.835938H8.49609C10.2686 0.835938 11.6577 0.89209 12.6636 1.00439C13.6743 1.1167 14.4604 1.29248 15.022 1.53174C15.5884 1.76611 16.1084 2.12012 16.582 2.59375C17.0068 3.01855 17.3267 3.55322 17.5415 4.19775C17.7612 4.8374 17.8711 5.52344 17.8711 6.25586C17.8711 8.53613 16.77 10.1426 14.5679 11.0752C15.3735 11.7637 15.8887 12.8428 16.1133 14.3125C16.1377 14.4688 16.167 14.6714 16.2012 14.9204C16.2354 15.1646 16.2622 15.355 16.2817 15.4917C16.3013 15.6235 16.3281 15.7822 16.3623 15.9678C16.3965 16.1484 16.4282 16.2876 16.4575 16.3853C16.4868 16.4829 16.5234 16.5806 16.5674 16.6782C16.6113 16.7759 16.6602 16.8467 16.7139 16.8906C16.7725 16.9297 16.8359 16.9492 16.9043 16.9492C17.0557 16.9492 17.1851 16.8809 17.2925 16.7441C17.4048 16.6074 17.4951 16.4048 17.5635 16.1362C17.6318 15.8628 17.6831 15.6138 17.7173 15.3892C17.7515 15.1646 17.7905 14.8716 17.8345 14.5103C17.8442 14.4224 17.8516 14.3564 17.8564 14.3125L19.9219 14.5249C19.873 14.9985 19.8291 15.3672 19.79 15.6309C19.7559 15.8945 19.6973 16.2217 19.6143 16.6123C19.5312 17.0029 19.436 17.3057 19.3286 17.5205C19.2212 17.7354 19.0723 17.9746 18.8818 18.2383C18.6963 18.4971 18.479 18.6924 18.23 18.8242C17.981 18.9512 17.6733 19.061 17.3071 19.1538C16.9458 19.2466 16.5356 19.293 16.0767 19.293C15.7446 19.293 15.4395 19.2783 15.1611 19.249C14.8828 19.2197 14.624 19.1709 14.3848 19.1025C14.1504 19.0342 13.9355 18.9585 13.7402 18.8755C13.5449 18.7925 13.3618 18.6802 13.1909 18.5386C13.02 18.397 12.8662 18.2554 12.7295 18.1138C12.5977 17.9673 12.4683 17.7842 12.3413 17.5645C12.2144 17.3447 12.1021 17.1323 12.0044 16.9272C11.9116 16.7173 11.8115 16.4634 11.7041 16.1655C11.5967 15.8628 11.5015 15.5747 11.4185 15.3013C11.3354 15.0278 11.2402 14.6982 11.1328 14.3125C11.001 13.8438 10.8765 13.4751 10.7593 13.2065C10.647 12.9331 10.5029 12.6963 10.3271 12.4961C10.1514 12.2959 9.94141 12.1592 9.69727 12.0859C9.45801 12.0078 9.15527 11.9688 8.78906 11.9688H7.91016V16.6562H10.2539V19H0.878906ZM7.91016 9.625H9.08203C11.4258 9.625 12.5977 8.55078 12.5977 6.40234C12.5977 6.03125 12.5708 5.69434 12.5171 5.3916C12.4683 5.08887 12.3755 4.7959 12.2388 4.5127C12.1021 4.22949 11.9263 3.99268 11.7114 3.80225C11.4966 3.61182 11.2158 3.46045 10.8691 3.34814C10.5225 3.23584 10.1221 3.17969 9.66797 3.17969H7.91016V9.625ZM25.1807 13.1406C25.2246 13.707 25.3174 14.2124 25.459 14.6567C25.6006 15.1011 25.7715 15.4648 25.9717 15.748C26.1768 16.0312 26.4136 16.2656 26.6821 16.4512C26.9507 16.6318 27.2266 16.7612 27.5098 16.8394C27.793 16.9126 28.0957 16.9492 28.418 16.9492C29.4482 16.9492 30.2515 16.7515 30.8276 16.356C31.4087 15.9556 31.8726 15.3403 32.2192 14.5103L34.1675 15.1841C33.9917 15.6577 33.7671 16.1045 33.4937 16.5244C33.2251 16.9395 32.9004 17.3228 32.5195 17.6743C32.1387 18.0259 31.7139 18.3286 31.2451 18.5825C30.7812 18.8315 30.2563 19.0269 29.6704 19.1685C29.0845 19.3101 28.4668 19.3809 27.8174 19.3809C26.8555 19.3809 25.9448 19.2124 25.0854 18.8755C24.231 18.5386 23.4863 18.0698 22.8516 17.4692C22.2217 16.8638 21.7212 16.1191 21.3501 15.2354C20.9839 14.3516 20.8008 13.3896 20.8008 12.3496C20.8008 11.3096 20.9839 10.3428 21.3501 9.44922C21.7212 8.55566 22.2217 7.80371 22.8516 7.19336C23.4863 6.57812 24.231 6.09717 25.0854 5.75049C25.9448 5.40381 26.8555 5.23047 27.8174 5.23047C28.7793 5.23047 29.6875 5.40381 30.542 5.75049C31.4014 6.09717 32.146 6.57812 32.7759 7.19336C33.4106 7.80371 33.9111 8.55566 34.2773 9.44922C34.6484 10.3428 34.834 11.3096 34.834 12.3496L34.6509 13.1406H25.1807ZM25.2319 10.7969H30.4028C30.2759 9.67383 29.9951 8.85596 29.5605 8.34326C29.126 7.83057 28.5498 7.57422 27.832 7.57422C27.4756 7.57422 27.1558 7.63281 26.8726 7.75C26.5894 7.8623 26.3354 8.04541 26.1108 8.29932C25.8862 8.54834 25.6982 8.88281 25.5469 9.30273C25.4004 9.71777 25.2954 10.2158 25.2319 10.7969ZM48.6035 10.1743V16.6562H50.0684V19H45.5054L44.8535 17.4766C44.3555 18.1895 43.7769 18.6777 43.1177 18.9414C42.4634 19.2051 41.5479 19.3369 40.3711 19.3369C39.7607 19.3369 39.1919 19.2295 38.6646 19.0146C38.1421 18.8047 37.6953 18.5166 37.3242 18.1504C36.958 17.7842 36.6699 17.3447 36.46 16.832C36.2549 16.3193 36.1523 15.77 36.1523 15.1841C36.1523 14.1733 36.5479 13.3359 37.3389 12.6719C38.1299 12.0029 39.1406 11.6685 40.3711 11.6685C41.3623 11.6685 42.1826 11.7637 42.832 11.9541C43.4814 12.1396 44.0381 12.4375 44.502 12.8477V9.74219C44.502 9.30273 44.4409 8.93652 44.3188 8.64355C44.2017 8.3457 44.0234 8.11865 43.7842 7.9624C43.5449 7.80127 43.2764 7.68896 42.9785 7.62549C42.6807 7.56201 42.3242 7.53027 41.9092 7.53027C41.5771 7.53027 41.2769 7.60107 41.0083 7.74268C41.1597 8.06006 41.2354 8.39453 41.2354 8.74609C41.2354 9.39551 41.0059 9.94971 40.5469 10.4087C40.0928 10.8628 39.541 11.0898 38.8916 11.0898C38.2422 11.0898 37.688 10.8628 37.229 10.4087C36.7749 9.94971 36.5479 9.39551 36.5479 8.74609C36.5479 8.41406 36.6113 8.10156 36.7383 7.80859C36.8701 7.51562 37.0508 7.25928 37.2803 7.03955C37.4756 6.83447 37.6782 6.65137 37.8882 6.49023C38.0981 6.32422 38.3618 6.16064 38.6792 5.99951C39.0015 5.8335 39.3506 5.69678 39.7266 5.58936C40.1025 5.48193 40.5518 5.39648 41.0742 5.33301C41.6016 5.26465 42.1777 5.23047 42.8027 5.23047C43.6133 5.23047 44.375 5.3501 45.0879 5.58936C45.8008 5.82861 46.416 6.16064 46.9336 6.58545C47.4512 7.01025 47.8589 7.53271 48.1567 8.15283C48.4546 8.77295 48.6035 9.44678 48.6035 10.1743ZM44.502 15.748V14.7373C44.1992 14.4492 43.8574 14.2075 43.4766 14.0122C43.1006 13.812 42.7515 13.7119 42.4292 13.7119C41.7358 13.7119 41.2476 13.8291 40.9644 14.0635C40.6812 14.293 40.5396 14.6665 40.5396 15.1841C40.5396 15.8042 40.6616 16.2607 40.9058 16.5537C41.1499 16.8467 41.604 16.9932 42.2681 16.9932C42.644 16.9932 43.0347 16.8735 43.4399 16.6343C43.8501 16.3901 44.2041 16.0947 44.502 15.748ZM51.3867 0.835938H56.9531V16.6562H58.418V19H51.3867V16.6562H52.8516V3.17969H51.3867V0.835938ZM59.8828 0.835938H69.2578V3.17969H66.9141V16.6562H69.2578V19H59.8828V16.6562H62.2266V3.17969H59.8828V0.835938ZM80.3906 5.23047C81.0742 5.23047 81.6724 5.32324 82.1851 5.50879C82.6978 5.69434 83.1177 5.95068 83.4448 6.27783C83.772 6.6001 84.0356 7.0127 84.2358 7.51562C84.4409 8.01367 84.5825 8.55078 84.6606 9.12695C84.7437 9.69824 84.7852 10.3525 84.7852 11.0898V16.6562H86.25V19H79.2188V16.6562H80.6836V10.7969C80.6836 10.0254 80.6128 9.4248 80.4712 8.99512C80.3345 8.56543 80.1343 8.27002 79.8706 8.10889C79.6118 7.94775 79.2578 7.86719 78.8086 7.86719C78.3984 7.86719 77.9785 8.04053 77.5488 8.38721C77.1191 8.73389 76.7114 9.21729 76.3257 9.8374L76.2891 16.6562H77.7539V19H70.7227V16.6562H72.1875V7.86719H70.7227V5.52344H75.271L76.2964 7.5083C76.4771 7.18115 76.6846 6.88818 76.9189 6.62939C77.1582 6.36572 77.4414 6.12646 77.7686 5.91162C78.1006 5.69189 78.4888 5.52344 78.9331 5.40625C79.3774 5.28906 79.8633 5.23047 80.3906 5.23047ZM85.957 5.52344H94.1602V7.86719H91.7505L94.0723 13.1406C94.3701 13.834 94.585 14.4199 94.7168 14.8984C94.8486 14.4199 95.0635 13.834 95.3613 13.1406L97.6758 7.86719H95.625V5.52344H101.777V7.86719H100.225L95.332 19H92.2266L87.334 7.86719H85.957V5.52344ZM106.89 13.1406C106.934 13.707 107.026 14.2124 107.168 14.6567C107.31 15.1011 107.48 15.4648 107.681 15.748C107.886 16.0312 108.123 16.2656 108.391 16.4512C108.66 16.6318 108.936 16.7612 109.219 16.8394C109.502 16.9126 109.805 16.9492 110.127 16.9492C111.157 16.9492 111.96 16.7515 112.537 16.356C113.118 15.9556 113.582 15.3403 113.928 14.5103L115.876 15.1841C115.701 15.6577 115.476 16.1045 115.203 16.5244C114.934 16.9395 114.609 17.3228 114.229 17.6743C113.848 18.0259 113.423 18.3286 112.954 18.5825C112.49 18.8315 111.965 19.0269 111.379 19.1685C110.793 19.3101 110.176 19.3809 109.526 19.3809C108.564 19.3809 107.654 19.2124 106.794 18.8755C105.94 18.5386 105.195 18.0698 104.561 17.4692C103.931 16.8638 103.43 16.1191 103.059 15.2354C102.693 14.3516 102.51 13.3896 102.51 12.3496C102.51 11.3096 102.693 10.3428 103.059 9.44922C103.43 8.55566 103.931 7.80371 104.561 7.19336C105.195 6.57812 105.94 6.09717 106.794 5.75049C107.654 5.40381 108.564 5.23047 109.526 5.23047C110.488 5.23047 111.396 5.40381 112.251 5.75049C113.11 6.09717 113.855 6.57812 114.485 7.19336C115.12 7.80371 115.62 8.55566 115.986 9.44922C116.357 10.3428 116.543 11.3096 116.543 12.3496L116.36 13.1406H106.89ZM106.941 10.7969H112.112C111.985 9.67383 111.704 8.85596 111.27 8.34326C110.835 7.83057 110.259 7.57422 109.541 7.57422C109.185 7.57422 108.865 7.63281 108.582 7.75C108.298 7.8623 108.044 8.04541 107.82 8.29932C107.595 8.54834 107.407 8.88281 107.256 9.30273C107.109 9.71777 107.004 10.2158 106.941 10.7969ZM122.021 16.6636C122.3 16.854 122.72 16.9492 123.281 16.9492C123.784 16.9492 124.192 16.9199 124.504 16.8613C124.822 16.8027 125.061 16.7075 125.222 16.5757C125.383 16.439 125.491 16.29 125.544 16.1289C125.598 15.9629 125.625 15.748 125.625 15.4844C125.625 15.1719 125.542 14.9033 125.376 14.6787C125.21 14.4541 124.985 14.2734 124.702 14.1367C124.419 14 124.094 13.8804 123.728 13.7778C123.362 13.6704 122.976 13.5703 122.571 13.4775C122.166 13.3799 121.76 13.2749 121.355 13.1626C120.95 13.0454 120.564 12.894 120.198 12.7085C119.832 12.5181 119.507 12.2959 119.224 12.042C118.94 11.7832 118.716 11.4487 118.55 11.0386C118.384 10.6284 118.301 10.1572 118.301 9.625C118.301 9.13672 118.359 8.69238 118.477 8.29199C118.594 7.8916 118.75 7.55225 118.945 7.27393C119.141 6.99072 119.387 6.74414 119.685 6.53418C119.983 6.32422 120.293 6.15576 120.615 6.02881C120.942 5.90186 121.309 5.79932 121.714 5.72119C122.124 5.64307 122.52 5.5918 122.9 5.56738C123.281 5.53809 123.696 5.52344 124.146 5.52344C125.122 5.52344 125.974 5.64795 126.702 5.89697C127.434 6.146 128.01 6.48047 128.43 6.90039C128.655 7.09082 128.828 7.32275 128.95 7.59619C129.077 7.86475 129.141 8.15039 129.141 8.45312C129.141 9.01953 128.94 9.50293 128.54 9.90332C128.14 10.3037 127.656 10.5039 127.09 10.5039C126.523 10.5039 126.04 10.3037 125.64 9.90332C125.239 9.50293 125.039 9.01953 125.039 8.45312C125.039 8.24805 125.068 8.05029 125.127 7.85986C124.849 7.66943 124.429 7.57422 123.867 7.57422C123.179 7.57422 122.664 7.65723 122.322 7.82324C121.985 7.98926 121.816 8.29688 121.816 8.74609C121.816 9.0293 121.887 9.28076 122.029 9.50049C122.17 9.71533 122.363 9.89355 122.607 10.0352C122.852 10.1719 123.135 10.3037 123.457 10.4307C123.784 10.5527 124.131 10.6577 124.497 10.7456C124.863 10.8286 125.239 10.9312 125.625 11.0532C126.011 11.1753 126.387 11.2998 126.753 11.4268C127.119 11.5537 127.463 11.7222 127.786 11.9321C128.113 12.1372 128.398 12.3691 128.643 12.6279C128.887 12.8867 129.08 13.2114 129.221 13.6021C129.363 13.9878 129.434 14.4199 129.434 14.8984C129.434 15.582 129.319 16.1851 129.089 16.7075C128.865 17.2251 128.562 17.645 128.181 17.9673C127.805 18.2896 127.336 18.5532 126.775 18.7583C126.213 18.9585 125.63 19.0977 125.024 19.1758C124.419 19.2539 123.745 19.293 123.003 19.293C121.504 19.293 120.295 19.0073 119.377 18.436C118.464 17.8647 118.008 17.0762 118.008 16.0703C118.008 15.5039 118.208 15.0205 118.608 14.6201C119.009 14.2197 119.492 14.0195 120.059 14.0195C120.625 14.0195 121.108 14.2197 121.509 14.6201C121.909 15.0205 122.109 15.5039 122.109 16.0703C122.109 16.2754 122.08 16.4731 122.021 16.6636ZM135 2.59375H136.465V5.52344H140.566V7.86719H136.465V15.4844C136.465 15.8164 136.558 16.0947 136.743 16.3193C136.934 16.5439 137.231 16.6562 137.637 16.6562C138.091 16.6562 138.477 16.5073 138.794 16.2095C139.111 15.9067 139.312 15.4697 139.395 14.8984L141.152 15.1914C141.079 15.7627 140.938 16.2925 140.728 16.7808C140.522 17.2642 140.254 17.6963 139.922 18.0771C139.59 18.4531 139.177 18.751 138.684 18.9707C138.196 19.1855 137.651 19.293 137.051 19.293C135.591 19.293 134.443 18.9536 133.608 18.2749C132.778 17.5913 132.363 16.6611 132.363 15.4844V7.86719H130.898V5.52344H131.191C131.943 5.52344 132.607 5.30859 133.184 4.87891C133.76 4.44922 134.365 3.6875 135 2.59375ZM146.755 5.77979C147.615 5.44287 148.525 5.27441 149.487 5.27441C150.449 5.27441 151.357 5.44287 152.212 5.77979C153.071 6.1167 153.818 6.58789 154.453 7.19336C155.088 7.79395 155.588 8.53613 155.955 9.41992C156.326 10.3037 156.511 11.2656 156.511 12.3057C156.511 13.3457 156.326 14.3076 155.955 15.1914C155.588 16.0752 155.088 16.8198 154.453 17.4253C153.818 18.0259 153.071 18.4946 152.212 18.8315C151.357 19.1685 150.449 19.3369 149.487 19.3369C148.525 19.3369 147.615 19.1685 146.755 18.8315C145.901 18.4946 145.156 18.0259 144.521 17.4253C143.892 16.8198 143.391 16.0752 143.02 15.1914C142.654 14.3076 142.471 13.3457 142.471 12.3057C142.471 11.2656 142.654 10.3037 143.02 9.41992C143.391 8.53613 143.892 7.79395 144.521 7.19336C145.156 6.58789 145.901 6.1167 146.755 5.77979ZM149.487 7.61816C149.146 7.61816 148.84 7.66699 148.572 7.76465C148.303 7.8623 148.057 8.02344 147.832 8.24805C147.607 8.47266 147.422 8.76318 147.275 9.11963C147.134 9.47607 147.021 9.92041 146.938 10.4526C146.86 10.9849 146.821 11.6025 146.821 12.3057C146.821 13.0088 146.86 13.6265 146.938 14.1587C147.021 14.6909 147.134 15.1353 147.275 15.4917C147.422 15.8481 147.607 16.1387 147.832 16.3633C148.057 16.5879 148.303 16.749 148.572 16.8467C148.84 16.9443 149.146 16.9932 149.487 16.9932C149.917 16.9932 150.291 16.9126 150.608 16.7515C150.925 16.5854 151.201 16.3218 151.436 15.9604C151.675 15.5991 151.853 15.1133 151.97 14.5029C152.092 13.8926 152.153 13.1602 152.153 12.3057C152.153 11.4512 152.092 10.7188 151.97 10.1084C151.853 9.49805 151.675 9.01221 151.436 8.65088C151.201 8.28955 150.925 8.02832 150.608 7.86719C150.291 7.70117 149.917 7.61816 149.487 7.61816ZM162.253 5.77979C163.113 5.44287 164.023 5.27441 164.985 5.27441C165.947 5.27441 166.855 5.44287 167.71 5.77979C168.569 6.1167 169.316 6.58789 169.951 7.19336C170.586 7.79395 171.086 8.53613 171.453 9.41992C171.824 10.3037 172.009 11.2656 172.009 12.3057C172.009 13.3457 171.824 14.3076 171.453 15.1914C171.086 16.0752 170.586 16.8198 169.951 17.4253C169.316 18.0259 168.569 18.4946 167.71 18.8315C166.855 19.1685 165.947 19.3369 164.985 19.3369C164.023 19.3369 163.113 19.1685 162.253 18.8315C161.399 18.4946 160.654 18.0259 160.02 17.4253C159.39 16.8198 158.889 16.0752 158.518 15.1914C158.152 14.3076 157.969 13.3457 157.969 12.3057C157.969 11.2656 158.152 10.3037 158.518 9.41992C158.889 8.53613 159.39 7.79395 160.02 7.19336C160.654 6.58789 161.399 6.1167 162.253 5.77979ZM164.985 7.61816C164.644 7.61816 164.338 7.66699 164.07 7.76465C163.801 7.8623 163.555 8.02344 163.33 8.24805C163.105 8.47266 162.92 8.76318 162.773 9.11963C162.632 9.47607 162.52 9.92041 162.437 10.4526C162.358 10.9849 162.319 11.6025 162.319 12.3057C162.319 13.0088 162.358 13.6265 162.437 14.1587C162.52 14.6909 162.632 15.1353 162.773 15.4917C162.92 15.8481 163.105 16.1387 163.33 16.3633C163.555 16.5879 163.801 16.749 164.07 16.8467C164.338 16.9443 164.644 16.9932 164.985 16.9932C165.415 16.9932 165.789 16.9126 166.106 16.7515C166.423 16.5854 166.699 16.3218 166.934 15.9604C167.173 15.5991 167.351 15.1133 167.468 14.5029C167.59 13.8926 167.651 13.1602 167.651 12.3057C167.651 11.4512 167.59 10.7188 167.468 10.1084C167.351 9.49805 167.173 9.01221 166.934 8.65088C166.699 8.28955 166.423 8.02832 166.106 7.86719C165.789 7.70117 165.415 7.61816 164.985 7.61816Z" fill="#C29671"/>
</svg>
