<svg width="16" height="17" viewBox="0 0 16 17" fill="none" xmlns="http://www.w3.org/2000/svg">
<path d="M12.0752 4.42499L9.72519 4.12499C9.42519 4.09999 9.12519 4.19999 8.92519 4.39999L3.6252 9.7C3.4752 9.85 3.4752 10.1 3.6252 10.25L6.3752 13C6.5252 13.15 6.77519 13.15 6.92519 13L12.2252 7.7C12.4252 7.5 12.5252 7.19999 12.5002 6.89999L12.2252 4.54999C12.2002 4.49999 12.1252 4.42499 12.0752 4.42499ZM10.7752 6.95C10.4752 7.25 9.97519 7.25 9.67519 6.95C9.37519 6.65 9.37519 6.14999 9.67519 5.84999C9.97519 5.54999 10.4752 5.54999 10.7752 5.84999C11.0752 6.17499 11.0752 6.65 10.7752 6.95Z" fill="white"/>
</svg>
