<svg width="24" height="24" viewBox="0 0 24 24" fill="none" xmlns="http://www.w3.org/2000/svg">
<g clip-path="url(#clip0_257_5435)">
<path d="M12.0001 13.5626C12.8631 13.5626 13.5627 12.863 13.5627 12C13.5627 11.137 12.8631 10.4374 12.0001 10.4374C11.1371 10.4374 10.4375 11.137 10.4375 12C10.4375 12.863 11.1371 13.5626 12.0001 13.5626Z" fill="#C4C4C4"/>
<path d="M20.6978 10.4513L18.5134 10.0418C18.3807 9.60001 18.2067 9.17626 17.9914 8.77763L19.2552 6.93001C19.3722 6.75901 19.3482 6.50176 19.2015 6.35551L17.6434 4.79701C17.4968 4.65038 17.2399 4.62676 17.0689 4.74338L15.2209 6.00788C14.8107 5.78663 14.3738 5.60926 13.9185 5.47538L13.5113 3.30263C13.4727 3.09901 13.2743 2.93401 13.0669 2.93401H10.863C10.6557 2.93401 10.4573 3.09901 10.4187 3.30263L10.0073 5.49676C9.57042 5.63026 9.15155 5.80426 8.75705 6.01876L6.9323 4.77038C6.7613 4.65338 6.50405 4.67738 6.3578 4.82401L4.7993 6.38251C4.65267 6.52913 4.62905 6.78601 4.74567 6.95701L6.00192 8.79301C5.79042 9.18751 5.61905 9.60601 5.4878 10.0421L3.3038 10.4513C3.10055 10.4899 2.93555 10.6883 2.93555 10.8956V13.0995C2.93555 13.3069 3.10055 13.5053 3.3038 13.5439L5.4863 13.953C5.61942 14.3985 5.79492 14.826 6.01167 15.2276L4.76967 17.0434C4.65267 17.2144 4.67667 17.4716 4.8233 17.6179L6.38142 19.1764C6.52805 19.323 6.78492 19.3466 6.95592 19.23L8.77092 17.9876C9.1613 18.1988 9.57567 18.3705 10.008 18.5033L10.4194 20.6978C10.458 20.901 10.6564 21.066 10.8638 21.066H13.0677C13.275 21.066 13.4734 20.901 13.512 20.6978L13.9193 18.5243C14.3697 18.3915 14.802 18.2164 15.2085 17.9989L17.0468 19.2566C17.2178 19.3736 17.475 19.3496 17.6213 19.203L19.1794 17.6453C19.326 17.4986 19.3497 17.2418 19.233 17.0708L17.9824 15.243C18.2033 14.8365 18.381 14.4041 18.516 13.953L20.6982 13.5439C20.9014 13.5053 21.0664 13.3069 21.0664 13.0995V10.8956C21.0664 10.6883 20.901 10.4899 20.6978 10.4513ZM12.0008 15.7819C9.9128 15.7819 8.21967 14.0888 8.21967 11.9996C8.21967 9.91201 9.9128 8.21851 12.0008 8.21851C14.0895 8.21851 15.783 9.91201 15.783 11.9996C15.783 14.0888 14.0892 15.7819 12.0008 15.7819Z" fill="#C4C4C4"/>
</g>
<defs>
<clipPath id="clip0_257_5435">
<rect width="24" height="24" fill="white"/>
</clipPath>
</defs>
</svg>
