<svg width="16" height="16" viewBox="0 0 16 16" fill="none" xmlns="http://www.w3.org/2000/svg">
<g clip-path="url(#clip0_952_119)">
<path d="M8 9.04175C8.57534 9.04175 9.04175 8.57534 9.04175 8C9.04175 7.42466 8.57534 6.95825 8 6.95825C7.42466 6.95825 6.95825 7.42466 6.95825 8C6.95825 8.57534 7.42466 9.04175 8 9.04175Z" fill="#EBF0FA"/>
<path d="M13.798 6.9675L12.3418 6.6945C12.2533 6.4 12.1373 6.1175 11.9938 5.85175L12.8363 4.62C12.9143 4.506 12.8983 4.3345 12.8005 4.237L11.7618 3.198C11.664 3.10025 11.4928 3.0845 11.3788 3.16225L10.1468 4.00525C9.87326 3.85775 9.58201 3.7395 9.27851 3.65025L9.00701 2.20175C8.98126 2.066 8.84901 1.956 8.71076 1.956H7.24151C7.10326 1.956 6.97101 2.066 6.94526 2.20175L6.67101 3.6645C6.37976 3.7535 6.10051 3.8695 5.83751 4.0125L4.62101 3.18025C4.50701 3.10225 4.33551 3.11825 4.23801 3.216L3.19901 4.255C3.10126 4.35275 3.08551 4.524 3.16326 4.638L4.00076 5.862C3.85976 6.125 3.74551 6.404 3.65801 6.69475L2.20201 6.9675C2.06651 6.99325 1.95651 7.1255 1.95651 7.26375V8.733C1.95651 8.87125 2.06651 9.0035 2.20201 9.02925L3.65701 9.302C3.74576 9.599 3.86276 9.884 4.00726 10.1518L3.17926 11.3623C3.10126 11.4763 3.11726 11.6478 3.21501 11.7453L4.25376 12.7843C4.35151 12.882 4.52276 12.8978 4.63676 12.82L5.84676 11.9918C6.10701 12.1325 6.38326 12.247 6.67151 12.3355L6.94576 13.7985C6.97151 13.934 7.10376 14.044 7.24201 14.044H8.71126C8.84951 14.044 8.98176 13.934 9.00751 13.7985L9.27901 12.3495C9.57926 12.261 9.86751 12.1443 10.1385 11.9993L11.364 12.8378C11.478 12.9158 11.6495 12.8998 11.747 12.802L12.7858 11.7635C12.8835 11.6658 12.8993 11.4945 12.8215 11.3805L11.9878 10.162C12.135 9.891 12.2535 9.60275 12.3435 9.302L13.7983 9.02925C13.9338 9.0035 14.0438 8.87125 14.0438 8.733V7.26375C14.0438 7.1255 13.9335 6.99325 13.798 6.9675ZM8.00001 10.5213C6.60801 10.5213 5.47926 9.3925 5.47926 7.99975C5.47926 6.608 6.60801 5.479 8.00001 5.479C9.39251 5.479 10.5215 6.608 10.5215 7.99975C10.5215 9.3925 9.39226 10.5213 8.00001 10.5213Z" fill="#EBF0FA"/>
</g>
<defs>
<clipPath id="clip0_952_119">
<rect width="16" height="16" fill="white"/>
</clipPath>
</defs>
</svg>
