<svg width="21" height="20" viewBox="0 0 21 20" fill="none" xmlns="http://www.w3.org/2000/svg">
<path fill-rule="evenodd" clip-rule="evenodd" d="M1.53369 4.16671C1.53369 2.32576 3.02607 0.833374 4.86702 0.833374C6.42023 0.833374 7.72531 1.89568 8.09534 3.33337H13.3054C13.6754 1.89568 14.9805 0.833374 16.5337 0.833374C18.3746 0.833374 19.867 2.32576 19.867 4.16671C19.867 5.71991 18.8047 7.02499 17.367 7.39502V12.605C18.8047 12.9751 19.867 14.2802 19.867 15.8334C19.867 17.6743 18.3746 19.1667 16.5337 19.1667C14.9805 19.1667 13.6754 18.1044 13.3054 16.6667H8.09534C7.72531 18.1044 6.42023 19.1667 4.86702 19.1667C3.02607 19.1667 1.53369 17.6743 1.53369 15.8334C1.53369 14.2802 2.596 12.9751 4.03369 12.605V7.39502C2.596 7.02499 1.53369 5.71991 1.53369 4.16671ZM5.70036 7.39502V12.605C6.8717 12.9065 7.79386 13.8287 8.09534 15H13.3054C13.6069 13.8287 14.529 12.9065 15.7004 12.605V7.39502C14.529 7.09354 13.6069 6.17138 13.3054 5.00004H8.09534C7.79386 6.17138 6.8717 7.09354 5.70036 7.39502ZM4.86702 2.50004C3.94655 2.50004 3.20036 3.24623 3.20036 4.16671C3.20036 5.08718 3.94655 5.83337 4.86702 5.83337C5.7875 5.83337 6.53369 5.08718 6.53369 4.16671C6.53369 3.24623 5.7875 2.50004 4.86702 2.50004ZM16.5337 2.50004C15.6132 2.50004 14.867 3.24623 14.867 4.16671C14.867 5.08718 15.6132 5.83337 16.5337 5.83337C17.4542 5.83337 18.2004 5.08718 18.2004 4.16671C18.2004 3.24623 17.4542 2.50004 16.5337 2.50004ZM4.86702 14.1667C3.94655 14.1667 3.20036 14.9129 3.20036 15.8334C3.20036 16.7539 3.94655 17.5 4.86702 17.5C5.7875 17.5 6.53369 16.7539 6.53369 15.8334C6.53369 14.9129 5.7875 14.1667 4.86702 14.1667ZM16.5337 14.1667C15.6132 14.1667 14.867 14.9129 14.867 15.8334C14.867 16.7539 15.6132 17.5 16.5337 17.5C17.4542 17.5 18.2004 16.7539 18.2004 15.8334C18.2004 14.9129 17.4542 14.1667 16.5337 14.1667Z" fill="#C4C4C4"/>
</svg>
