<svg width="14" height="15" viewBox="0 0 14 15" fill="none" xmlns="http://www.w3.org/2000/svg">
<path d="M9.85714 2C11.0402 2 12 2.95938 12 4.14286V9.85714C12 10.9085 11.2143 11.8147 10.1897 11.9754L11.2165 13.0022C11.3728 13.1585 11.2612 13.4286 11.0201 13.4286H10.154C9.96429 13.4286 9.78125 13.3527 9.64732 13.2188L8.42857 12H5.57143L4.35268 13.2188C4.21808 13.3527 4.03638 13.4286 3.8471 13.4286H2.96071C2.73795 13.4286 2.62634 13.1585 2.78393 13.0022L3.81116 11.9754C2.78527 11.8147 2 10.9085 2 9.85714V4.14286C2 2.95938 2.95938 2 4.14286 2H9.85714ZM3.42857 6.28571C3.42857 6.6808 3.74844 7 4.14286 7H9.85714C10.2522 7 10.5714 6.6808 10.5714 6.28571V4.14286C10.5714 3.74844 10.2522 3.42857 9.85714 3.42857H4.14286C3.74844 3.42857 3.42857 3.74844 3.42857 4.14286V6.28571ZM7 10.5714C7.59152 10.5714 8.07143 10.0915 8.07143 9.5C8.07143 8.90848 7.59152 8.42857 7 8.42857C6.40848 8.42857 5.92857 8.90848 5.92857 9.5C5.92857 10.0915 6.40848 10.5714 7 10.5714Z" fill="#C4C4C4"/>
</svg>
