<svg width="16" height="16" viewBox="0 0 16 16" fill="none" xmlns="http://www.w3.org/2000/svg">
<path d="M8 12.6667C5.4 12.6667 3.33333 10.6 3.33333 8C3.33333 5.4 5.4 3.33334 8 3.33334C9.33333 3.33334 10.6 3.93334 11.4667 4.86667L10.2667 5.06667C9.93333 5.13334 9.66667 5.46667 9.73333 5.86667C9.8 6.2 10.0667 6.4 10.4 6.4C10.4667 6.4 10.4667 6.4 10.5333 6.4L13.3333 5.86667C13.6667 5.8 13.9333 5.46667 13.8667 5.06667L13.3333 2.33334C13.2667 2 12.9333 1.73334 12.5333 1.8C12.2 1.86667 11.9333 2.2 12 2.6L12.2 3.73334C11.0667 2.66667 9.6 2 8 2C5.8 2 3.86667 3.2 2.8 5C2.26667 5.93334 2 6.93334 2 8C2 9.06667 2.26667 10.0667 2.8 11C3.33333 11.9333 4.06667 12.6667 5 13.2C5.93333 13.7333 6.93333 14 8 14C8.26667 14 8.53333 13.8 8.6 13.6C8.66667 13.5333 8.66667 13.4 8.66667 13.3333C8.66667 13.2667 8.66667 13.1333 8.6 13.0667C8.53333 12.8667 8.26667 12.6667 8 12.6667Z" fill="#C29671"/>
<path d="M13.3337 8.66667C13.7018 8.66667 14.0003 8.36819 14.0003 8C14.0003 7.63181 13.7018 7.33334 13.3337 7.33334C12.9655 7.33334 12.667 7.63181 12.667 8C12.667 8.36819 12.9655 8.66667 13.3337 8.66667Z" fill="#C29671"/>
<path d="M13.1862 11.0166C13.3703 10.6977 13.2611 10.29 12.9422 10.1059C12.6234 9.92184 12.2157 10.0311 12.0316 10.3499C11.8475 10.6688 11.9567 11.0765 12.2756 11.2606C12.5944 11.4447 13.0021 11.3355 13.1862 11.0166Z" fill="#C29671"/>
<path d="M10.9901 13.1795C11.3089 12.9954 11.4182 12.5877 11.2341 12.2689C11.05 11.95 10.6423 11.8408 10.3234 12.0249C10.0046 12.209 9.89533 12.6167 10.0794 12.9355C10.2635 13.2544 10.6712 13.3636 10.9901 13.1795Z" fill="#C29671"/>
<path d="M8.66634 7.73334V6C8.66634 5.6 8.39967 5.33334 7.99967 5.33334C7.59967 5.33334 7.33301 5.6 7.33301 6V8C7.33301 8.2 7.39967 8.33334 7.53301 8.46667L8.86634 9.8C8.99967 9.93334 9.19967 10 9.33301 10C9.46634 10 9.66634 9.93334 9.79967 9.8C10.0663 9.53334 10.0663 9.13334 9.79967 8.86667L8.66634 7.73334Z" fill="#C29671"/>
</svg>
