<svg width="16" height="16" viewBox="0 0 16 16" fill="none" xmlns="http://www.w3.org/2000/svg">
<path d="M3.05748 6.01149C3.05748 4.91954 3.97702 4 5.06898 4C6.16093 4 7.08047 4.91954 7.08047 6.01149C7.08047 7.10345 6.16093 8.02299 5.06898 8.02299C3.97702 8.02299 3.05748 7.10345 3.05748 6.01149ZM5.06898 9.17241C2.25288 9.17241 1.33334 11.4713 1.33334 11.4713V12.6207H8.80461V11.4713C8.80461 11.4713 7.88507 9.17241 5.06898 9.17241Z" fill="#EBF0FA"/>
<path d="M10.8736 9.17241C10.0115 9.17241 9.32184 9.40229 8.8046 9.68965C9.60919 10.3793 9.95402 11.1839 10.0115 11.2414L10.069 11.3563V12.6207H14.6667V11.4713C14.6092 11.4713 13.6897 9.17241 10.8736 9.17241Z" fill="#EBF0FA"/>
<path d="M10.8736 8.02299C11.9845 8.02299 12.885 7.12241 12.885 6.01149C12.885 4.90058 11.9845 4 10.8736 4C9.76264 4 8.86206 4.90058 8.86206 6.01149C8.86206 7.12241 9.76264 8.02299 10.8736 8.02299Z" fill="#EBF0FA"/>
</svg>
