<svg width="24" height="24" viewBox="0 0 24 24" fill="none" xmlns="http://www.w3.org/2000/svg">
<path d="M9.8 10.9C11.6225 10.9 13.1 9.42254 13.1 7.6C13.1 5.77747 11.6225 4.3 9.8 4.3C7.97747 4.3 6.5 5.77747 6.5 7.6C6.5 9.42254 7.97747 10.9 9.8 10.9Z" fill="white"/>
<path d="M9.79922 13.1C13.4443 13.1 16.3992 16.0549 16.3992 19.7H3.19922C3.19922 16.0549 6.15414 13.1 9.79922 13.1Z" fill="white"/>
<path d="M18.5992 8.7C18.5992 8.09249 18.1067 7.6 17.4992 7.6C16.8917 7.6 16.3992 8.09249 16.3992 8.7V9.8H15.2992C14.6917 9.8 14.1992 10.2925 14.1992 10.9C14.1992 11.5075 14.6917 12 15.2992 12H16.3992V13.1C16.3992 13.7075 16.8917 14.2 17.4992 14.2C18.1067 14.2 18.5992 13.7075 18.5992 13.1V12H19.6992C20.3067 12 20.7992 11.5075 20.7992 10.9C20.7992 10.2925 20.3067 9.8 19.6992 9.8H18.5992V8.7Z" fill="white"/>
</svg>
