<svg width="20" height="21" viewBox="0 0 20 21" fill="none" xmlns="http://www.w3.org/2000/svg">
<path d="M19.5821 5.68613C19.3522 4.82559 18.6745 4.14797 17.814 3.91797C16.2541 3.5 10 3.5 10 3.5C10 3.5 3.74582 3.5 2.18598 3.91797C1.32559 4.14797 0.647812 4.82559 0.417852 5.68613C0 7.24582 0 10.5001 0 10.5001C0 10.5001 0 13.7543 0.417852 15.3139C0.647812 16.1744 1.32559 16.8522 2.18598 17.0822C3.74582 17.5 10 17.5 10 17.5C10 17.5 16.2541 17.5 17.814 17.0822C18.6745 16.8522 19.3522 16.1744 19.5821 15.3139C20 13.7543 20 10.5001 20 10.5001C20 10.5001 20 7.24582 19.5821 5.68613ZM7.99988 13.5002V7.50004L13.1959 10.5001L7.99988 13.5002Z" fill="white"/>
</svg>
